<svg width="188" height="188" viewBox="0 0 188 188" fill="none" xmlns="http://www.w3.org/2000/svg">
<path d="M67.2748 26.4445C65.5452 26.4445 65.3948 28.3245 67.2748 28.3245C71.8526 28.4373 73.319 28.5125 73.7796 27.3845C74.2402 26.2565 71.58 26.4445 67.2748 26.4445Z" fill="black"/>
<path d="M55.5622 30.9282C55.4941 31.3255 55.5119 31.7327 55.6144 32.1225C55.717 32.5123 55.9019 32.8756 56.1568 33.1879C56.4117 33.5002 56.7305 33.7542 57.0918 33.9329C57.4532 34.1115 57.8486 34.2106 58.2515 34.2235C58.6543 34.2364 59.0553 34.1628 59.4273 34.0076C59.7993 33.8524 60.1337 33.6193 60.408 33.3239C60.6823 33.0285 60.8901 32.6778 61.0173 32.2954C61.1446 31.9129 61.1884 31.5076 61.1458 31.1068C61.3338 26.9332 55.5622 27.1776 55.5622 30.9282Z" fill="black"/>
<path d="M141.309 41.5407C141.403 40.6007 141.675 38.2507 140.576 38.2507C139.213 38.2507 139.014 42.4901 140.029 42.8285C140.575 43.0071 141.215 42.4619 141.309 41.5407Z" fill="black"/>
<path d="M143.236 44.0132C144.336 43.8534 144.515 42.5468 143.509 41.823C142.315 41.0334 141.77 44.2294 143.236 44.0132Z" fill="black"/>
<path d="M130.508 23.3333C115.139 36.1455 113.034 63.1423 133.253 76.0391C134.701 76.9791 135.566 75.3247 133.347 73.8489C115.6 61.8545 117.367 36.4181 131.702 24.7997C142.869 15.2775 166.567 16.8379 175.168 30.0167C186.974 45.4797 177.678 75.1367 157.308 78.1447C156.753 78.2293 156.669 80.0247 158.859 79.7991C179.999 77.4115 189.061 45.2071 176.719 28.9169C167.573 14.9109 142.503 13.0873 130.508 23.3333Z" fill="black"/>
<path d="M156.688 45.1126C162.647 44.1726 173.429 42.6404 174.895 39.8956C178.74 32.1218 162.816 20.3154 153.943 22.0356C152.288 22.4022 152.288 27.1586 153.661 43.5334C153.943 46.3064 155.315 45.3194 156.688 45.1126Z" fill="black"/>
<path d="M15.4805 147.328C10.7805 142.205 8.61855 133.05 9.35175 126.742C2.95035 131.132 5.78915 147.873 15.4805 147.328Z" fill="black"/>
<path d="M69.8399 46.2127C68.0069 46.3913 68.8341 47.5851 69.6613 47.7637C71.6729 48.2243 83.2913 48.3183 85.9421 48.3183C87.5025 48.2243 87.3145 46.7579 84.3911 46.5793C82.3795 46.3913 73.5905 45.7333 69.8399 46.2127Z" fill="black"/>
<path d="M63.2514 57.4643C64.7178 57.9249 64.1914 56.8251 64.4452 39.8957C64.4452 37.6961 62.6122 38.4293 62.5652 39.8017C62.4806 40.5349 62.5652 47.3217 62.5652 51.8807C62.5182 55.5467 62.3396 57.1917 63.2514 57.4643Z" fill="black"/>
<path d="M44.5822 25.9934C42.7492 26.0404 41.7622 27.9204 44.4882 27.9204C50.2598 27.9204 55.4768 28.099 55.7682 26.9146C56.0596 25.7302 53.9164 25.749 44.5822 25.9934Z" fill="black"/>
<path d="M61.4181 144.677C62.77 145.768 64.3265 146.576 65.9959 147.056C87.1271 151.586 81.9759 121.798 70.4797 113.469C67.8289 115.03 63.6177 115.03 63.6177 115.03C63.6177 115.03 63.3451 115.302 61.2395 117.041C80.3685 125.915 77.2571 147.328 61.4181 144.677Z" fill="black"/>
<path d="M62.2445 23.6996C62.2445 24.7054 62.2445 25.5796 63.1845 25.3446C64.2937 25.1002 64.1245 22.8724 64.1245 18.304C64.0305 10.784 64.4911 9.60903 63.4853 9.42103C61.6053 9.14843 62.2445 19.3098 62.2445 23.6996Z" fill="black"/>
<path d="M109.283 27.5438C107.638 27.4498 97.2513 25.8048 97.2043 27.995C97.204 28.1185 97.2282 28.2409 97.2753 28.355C97.3225 28.4692 97.3917 28.5729 97.4791 28.6603C97.5664 28.7476 97.6701 28.8168 97.7843 28.864C97.8984 28.9111 98.0208 28.9353 98.1443 28.935C101.989 28.935 108.851 29.4802 110.411 29.5742C111.972 29.6682 110.956 27.7224 109.283 27.5438Z" fill="black"/>
<path d="M138.751 34.7727C138.751 34.2181 137.012 33.6729 136.824 34.5847C136.636 35.4965 135.64 40.9015 137.191 41.1646C138.742 41.4279 138.751 35.3179 138.751 34.7727Z" fill="black"/>
<path d="M90.2755 31.9336C94.7593 31.9336 95.2199 24.611 90.2755 24.705C84.8517 24.705 85.7635 31.9336 90.2755 31.9336Z" fill="black"/>
<path d="M91.6204 49.5967C91.7144 46.5793 91.0282 41.6255 91.4418 36.1453C91.5076 35.2053 90.6052 35.0361 89.8814 35.8727C89.4208 36.3991 89.6088 39.0217 89.6088 50.4239C89.6088 51.6083 91.6204 51.6083 91.6204 49.5967Z" fill="black"/>
<path d="M109.076 16.6498C109.122 16.2468 109.081 15.8385 108.955 15.4529C108.83 15.0673 108.622 14.7133 108.347 14.415C108.072 14.1167 107.736 13.8811 107.362 13.7244C106.988 13.5676 106.585 13.4932 106.179 13.5064C105.568 13.5267 104.98 13.7453 104.504 14.1292C104.028 14.5131 103.69 15.0415 103.541 15.6346C103.441 16.0284 103.428 16.4383 103.502 16.8378C103.455 17.2407 103.495 17.6492 103.62 18.0351C103.746 18.421 103.953 18.7751 104.229 19.0731C104.643 19.5231 105.192 19.8263 105.794 19.9367C106.396 20.0472 107.017 19.959 107.564 19.6855C108.112 19.4119 108.555 18.9679 108.828 18.4203C109.1 17.8727 109.188 17.2513 109.076 16.6498Z" fill="black"/>
<path d="M127.312 31.5675C126.306 31.6615 126.212 33.3065 126.212 33.9457C126.158 34.2983 126.221 34.6586 126.391 34.9724C126.561 35.2861 126.828 35.5361 127.152 35.6847C128.045 36.1453 128.317 31.4735 127.312 31.5675Z" fill="black"/>
<path d="M131.974 28.4563C132.068 27.1779 130.235 26.8113 130.094 28.0897C129.953 29.3681 128.27 37.1137 130.461 37.7905C131.523 38.1383 131.523 37.2735 131.974 28.4563Z" fill="black"/>
<path d="M91.4409 19.761C91.4409 16.1044 91.4409 10.7088 91.1589 9.42099C90.9521 8.33059 89.4763 8.48099 89.3353 10.5208C89.1896 13.8758 89.2178 17.2361 89.4199 20.5882C89.5139 22.1392 91.4409 22.4212 91.4409 19.761Z" fill="black"/>
<path d="M61.1356 145.129C53.3618 140.833 50.523 136.255 49.3292 131.226C47.7782 130.22 46.5092 126.742 46.5092 126.742C46.5092 126.742 41.7434 130.126 38.0492 127.287C39.6096 131.132 42.2604 145.777 42.2604 145.777C42.2604 145.777 54.1044 146.313 61.1356 145.129Z" fill="black"/>
<path d="M135.086 33.3066C135.274 30.6558 135.64 29.3774 134.447 29.3774C133.901 29.3774 133.441 30.1952 133.347 31.5676C133.253 32.94 132.172 38.4954 133.347 38.9842C134.832 39.5858 135.001 34.9516 135.086 33.3066Z" fill="black"/>
<path d="M153.021 49.869C156.396 49.258 174.895 45.0186 176.728 44.1068C178.006 43.4676 178.185 42.0012 177.179 42.2268C175.168 42.7814 154.619 47.6318 151.921 48.083C150.746 21.5656 151.141 20.2872 149.543 20.823C148.725 21.1896 148.904 22.1954 149.092 26.6792C149.459 33.3626 150.098 44.3418 149.91 46.0808C140.66 33.1276 139.852 29.8282 135.913 24.9402C134.907 23.6618 133.902 25.1282 134.813 26.4066C141.309 35.9194 145.614 43.3266 148.359 47.1806C124.859 37.9498 125.489 34.9606 124.013 36.9346C123.646 37.4798 124.285 37.9404 124.746 38.213C132.529 42.9694 144.42 47.7258 148.904 49.493C150.22 49.9743 151.639 50.104 153.021 49.869Z" fill="black"/>
<path d="M108.182 46.6734C106.077 46.5888 95.0222 46.2222 94.5522 47.5006C94.1856 48.6004 96.9304 48.4406 99.4872 48.5064C102.382 48.7198 105.288 48.7198 108.182 48.5064C110.203 48.262 110.288 46.758 108.182 46.6734Z" fill="black"/>
<path d="M38.3601 68.444C42.6559 68.5756 41.9321 69.2148 41.9321 61.9486C41.9321 60.6702 40.9263 60.6702 38.7267 60.8488C37.7867 60.9428 37.5423 61.3094 37.5423 62.0426C37.5423 67.2596 37.2603 68.444 38.3601 68.444Z" fill="black"/>
<path d="M53.3717 32.028C52.0839 32.6672 47.1489 35.1394 45.7765 35.788C44.4041 36.4366 44.1315 38.8054 45.5885 38.1662C47.6941 37.1604 53.4657 34.2276 54.1895 33.7764C54.9133 33.3252 54.6501 31.3888 53.3717 32.028Z" fill="black"/>
<path d="M44.4884 47.6793C44.3474 49.4183 44.4226 66.5263 44.4884 67.3535C44.6106 68.7165 45.5036 68.4439 47.6938 68.4439C48.6338 68.4439 48.8876 67.9927 48.8876 67.2595C48.8876 46.3727 49.4798 46.3915 48.0604 46.3915C46.4154 46.3915 44.6106 46.3069 44.4884 47.6793Z" fill="black"/>
<path d="M26.9201 68.4442C27.7473 68.4442 27.8601 68.1716 27.8601 66.8932C27.8601 65.4268 27.8601 52.6146 27.7661 51.4302C27.6721 50.0578 26.9389 50.2364 24.4667 50.2364C22.9063 50.2364 23.3763 50.3022 23.3763 67.1564C23.3575 68.7262 24.3633 68.4912 26.9201 68.4442Z" fill="black"/>
<path d="M40.0049 44.3796C40.9449 43.919 40.9449 42.8286 40.9449 41.0896C40.9449 13.8296 40.4843 12.1846 42.6839 9.88163C45.8893 6.47883 52.1966 7.41883 74.0704 6.94883C87.8885 6.77023 105.184 6.40363 107.657 6.67623C115.731 7.45643 112.958 9.84403 112.958 39.5292C112.958 52.614 112.413 53.8078 113.898 53.9864C115.383 54.165 114.443 36.7844 115.355 14.5064C115.637 7.27783 113.898 5.36023 107.835 4.81503C103.351 4.34503 58.8707 5.48243 53.8417 5.36023C39.8451 5.08763 38.7453 9.47743 39.1119 20.4002C39.8169 37.1228 38.0685 45.2162 40.0049 44.3796Z" fill="black"/>
<path d="M17.68 68.4436C19.9736 68.4436 21.064 68.6316 21.064 66.7046C21.158 58.9308 21.6186 58.3856 19.8796 58.1976C18.1406 58.0096 16.5802 58.1976 16.5802 59.3914C16.6742 67.1652 16.4016 68.4248 17.68 68.4436Z" fill="black"/>
<path d="M84.0249 28.7288C85.6699 28.8228 85.4913 27.1026 83.8463 26.9898C78.5917 26.642 78.6293 26.548 77.4355 27.2718C65.2155 34.6696 72.2467 33.1468 63.6175 31.295C61.9725 30.9284 62.0759 32.6486 63.0723 33.175C64.0687 33.7014 68.0073 35.055 69.2951 35.055C70.3949 35.055 76.9749 30.1106 78.5353 28.9262C79.0711 28.381 82.2577 28.6254 84.0249 28.7288Z" fill="black"/>
<path d="M58.9543 60.4818C58.7663 61.4218 59.4055 61.4218 59.8943 61.4218C62.2725 61.4218 71.9733 62.2396 72.4339 60.8672C72.8005 59.9272 71.7007 59.9272 64.9139 59.7768C62.0751 59.664 59.2551 59.2974 58.9543 60.4818Z" fill="black"/>
<path d="M101.32 19.2157C100.126 20.0429 95.7554 23.3611 94.8248 23.9721C94.101 24.4515 94.4582 26.5383 95.558 25.7111C96.9304 24.7053 101.32 21.4999 102.138 20.9547C102.956 20.4095 102.693 18.2099 101.32 19.2157Z" fill="black"/>
<path d="M52.8171 68.4439C55.9285 68.4439 56.4831 68.9985 56.2951 66.4323C56.2105 64.9659 56.1165 41.4565 56.1165 40.1687C56.2105 38.4297 54.6501 38.9843 52.8171 38.9843C51.6327 38.9843 51.4447 39.0689 51.4447 48.1305C51.4447 55.9983 51.6797 65.3325 51.6327 67.1655C51.6045 68.3593 52.0839 68.4439 52.8171 68.4439Z" fill="black"/>
<path d="M33.6979 68.4434C34.6379 68.4434 34.8823 67.9922 34.8823 67.259C34.8823 55.6688 35.4087 55.5748 34.0645 55.5466C32.2315 55.5466 30.4925 55.3586 30.4925 56.825C30.4925 69.327 29.4397 68.5186 33.6979 68.4434Z" fill="black"/>
<path d="M111.896 103.957C111.295 116.751 106.125 111.825 98.351 107.341C96.0574 106.063 95.5874 107.821 96.612 108.526C106.623 115.51 113.353 117.681 113.353 104.23C113.306 102.134 111.896 102.669 111.896 103.957Z" fill="black"/>
<path d="M151.376 73.6605C148.541 70.7472 144.726 68.9888 140.669 68.7255C142.775 58.1035 131.269 56.8251 129.596 67.4377C129.323 68.6315 130.968 70.0039 131.429 67.8983C133.441 58.8367 140.397 60.7637 138.752 68.8383C130.151 75.2491 142.775 88.8791 150.972 87.6947C150.332 89.8849 149.505 92.6297 148.772 95.0173C143.282 95.0173 132.942 89.1611 127.641 83.2109C129.652 79.1783 123.242 76.9881 126.353 73.3221C127.002 72.5983 126.08 71.2165 125.075 71.9497C122.424 73.8297 123.195 77.1667 125.263 79.8269C126.908 81.9231 125.62 85.8617 124.247 87.0555C125.263 80.5507 117.479 57.4925 102.016 57.5865C87.8319 56.8533 64.1251 61.2431 59.9233 75.2491C50.9557 69.6655 15.9031 67.9265 12.5191 87.1401C10.9587 93.5509 12.3311 100.046 16.3637 105.94C16.2697 109.7 18.1027 113.629 20.3869 116.741C14.1641 116.919 6.47487 117.107 9.40767 125.52C1.53987 129.553 3.64546 148.673 14.8973 148.306C15.9971 150.966 15.9031 151.239 18.1873 152.066C17.8301 155.177 16.5423 165.884 15.9971 170.734C15.9031 171.825 12.7917 173.197 11.4193 174.391C10.6802 174.875 10.1054 175.572 9.77118 176.39C9.43693 177.207 9.3589 178.107 9.54742 178.971C9.73594 179.834 10.1821 180.619 10.8269 181.223C11.4717 181.827 12.2847 182.221 13.1583 182.353C25.8765 182.531 36.4045 182.353 52.0461 182.531C67.8851 182.719 76.7587 183.171 77.2193 180.341C79.9641 181.281 107.6 181.526 112.356 180.886C116.116 180.792 122.236 181.826 123.89 179.787C126.353 176.675 122.79 174.758 122.602 172.191C133.948 156.728 139.353 156.55 128.374 133.304C129.746 129.638 125.714 126.526 127.002 122.87C144.382 115.18 143.649 116.741 149.966 97.2451C151.836 88.2117 158.896 81.7539 151.376 73.6605ZM79.6351 77.5991C88.9505 70.7841 106.218 65.8397 107.544 67.1651C105.746 67.385 104.04 68.0793 102.599 69.1767C102.474 69.2825 102.386 69.4251 102.347 69.5842C102.308 69.7433 102.32 69.9106 102.382 70.0622C102.443 70.2146 102.55 70.3439 102.689 70.4314C102.827 70.5189 102.99 70.5601 103.154 70.5491C104.573 70.4645 107.938 67.3813 110.467 69.9099C105.438 70.1825 100.315 74.6099 102.872 79.7987C100.992 79.5167 96.3577 82.1957 97.8429 83.7279C99.0179 84.9405 101.227 80.9079 104.16 81.8479C105.438 82.3085 105.711 84.8935 107.177 85.0533C108.183 85.1661 108.371 83.8689 107.816 83.2297C110.749 83.5869 114.96 82.0359 116.69 79.9303C121.634 90.8531 118.983 97.4331 105.805 102.133C101.415 103.684 96.9311 104.417 89.8247 104.417C83.0283 98.1588 78.9552 89.4861 78.4789 80.2593C78.4308 79.7543 78.5117 79.2454 78.7139 78.7801C78.9161 78.3149 79.2331 77.9085 79.6351 77.5991ZM110.194 71.7429C109.649 74.6663 109.189 78.2383 108.916 81.2557C101.227 80.8045 103.699 71.9215 110.194 71.7429ZM16.8525 102.763C2.02866 72.7487 44.5825 68.4435 59.7729 77.2325C69.7463 84.1885 67.8287 91.3325 69.4737 99.1909C70.6675 104.323 73.8635 104.135 74.3241 107.801C74.5967 110.621 69.2011 113.441 65.8641 113.93C70.4419 108.347 69.5207 97.8185 62.7527 96.4461C62.0177 96.3097 61.3231 96.0089 60.7208 95.5661C60.1185 95.1234 59.6241 94.5501 59.2747 93.8893C58.3347 92.1503 57.8083 90.6839 53.1459 90.3173C47.0077 89.7721 30.9995 87.8451 27.2489 79.3381C26.6003 77.9657 25.7825 78.7835 25.6885 80.4379C16.0159 83.5493 14.2957 93.5227 16.9559 102.133C16.9559 102.302 16.8525 102.49 16.8525 102.763ZM52.7323 98.6457L43.3981 91.5111C44.4509 90.4583 43.3981 91.3701 54.4713 92.4511C55.7685 95.5531 54.7439 97.7809 52.7323 98.6457ZM18.5069 104.013C28.2077 107.585 32.0523 102.462 31.7703 97.7057C31.4037 91.5675 23.7239 89.6499 17.7737 94.0397C17.7793 92.5536 17.9946 91.0759 18.4129 89.6499C20.9453 88.3126 23.8995 88.0158 26.6473 88.8227C26.7552 88.8828 26.874 88.9209 26.9967 88.935C27.1195 88.9491 27.2438 88.9388 27.3625 88.9047C27.4813 88.8707 27.5922 88.8135 27.6888 88.7365C27.7854 88.6596 27.8659 88.5643 27.9257 88.4561C28.7529 85.9933 22.7181 86.2659 19.6067 87.0837C21.2891 84.7289 23.7009 82.9944 26.4687 82.1487C29.5801 86.6325 35.7089 89.1047 41.5651 90.4771C38.9989 93.1279 39.7321 99.5293 43.3041 101.09C48.6997 103.374 58.4945 100.451 56.5675 93.3065C57.8553 95.3275 58.8611 98.4389 62.1511 98.5235C63.9841 98.7961 65.9111 99.1627 66.6349 104.38C67.4621 110.697 62.1511 115.18 61.1453 116.008C53.3715 112.802 42.2983 114.908 37.3539 121.77C35.7089 115.726 30.9525 116.919 22.8967 116.647C19.9921 113.188 17.8113 108.572 18.5069 104.013ZM19.5127 95.0455C21.3927 93.4945 26.6473 92.9399 28.3863 94.5943C29.9467 96.2393 30.9525 100.234 28.5743 101.908C25.6415 99.6515 21.8909 96.9067 19.5127 95.0737V95.0455ZM50.7113 133.022C55.6557 136.688 65.0839 133.849 63.4389 128.265C62.0101 123.706 58.9457 125.144 60.5061 126.714C63.9841 130.643 58.6731 133.943 54.5559 132.57C53.1835 130.69 53.4279 127.617 54.0107 126.075C54.1799 125.605 53.9167 124.975 53.4655 124.975C51.8111 124.881 51.2659 129.271 51.9991 131.649C48.5211 129.91 46.5095 126.16 48.1545 122.409C48.3331 121.948 48.1545 121.131 47.6939 121.131C46.5095 121.131 45.3157 123.951 45.8139 126.348C34.4681 131.377 36.4797 119.025 50.0251 116.741C60.9103 114.908 72.9893 123.687 73.6285 134.855C74.2113 144.179 58.5509 149.951 50.7113 133.05V133.022ZM58.1279 144.461C53.1289 144.935 48.1056 145.089 43.0879 144.922C42.1731 139.627 40.9808 134.384 39.5159 129.215C40.7003 129.666 42.9939 129.938 46.2839 128.275C49.3389 135.522 53.0989 141.745 58.1279 144.49V144.461ZM7.24567 139.066C5.87327 134.215 6.79447 130.831 8.43947 128.82C7.97887 134.394 9.71787 142.638 13.8351 146.2C10.4511 145.589 8.43947 143.305 7.24567 139.094V139.066ZM13.2899 125.426C13.9229 125.431 14.538 125.638 15.0453 126.017C15.5526 126.395 15.9256 126.926 16.1099 127.532C17.3883 130.352 22.9719 126.592 26.1679 131.198C22.9343 132.335 20.1613 131.64 21.0449 133.078C21.7781 134.272 25.2561 133.266 27.1831 132.805C27.7843 134.137 28.1531 135.561 28.2735 137.017C26.8141 137.594 25.2718 137.933 23.7051 138.022C22.3703 138.022 22.6429 140.842 28.4615 139.028C28.2735 144.339 21.9661 146.99 16.7491 145.984C12.3687 145.223 6.14587 126.009 13.2899 125.455V125.426ZM17.1345 148.212C34.4305 150.872 34.8817 124.881 17.9523 126.893C17.7202 126.253 17.3587 125.669 16.8904 125.176C16.4221 124.683 15.857 124.291 15.2305 124.027C14.604 123.762 13.9296 123.629 13.2496 123.637C12.5695 123.645 11.8984 123.793 11.2783 124.073C10.4511 120.689 11.0057 119.495 14.7563 119.044C20.0153 118.511 25.3078 118.388 30.5859 118.677C34.2425 118.95 34.4305 118.95 36.0755 123.894C37.7205 128.839 42.9375 148.597 40.9259 149.97C39.5535 150.91 37.9931 151.164 28.0197 150.797C18.3001 150.43 17.8959 150.618 17.1345 148.24V148.212ZM33.6973 180.426C25.6415 180.426 14.5683 180.614 13.6565 180.426C13.2142 180.357 12.7975 180.174 12.4473 179.895C12.0971 179.617 11.8254 179.252 11.659 178.836C11.4929 178.421 11.438 177.969 11.4997 177.526C11.5613 177.083 11.7374 176.663 12.0105 176.309C12.8283 175.124 15.8457 173.742 17.0395 172.737C23.111 173.944 29.0605 175.7 34.8149 177.982C34.8149 180.821 37.6349 180.454 33.6963 180.454V180.426H33.6973ZM35.1637 175.942C29.5915 173.746 23.8304 172.062 17.9523 170.913C18.5069 166.063 19.7853 155.535 20.1519 152.245C22.6241 152.517 31.1311 152.79 34.3365 152.79C41.3771 152.611 43.5767 152.517 43.2101 146.755C48.9535 146.945 54.7044 146.7 60.4121 146.022C64.9899 148.579 70.8461 149.227 75.4521 146.661C75.5461 157.546 75.9973 163.402 75.9973 175.481C69.9155 172.267 55.6557 172.464 42.8717 169.907C42.7871 167.341 42.3265 157.913 42.1385 155.901C41.9599 153.711 40.1739 155.262 40.3149 157.913C40.4559 160.564 40.9071 168.441 40.9541 170.274C40.9635 171.759 35.8875 173.959 35.1637 175.97V175.942ZM75.5179 179.787C72.6979 181.526 41.8377 180.332 39.3655 180.426C37.3539 180.52 36.3481 177.954 37.3539 176.581C38.6323 174.842 41.5651 173.103 42.5709 171.731C52.8169 174.297 67.8287 173.291 76.2511 177.587C76.0631 178.621 75.9691 179.448 75.5179 179.815V179.787ZM72.7731 145.834C69.9502 146.642 66.9488 146.58 64.1627 145.655C82.6525 144.555 75.4427 121.864 63.0723 116.919C63.3373 116.697 63.5827 116.451 63.8055 116.186C65.998 115.952 68.1503 115.43 70.2069 114.635C78.3473 121.065 85.4913 140.833 72.7731 145.862V145.834ZM113.127 178.414C110.016 180.698 83.5737 178.508 79.3625 178.875C77.8961 178.997 77.9901 177.869 78.0747 176.769C86.4031 174.297 99.7605 172.737 109.555 173.103C111.661 175.152 114.133 176.525 113.127 178.442V178.414ZM122.64 178.593C122.189 179.147 119.895 179.147 114.96 179.053C116.145 176.036 113.766 174.353 110.928 171.731V171.092C114.079 172.542 117.528 173.231 120.995 173.103C121.296 174.964 123.928 177.164 122.64 178.621V178.593ZM121.089 171.186C117.575 171.307 114.087 170.53 110.956 168.93C110.862 166.909 111.322 154.745 110.495 149.34C109.95 146.323 108.305 145.044 108.672 148.062C109.771 157.856 109.038 164.53 109.038 171.12C98.5805 170.943 88.1466 172.176 78.0183 174.786C78.1029 162.058 77.4637 156.926 77.4637 145.317C78.4269 144.491 79.2327 143.497 79.8419 142.384C80.5462 142.859 81.2182 143.38 81.8535 143.944C82.3141 157.941 103.727 149.895 106.472 141.378C112.967 141.012 123.307 138.455 127.246 134.883C137.464 156.296 131.523 156.851 121.089 171.214V171.186ZM81.1015 130.098C81.9415 127.462 83.318 125.027 85.1444 122.949C86.9708 120.87 89.2076 119.192 91.7141 118.019C100.757 122.776 100.296 125.06 103.332 125.06C106.998 124.609 108.972 127.88 106.998 130.7C106.444 129.873 105.532 128.416 104.254 128.5C103.699 128.5 103.962 129.243 104.254 129.694C106.641 133.454 107.271 139.207 101.96 144.612C97.3823 143.606 97.8429 138.295 96.6491 138.295C96.1039 138.295 95.8219 138.934 95.9253 139.395C96.8653 143.625 98.3035 145.035 100.409 145.975C98.4111 147.564 96.0502 148.633 93.5377 149.086C89.8811 147.714 91.4415 141.491 89.6085 141.491C88.1421 141.491 88.5087 147.62 90.8869 149.537C85.3033 149.998 82.0321 147.103 84.3915 140.758C84.5607 140.297 84.9367 139.479 84.4855 139.385C83.1977 139.197 82.3799 140.936 82.1919 141.764C81.5527 141.303 81.0075 140.824 80.6409 140.57C81.6075 137.172 81.7652 133.596 81.1015 130.126V130.098ZM128.101 120.397C132.162 113.329 122.565 100.084 120.506 101.908C119.688 102.556 121.7 104.013 123.072 105.846C130.978 115.838 124.952 120.181 125.178 124.787C125.357 127.899 127.998 130.277 126.55 132.843C124.99 135.663 115.205 138.878 107.515 139.526C108.275 137.415 108.403 135.128 107.882 132.946C112.272 128.096 108.982 123.33 103.492 123.33C101.452 123.33 102.176 121.939 90.0409 114.917C89.2137 114.457 90.3135 113.178 90.8587 111.9C91.4979 110.894 90.3981 110.245 89.3077 111.712C87.6533 114.005 86.8355 115.735 89.7589 117.023C85.646 119.265 82.3537 122.758 80.3589 126.996C78.9107 121.963 76.127 117.415 72.3031 113.836C73.753 113.059 74.9821 111.927 75.8751 110.546C80.5751 111.091 88.0387 110.546 90.0597 106.42C107.713 105.968 118.701 98.5517 120.44 92.7895C123.73 90.5899 126.203 89.4055 127.114 85.5609C132.425 91.0505 141.938 96.7281 148.255 97.0853C143.574 112.548 142.624 114.551 128.13 120.426L128.101 120.397ZM147.23 85.0721C147.503 83.7937 148.246 76.1515 146.037 75.7379C144.777 75.5029 146.977 79.1689 145.491 84.3389C141.647 83.1545 137.031 76.9317 137.971 72.8145C139.579 65.9713 158.031 76.0575 151.789 85.6267C150.259 85.8671 148.693 85.685 147.259 85.1003L147.23 85.0721Z" fill="black"/>
<path d="M38.5762 110.264C37.6362 112.097 42.0542 114.476 46.35 113.197C50.3826 112.003 49.734 107.435 48.4556 106.786C47.3276 106.241 39.2812 108.713 38.5762 110.264Z" fill="black"/>
<path d="M37.6358 106.335C40.672 106.335 40.3806 103.901 38.7356 104.23C33.5186 105.781 36.5454 98.6461 37.7956 96.8131C37.9449 96.6179 38.0121 96.3721 37.9828 96.1282C37.9536 95.8842 37.8303 95.6613 37.6391 95.5069C37.448 95.3525 37.2041 95.2788 36.9594 95.3016C36.7148 95.3243 36.4887 95.4417 36.3292 95.6287C34.28 97.1421 30.5858 106.335 37.6358 106.335Z" fill="black"/>
<path d="M84.7573 90.4114C92.5311 93.3348 100.86 82.177 92.3525 77.8718C86.7689 75.0518 79.6343 81.3498 81.5519 86.9334C81.7883 87.7179 82.1995 88.4385 82.7548 89.0409C83.31 89.6434 83.9947 90.112 84.7573 90.4114ZM83.1123 83.634C83.6575 81.3498 86.5903 79.3382 89.1471 79.1502C88.5038 82.3263 88.0456 85.5371 87.7747 88.7664C84.5693 89.5842 82.5577 86.2002 83.1123 83.634Z" fill="black"/>
<path d="M106.256 95.3561C105.011 96.2576 103.482 96.6783 101.951 96.5405C100.757 96.3807 100.851 98.2795 102.891 98.4205C103.631 98.5242 104.385 98.4625 105.099 98.2398C105.812 98.0171 106.468 97.639 107.018 97.1327C108.277 95.9013 107.196 94.4349 106.256 95.3561Z" fill="black"/>
<path d="M11.3631 68.4435C13.4687 68.5375 14.6343 68.6315 14.6625 67.2591C14.7095 64.5143 15.0291 63.9597 13.7225 63.7811C12.4159 63.6025 10.0659 63.5085 10.1599 65.1535C10.1787 66.2533 9.6241 68.3589 11.3631 68.4435Z" fill="black"/>
<path d="M100.22 89.7725C100.963 90.1391 102.354 88.1369 104.92 88.9453C106.5 89.5751 107.355 85.7493 102.26 87.0653C100.22 87.5729 98.942 89.4059 100.22 89.7725Z" fill="black"/>
<path d="M82.1919 78.8774C83.3857 78.8774 85.3973 76.0574 89.1479 75.954C89.2771 75.9543 89.405 75.928 89.5235 75.8767C89.6421 75.8254 89.7488 75.7502 89.837 75.6558C89.9252 75.5614 89.993 75.4499 90.0362 75.3281C90.0794 75.2064 90.097 75.077 90.0879 74.9482C89.8999 72.7486 83.8275 75.0046 81.9381 77.0538C81.0827 77.9562 81.0075 78.8774 82.1919 78.8774Z" fill="black"/>
<path d="M103.972 93.2509C106.172 94.9899 108.916 92.6023 109.189 91.0513C109.377 89.7729 108.55 89.0397 108.005 90.1113C107.757 90.5885 107.391 90.994 106.942 91.2887C106.492 91.5835 105.975 91.7574 105.438 91.7939C105.253 91.781 105.075 91.7133 104.928 91.5996C104.781 91.4858 104.671 91.331 104.611 91.1547C104.254 90.2147 102.966 90.3275 102.788 91.5213C102.788 93.0065 99.366 92.8373 97.8432 91.2393C97.486 90.8727 96.9032 90.7035 96.6494 91.0607C95.5026 92.4989 101.124 96.5785 103.972 93.2509Z" fill="black"/>
</svg>
