<svg transform="scale(1)" version="1.1" id="IgXzAX19iZ" xmlns="http://www.w3.org/2000/svg" xmlns:xlink="http://www.w3.org/1999/xlink" x="0px" y="0px" viewBox="0 0 500 500" xml:space="preserve" class="pbimage_pbimage__wrapper__image__0LEis false"><title>Being Happy</title><style type="text/css"> .st0{fill:#FFFFFF;} .st1{fill:#000005;} .st2{fill:#59BE4C;}
 .st2{fill:#59BE4C;}
 .st1{fill:#000005;}
 .st0{fill:#FFFFFF;}</style><g id="character-3"><path class="st0" d="M432,207.1c0-2.1,0.2-4.2,0.5-6.2c0,0-7.9-13.8-3.9-15.2s7.9,5.8,7.9,5.8s4.6-17.4,7.9-17.4s2.1,14.6,2.1,14.6
		s4.7-15.3,7.8-12.8s-0.8,13.9-0.8,13.9s4.4-8.3,6.5-5.9c1.3,1.4-1.4,12-3.7,19.9c-1.6,5.6-4,11-7.1,16l-33.1,47.1l-17.6-24.3
		L432,207.1z" fill="#FFFFFF"></path><path class="st1" d="M434.5,207.3c0-1,0-2,0.1-3c0.1-1.4,0.7-3.1,0-4.4c-0.3-0.6-0.6-1.1-0.9-1.6c-0.4-0.8-1-2-1.3-2.6
		c-1.1-2.2-1.9-4.4-2.4-6.8c0-0.1,0-0.3-0.1-0.4c0,0,0,0.3,0,0.1s0-0.5,0-0.7s0-0.4,0-0.5c-0.1,0.7,0.1-0.4,0,0c0,0.2-0.1,0.1,0,0
		s-0.1,0.1-0.1,0.1c0.1-0.1-0.2,0.1-0.2,0.1s0.3,0.1,0.2,0c0.1,0,0.3,0.1,0.5,0.2c1.7,1.2,3.1,2.8,4,4.6c0.8,1.5,4.1,1.5,4.6-0.3
		c1.1-4.5,2.6-8.8,4.4-13.1c0.3-0.6,0.5-1.1,0.8-1.7c0.2-0.4,0.1-0.1,0,0c0.1-0.1,0.2-0.3,0.2-0.4s0.4-0.5,0.5-0.8s0.5-0.6,0.1-0.1
		c0.1-0.1,0.1-0.1,0.2-0.2c0.2-0.2,0.2,0,0,0s0.2,0.1-0.5,0.2c0,0-0.8,0-0.4,0c-0.6,0-1.2-0.2-1.3-0.6c0.1,0.2,0.2,0.3,0.3,0.4
		c-0.3-0.5,0.1,0.2,0.1,0.4c0.2,0.5,0.4,1.1,0.5,1.7c0.2,1.3,0.3,2.7,0.3,4c0,2.1,0,4.3-0.2,6.5c-0.2,2.4,4.2,2.9,4.9,0.8
		c1-3.5,2.3-6.8,4-10c-0.1,0.2,0.2-0.4,0.3-0.4l0.4-0.6c0.1-0.2,0.3-0.3,0.4-0.5c0.4-0.5-0.1,0.1,0.2-0.2s0.3-0.1,0,0
		c0.4-0.1-0.3,0.1-0.3,0.1c0.2,0,0.1,0-0.4,0c-0.3,0-0.6-0.1-0.9-0.3c-0.4-0.2,0,0,0,0c-0.2,0-0.1-0.2,0,0.1s0-0.2,0.1,0.3
		c0.1,0.2,0.1,0.4,0.2,0.7c0,0.2,0.1,0.4,0.1,0.6c0,0.3,0,0.6,0,1c0,1.3-0.2,2.6-0.5,3.9c-0.4,1.8-0.8,3.6-1.4,5.3
		c-1,2.8,3.6,3.5,4.8,1.3l0.1-0.2c0.3-0.6-0.1,0.2,0.2-0.3c0.5-0.8,1-1.6,1.5-2.3c0.2-0.3,0.5-0.6,0.7-0.9l0.4-0.5
		c0,0,0.5-0.5,0.2-0.2c0.1-0.1,0.3-0.2,0.5-0.4c0.4-0.3,0.2,0,0.1-0.1l0.1-0.1c-0.2,0.1-0.5,0.1-0.7,0.1c-0.5,0-0.9-0.3-1.2-0.6
		c0.3,0.3-0.3-0.4-0.1-0.1c0,0,0.1,0.5,0,0.2s0,0.7,0,0.9c-0.1,1.2-0.2,2.4-0.4,3.5c-0.5,2.9-1.2,5.7-2,8.6
		c-2.1,8.1-4.9,15.9-9.7,22.9l-23.8,34l-7.8,11.1l4.3,0.2L403,244.6l-2.2-3.1l-0.1,2.1l11.3-12l18-19l4.1-4.3
		c0.9-0.9,0.2-2.3-0.8-2.8c-1.1-0.6-2.6-0.4-3.5,0.6l-11.3,12l-18,19l-4.1,4.3c-0.5,0.6-0.5,1.4-0.1,2l15.4,21.2l2.2,3.1
		c0.9,1.3,3.3,1.6,4.3,0.2l6.9-9.8l14-19.9l10.9-15.6c5.5-7.9,8.4-16.8,10.7-26c0.8-2.9,1.4-5.9,1.8-8.9c0.2-1.8,0.5-4.1-1-5.4
		c-2.1-1.9-4.8-0.6-6.5,1.1c-1.3,1.3-2.3,2.8-3.2,4.4c-0.3,0.4-0.5,0.9-0.8,1.3l4.8,1.3c0.7-2,1.2-4,1.6-6c0.5-2.7,1.1-6.2-0.4-8.7
		c-1.7-2.9-5.2-2.4-7.2-0.2c-1.6,2.1-2.9,4.5-3.8,7c-0.7,1.8-1.4,3.7-2,5.6l4.9,0.7c0.2-2.1,0.2-4.2,0.2-6.3c0-2.8,0-6.5-1.7-8.8
		c-1.1-1.5-3-2-4.7-1.3c-1.2,0.6-2.1,1.5-2.7,2.6c-1.7,2.9-3,6-3.9,9.2c-0.7,2.2-1.4,4.4-2,6.7l4.6-0.3c-1-1.8-2.2-3.4-3.7-4.8
		c-2.2-2-5.9-3.3-8.5-1.2c-1.9,1.5-1.6,4.1-1.1,6.2c0.7,2.4,1.6,4.8,2.7,7c0.7,1.4,1.4,2.9,2.2,4.2l-0.3-1c-0.4,2.1-0.5,4.1-0.5,6.2
		C429.6,209.7,434.6,209.9,434.5,207.3z" fill="#000005"></path><path class="st1" d="M435.9,193.2c1,0.5,2.1,0.9,3.1,1.4c0.1,0,0.5,0.3,0.1,0.1s0,0,0.1,0.1s0.4,0.3,0.5,0.4l0.2,0.2l0.1,0.1
		l-0.1-0.2c0.1,0.2,0.3,0.4,0.5,0.6c0.3,0.4,0.5,0.7,0.8,1.1c0.1,0.2,0.2,0.4,0.4,0.6l0.2,0.3c0.2,0.4-0.2-0.4,0,0
		c0.4,0.9,0.8,1.8,1.1,2.7c0.5,1.1,1.8,1.7,3,1.5c0.9-0.2,2.3-1,1.9-2.2c-0.7-2.1-1.7-4-3-5.8c-0.8-1-1.8-1.9-2.9-2.5
		c-1-0.6-2.2-1-3.3-1.5c-0.6-0.3-1.3-0.4-1.9-0.3c-0.6,0.1-1.1,0.3-1.5,0.8c-0.6,0.7-0.4,1.8,0.3,2.3
		C435.5,193,435.6,193.1,435.9,193.2L435.9,193.2z" fill="#000005"></path><path class="st1" d="M394,438.9c0,0,5.9,27.6,5.2,27.6s-10.8-0.3-10.8-0.3V456l-4.9,11.1l-33.6-2c0,0-1.1-3.6,6.5-7.7
		s19.8-9.8,19.8-9.8l-8.3-15.5L394,438.9z" fill="#000005"></path><path class="st1" d="M349.2,413.2c0,0,11,20.1,10.5,20.5l-6.4,6.2l-7.1-7.2l4.2,11.4l-25.4,22.1c0,0-3.3-1.9-0.8-10.1
		s14.4-21,14.4-21l-6.3-15L349.2,413.2z" fill="#000005"></path><path class="st0" d="M378.6,348.4c0,0-26.4,3.3-30.4,16.4s12.5,60.2,12.5,60.2s-24.2,5.4-26,3.6s-27-43.3-21.4-67.1
		s43.5-44.7,43.5-44.7L378.6,348.4z" fill="#FFFFFF"></path><path class="st1" d="M377.1,347.2c-5.2,0.7-10.3,1.9-15.2,3.7c-6.6,2.4-14.8,6.6-16.4,14.2c-0.5,3-0.5,6-0.1,9
		c0.4,4,1.1,7.9,1.9,11.8c1.8,8.3,4,16.5,6.5,24.6c1.4,4.7,2.9,9.4,4.5,14l0.4-0.6c-3.6,0.8-7.1,1.5-10.7,2.2
		c-2.7,0.5-5.4,1-8.1,1.3c-1.2,0.2-2.4,0.3-3.5,0.4c-0.4,0-0.8,0-1.3,0c0.4,0,0.1,0-0.1,0h-0.2c-0.4,0,0.5,0.1,0.2,0
		c0.6,0.2,1.2,0.4,1.7,0.7c0.1,0,0.3,0.4,0.2,0.1c-0.1-0.1-0.2-0.2-0.3-0.4c-0.3-0.3-0.5-0.7-0.7-1c-1-1.5-1.9-3-2.7-4.5
		c-2.9-5-5.5-10.1-7.8-15.3c-3-6.4-5.4-12.9-7.4-19.7c-1.8-6.4-3.2-13.2-2.9-19.9c0.6-13.6,10.4-24.5,20.1-33.1
		c7.3-6.4,15.1-12.1,23.6-16.9l0.4-0.2l-4.5-1.1l19,27.6l2.7,4c0.6,0.9,2.2,1.2,3.2,1.3c0.7,0,1.8-0.1,1.2-0.9l-19-27.6l-2.7-4
		c-1.2-1.2-2.9-1.6-4.5-1.1c-7.5,4.2-14.6,9.1-21.1,14.7c-5.6,4.5-10.6,9.7-15,15.4c-4,5.3-7.2,11.3-8,17.9s0.3,13.6,1.9,20
		c1.9,7.1,4.3,14,7.3,20.6c2.5,5.6,5.2,11,8.2,16.3c1,1.7,2,3.5,3,5.1c0.5,0.9,1.1,1.7,1.7,2.5c1.6,1.7,4.6,1.7,6.8,1.6
		c2.6-0.2,5.2-0.5,7.8-1c4.9-0.8,9.8-1.8,14.7-2.9l0.9-0.2c0.3-0.1,0.5-0.3,0.4-0.6c-4-11.4-7.4-23-10.2-34.7
		c-1.6-7-3.4-14.6-2.9-21.9c0.1-3,1.3-5.9,3.3-8.2c2.7-2.8,5.9-5,9.5-6.4c3.8-1.6,7.8-2.9,11.9-3.8c1.4-0.3,2.7-0.6,4.1-0.8
		c0.1,0,0.9-0.1,0.3,0l0.5-0.1l0.4,0c0.9-0.1,1.1-0.6,0.4-1.2C379.5,347.5,378.3,347.2,377.1,347.2z" fill="#000005"></path><path class="st0" d="M347.9,324c0,0-11.1,72.4,18.6,119.7h34.2c0,0-25.6-69.9-8.5-103.6L347.9,324z" fill="#FFFFFF"></path><path class="st1" d="M345.8,322.6c-0.8,5.1-1.2,10.2-1.5,15.4c-0.8,12.3-0.7,24.7,0.3,37c1.3,15.4,4,30.8,9.2,45.3
		c2.7,7.6,6.1,14.8,10.3,21.7c0.9,1.5,2.6,3.1,4.4,3.2c0.3,0,0.7,0,1,0h33.1c0.1,0,0.2-0.1,0.2-0.2c0,0,0-0.1,0-0.1
		c-3-8.4-5.5-16.9-7.6-25.5c-4.2-16.8-7.3-34.2-6.7-51.5c0.3-9,1.7-18.3,5.8-26.4c0.4-0.9-2.7-2.5-3.3-2.7l-15-5.4l-23.8-8.6l-5.5-2
		c-0.8-0.3-1,0-0.5,0.7c0.8,0.9,1.8,1.6,2.9,2l15,5.4l23.8,8.6l5.5,2l-3.3-2.7c-5.4,10.7-6.2,23.3-5.8,35.1
		c0.6,12.9,2.5,25.6,5.5,38.1c2.1,8.9,4.5,17.7,7.4,26.4c0.3,1,0.7,2,1,3c0.1,0.4,0.2,0.8,0.4,1.2c-0.2-0.2,0.3-0.1,0.1-0.3
		c-0.1,0-0.3,0-0.4,0h-33.6l3.9,2.5c-11.4-18.3-16.8-39.8-19.1-61c-1.8-16.2-1.9-32.6-0.5-48.9c0.3-3.1,0.6-6.3,1-9.4
		c0.1-0.7-1.2-1.5-1.7-1.9C348.1,323.4,345.9,322.1,345.8,322.6z" fill="#000005"></path><path class="st1" d="M406.3,230.3c0,0-10.8,8.1-29,16.4c-23.1,10.6-37,72-36.6,74.5s48.6,21.8,51.9,21s15.5-65.5,15.5-65.5
		l15.4-18.1L406.3,230.3z" fill="#000005"></path><path class="st1" d="M404,229.3c-3.1,2.3-6.3,4.3-9.6,6.2c-3.7,2.2-7.4,4.2-11.2,6.2c-3.5,1.8-7.2,3.2-10.5,5.2
		c-4.2,2.8-7.9,6.5-10.7,10.7c-3.4,4.9-6.4,10.1-8.8,15.6c-4.9,10.7-8.8,21.7-11.8,33.1c-1,3.6-1.9,7.2-2.6,10.8
		c-0.2,0.9-0.3,1.7-0.4,2.6c0,0.7,0.4,1,0.9,1.4c2.9,2.1,6.5,3.6,9.7,5.1c5,2.3,10.1,4.4,15.2,6.5c5.3,2.2,10.7,4.2,16.1,6.2
		c3.8,1.5,7.8,2.8,11.8,3.8c0.8,0.2,2,0.6,2.8,0.3s0.9-1.1,1.1-1.7c1.2-3.1,2.2-6.3,2.9-9.6c2.7-10.4,4.9-20.9,7-31.4
		c1.5-7.4,3-14.8,4.4-22.2c0-0.3,0.1-0.6,0.3-0.9c1-1.3,2-2.5,3.1-3.7l9.9-11.7l2.1-2.4v-0.1l-15-24.8l-2.1-3.5
		c-0.5-0.8-1.9-1.2-2.7-1.4c-0.2-0.1-2.1-0.6-1.8-0.1l14.7,24.3c0.9,1.2,1.6,2.5,2.3,3.8c0,0.1,0.1,0.2,0.1,0.1s-0.2,0.2-0.3,0.2
		c-0.5,0.5-1,1.1-1.4,1.6l-11,13l-1.9,2.3c-0.3,0.3-0.5,0.6-0.7,0.9c-0.2,0.5-0.3,1.1-0.3,1.7c-0.7,3.8-1.5,7.5-2.2,11.3
		c-2.4,11.9-4.8,23.8-7.6,35.5c-1.1,4.5-2.1,9-3.6,13.3c-0.3,1.1-0.7,2.2-1.3,3.2c-0.2,0.3-0.2,0.3-0.5,0.4c0.2-0.1,0,0-0.3,0
		s0.4,0.1,0,0l-0.4-0.1l-0.5-0.1c0.4,0.1,0.2,0,0,0c-0.4-0.1-0.8-0.2-1.3-0.4l-1.3-0.4l-0.4-0.1l-0.8-0.3c-2.5-0.8-5-1.7-7.5-2.6
		l-3.9-1.5l-4.5-1.8c-3-1.2-6-2.4-9-3.6l-4.3-1.8l-0.6-0.2l-1-0.4l-2.1-0.9c-1.2-0.5-2.3-1-3.5-1.6l-1.6-0.8l-0.7-0.3
		c-0.1,0-0.2-0.1-0.3-0.2c-0.8-0.4-1.5-0.8-2.3-1.2c-0.2-0.1,0.4,0.2-0.1-0.1l-0.3-0.2l-0.4-0.2c0.3,0.2,0.2,0.1,0,0
		s-0.2-0.1-0.2-0.3c0-0.3,0-0.7,0.1-1c0.6-3.5,1.3-7,2.3-10.4c1.5-5.8,3.2-11.5,5.2-17.2c2.2-6.6,4.8-13.1,7.8-19.5
		c2.8-6.1,6.2-11.8,10.3-17.1c1.8-2.3,3.8-4.3,6-6.1c2.7-2.2,5.8-3.5,9-5c7.6-3.6,15-7.8,22-12.5c1-0.7,2-1.3,2.9-2
		c0.3-0.2-2-1.3-2.1-1.4C405.9,229.6,404.5,228.9,404,229.3z" fill="#000005"></path><path class="st1" d="M369.8,245.7c0,0-7.8,0.6-34.8,21.3l17.2,16.1L369.8,245.7z" fill="#000005"></path><path class="st1" d="M368.5,244.3c-1.6,0.3-3.2,0.8-4.7,1.6c-5.5,2.6-10.7,5.6-15.7,9.1c-5.2,3.5-10.2,7.2-15.2,11
		c-0.5,0.4-0.1,1.1,0.2,1.4l15.1,14l2.2,2c0.8,0.8,3.6,2.1,4.3,0.5l15.3-32.7l2.2-4.7c0.7-1.5-4-3.3-4.7-1.6l-15.3,32.7l-2.2,4.7
		l4.3,0.5l-15.1-14l-2.2-2l0.2,1.4c7.4-5.8,15.2-11.2,23.2-16c3.1-1.9,6.4-3.5,9.9-4.7l0.6-0.2c-0.1,0-0.5,0.1,0,0h0.3
		c1-0.1,1.2-1,0.6-1.7C370.9,244.6,369.7,244.2,368.5,244.3z" fill="#000005"></path><path class="st0" d="M367.5,211.2c0,0-5.6,6.2-11.7,5.9s-17.6-2.5-19,3.4s6.6,8,11.8,7.2c0,0-1.6,15.5,7.6,19.9s13.6,1.8,14.1,8.2
		c0,0,12.8,4,14.2-8c0.2-1.9,3.7-17.7-10.5-25.3C374.1,222.5,366,218.8,367.5,211.2z" fill="#FFFFFF"></path><path class="st1" d="M365.7,209.6c-0.2,0.2-0.4,0.4-0.6,0.6l-0.2,0.2c0.3-0.3,0,0,0,0c-0.4,0.3-0.8,0.7-1.1,1
		c-1.5,1.3-3.2,2.2-5,2.9c-1.9,0.5-3.8,0.6-5.7,0.4c-1.9-0.1-3.8-0.3-5.6-0.4c-3.4-0.1-7.8-0.2-10.5,2.1c-3.3,2.7-2.8,7.7,0,10.6
		c3.2,3.2,8.4,3.8,12.7,3.1l-3.1-3c-0.4,4.3,0,8.6,1.3,12.7c0.9,3.2,2.7,6,5.2,8.2c3.1,2.5,7.3,3.7,11.1,4.6
		c0.7,0.2,1.5,0.4,2.2,0.6c0.3,0.1,0.6,0.2,0.9,0.3s0,0,0,0l0.5,0.2c0.4,0.2,0,0-0.1-0.1l0.4,0.3c0,0-0.4-0.5-0.1-0.1
		c0.1,0.1,0.3,0.6,0,0c0.1,0.2,0.3,0.8,0.2,0.7s0.1,0.9,0.2,1.2c0.2,1.1,0.9,2,2,2.3c2.8,0.9,5.8,1,8.7,0.3c2.3-0.5,4.3-1.8,5.8-3.7
		c1.3-2,2.1-4.3,2.3-6.7c0.6-3.7,0.6-7.5,0-11.2c-1.2-6.3-4.8-11.8-10.2-15.2c-0.8-0.5-1.5-0.9-2.3-1.3c-0.4-0.2-0.7-0.4-1-0.6
		l-0.3-0.2c-0.3-0.2,0.5,0.4,0,0l-0.6-0.5l-0.7-0.6l-0.3-0.3c-0.3-0.3,0,0.1-0.1-0.1s-0.4-0.5-0.6-0.8l-0.3-0.4
		c0-0.1-0.3-0.6-0.1-0.2c-0.6-1.3-0.8-2.8-0.5-4.3c0.5-2.7-3.9-4.4-4.4-1.3c-1,5.6,2.4,10.6,7,13.5c1.7,0.9,3.3,2,4.9,3.2
		c1.9,1.7,3.3,3.8,4.3,6.1c1.4,3.7,1.8,7.7,1.2,11.6c-0.1,1.3-0.3,2.6-0.6,3.9c-0.4,2-1.8,3.6-3.6,4.4c0.4-0.2-0.3,0.1-0.4,0.1
		s-0.5,0.2-0.8,0.2s-0.5,0.1-0.8,0.2l-0.4,0.1c0.2,0,0.2,0,0,0c-1,0.1-2,0.1-2.9,0l-0.6-0.1c-0.4,0-0.3,0-0.1,0l-0.9-0.2l-0.8-0.2
		l2,2.3c-0.1-3.1-2-5.8-4.9-6.9c-3.1-1.2-6.5-1.6-9.6-3c-1.4-0.5-2.7-1.4-3.7-2.4c0,0-0.3-0.4-0.1-0.1c-0.1-0.1-0.2-0.3-0.3-0.4
		s-0.4-0.6-0.6-0.9c-0.4-0.5-0.7-1.1-0.9-1.7c-1-2.5-1.6-5.1-1.6-7.8c0-0.4,0-0.7,0-1c0-0.1,0-0.3,0-0.4c0-0.6,0,0.5,0-0.1
		s0-0.9,0-1.4s0-0.9,0.1-1.4c0.2-1.5-0.9-2.8-2.4-3c-0.2,0-0.5,0-0.7,0c-1.5,0.2-3,0.2-4.5-0.1c-0.7-0.1-1.5-0.4-2.2-0.7
		c-0.5-0.2-1-0.5-1.4-0.9c-0.3-0.2-0.6-0.6-0.7-1c0,0.1-0.1-0.4-0.1-0.4c0-0.3,0.1-0.7,0.1-1c0.3-0.8,1.1-1.5,1.9-1.7
		c6.6-2.3,13.9,1.7,20.4-1.1c3-1.3,5.7-3.2,7.9-5.6C371.1,211,367.7,207.4,365.7,209.6z" fill="#000005"></path><path class="st1" d="M388.8,242.5c0,0,7.5,4,9.8,0s-3-4.2-3-4.2s8.1-7.4,0.3-10.9c0,0,8.4-5,4.5-12.5s-15.4-6-15.4-6
		s2.6-9.5-6-10.2s-8,5.5-8,5.5s-5.5-0.6-6.4,2.7s2.7,5.5,2.7,5.5s-0.8,9.7,6.8,10.1l4.1,13.4c-2.1,2.4-2.8,5.7-1.9,8.8
		C377.9,249.7,387.6,248.7,388.8,242.5z" fill="#000005"></path><path class="st1" d="M388.3,243.3c1.6,0.8,3.3,1.5,5.1,1.9c2.2,0.5,5.2,0.9,6.9-0.9c3.8-4.1-3.1-7.2-6.5-7.4l3.9,2.6
		c1.5-1.3,2.6-3,3.4-4.9c1.4-4.1-2.1-6.7-5.5-8.3l2.2,2.4c3.6-2.2,6.6-6.3,5.6-10.7c-1.5-6.6-8.9-9.9-15-10.5
		c-1.7-0.2-3.5-0.2-5.2,0l3.9,2.6c0.8-3.1,0.5-6.7-1.7-9.1c-2.5-2.5-5.9-3.9-9.4-3.8c-2.4,0-5.1,0.5-6.5,2.6c-0.7,1-1,2.2-0.9,3.4
		l1-0.5c-2.3-0.2-5.6,0-7,2.1c-1.9,3,1.2,6.4,3.6,7.9l-1.4-1.4c-0.1,1.9,0.1,3.9,0.8,5.7c1.6,3.9,5.3,6.5,9.5,6.7l-3.5-2.3
		c1.4,4.4,2.5,8.9,4.1,13.2c0.1,0.3,0.2-0.1-0.1,0.1c-0.4,0.4-0.8,0.9-1,1.5c-1,1.9-1.4,4-1.1,6.1c0.7,4,4.7,6.4,8.6,6.7
		s7.9-1.6,8.6-5.6c0.3-1.5-4.2-3.3-4.4-2.4c-0.4,2-1.7,3.6-3.5,4.4c-0.8,0.4-1.7,0.6-2.6,0.7c-0.4,0-0.8,0-1.2,0
		c-0.1,0-0.3,0-0.4-0.1c-0.3-0.1-0.4-0.2-0.1,0s0.4,0.1,0.1,0.1c0.2,0,0.3,0.3,0.1,0c-0.2-0.3-0.3-0.6-0.5-0.9
		c-0.5-1.4-0.6-3-0.2-4.5c0.4-1.5,1.1-2.9,2.1-4v-0.2l-4.1-13.4c-0.4-1.2-2.3-2.2-3.5-2.3c-0.4,0-0.8-0.1-1.1-0.1s0,0.1-0.1,0
		l0.1,0.1c0.2,0.1-0.2-0.1-0.2-0.2c-0.1-0.1-0.2-0.2-0.3-0.4c-0.6-0.9-1.1-2-1.3-3.1c-0.3-1.3-0.4-2.7-0.4-4.1
		c0-0.5-0.9-1.2-1.2-1.4c-0.5-0.3,0.2,0.3-0.3-0.2c-0.3-0.3-0.5-0.6-0.8-0.9c-0.8-1.2-0.8-2.8,0.2-3.9c0.9-0.8,1.9-1.2,3.1-1.3
		c0.5,0,1-0.1,1.4-0.1c0.1,0,0.7,0,0.2,0h0.2c0.4,0,1,0.1,1-0.5c-0.4-4.2,4.6-5.6,8-4.9l0.5,0.2c-0.1,0-0.1-0.1-0.2-0.1
		c0.3,0.1,0.3,0.2,0,0s-0.1-0.1,0.1,0.1c-0.2-0.3,0.3,0.3,0.2,0.2c0.2,0.2,0.3,0.4,0.4,0.7c0.4,0.9,0.7,1.9,0.7,2.9
		c0.1,1.2,0,2.4-0.3,3.5c-0.4,1.3,2.9,2.7,3.9,2.6c3-0.4,6-0.1,8.8,1c0.3,0.1,0.1,0,0,0c0.2,0.1,0.3,0.2,0.5,0.2
		c0.4,0.2,0,0,0.4,0.2c0.4,0.3,0.7,0.6,1,0.9c0.9,1.1,1.6,2.4,1.8,3.8c0.3,2.4-0.4,4.8-2,6.6c-0.9,1.1-2,2.1-3.2,2.9
		c-1.1,0.7,1.8,2.2,2.2,2.4c1.9,0.9,0.7,4,0,5.2c-0.7,1.3-1.6,2.4-2.7,3.4c-0.5,0.4,1,1.5,1.2,1.6c0.8,0.6,1.7,0.9,2.7,1
		c-0.8,0,0.2,0,0.4,0.1s0.5,0,0,0c0.1,0,0.2,0,0.3,0.1c-0.8-0.3,0.2,0.2-0.2-0.1c-0.2-0.1-0.9-0.6-0.9-0.6c0.1,0.1,0.1,0.2,0.1,0.4
		c0,0.4,0,0.7-0.2,1.1c-0.3,0.8-0.8,1.5-1.6,1.9c-1.3,0.5-2.8,0.5-4.1,0c-0.5-0.2-1.1-0.3-1.6-0.6l-0.4-0.2
		c-0.3-0.1,0.6,0.3,0.2,0.1l-0.2-0.1c-0.5-0.2-2.2-1.1-2.6-0.4S388,243.1,388.3,243.3z" fill="#000005"></path><path class="st0" d="M372.4,224.1c0,0,2.7-6.1,7-3.8s2.6,17.2-5.6,14.8" fill="#FFFFFF"></path><path class="st1" d="M373.8,226.1c0.6-1.4,1.5-2.5,2.7-3.4c0.9-0.7,2-1,3.1-0.8c0.3,0.1,0.7,0.2,1,0.4c0.1,0.1,0.2,0.1,0.3,0.2
		c0,0-0.2-0.1,0,0c0.1,0,0.1,0.1,0.2,0.2c-0.4-0.3,0.2,0.2-0.3-0.3c0.3,0.4-0.6-0.8-0.5-0.6l-0.2-0.4c0.1,0.2,0.1,0.1-0.1-0.3
		c0.2,0.4-0.2-0.5,0-0.1c0,0.1,0.1,0.2,0.1,0.3c-0.2-0.4,0,0.2,0.1,0.3c0.1,0.4,0.2,0.8,0.2,1.2c0.1,1,0.1,2,0,3
		c-0.1,2-0.8,3.9-2,5.5c-1.3,1.7-3.5,2.5-5.6,1.8c-0.6-0.2,0.4,1.6,0.5,1.8c0.3,0.6,0.7,1.1,1.1,1.6c0.2,0.2,0.5,0.7,0.9,0.8
		c2,0.7,4.3,0.1,5.7-1.5c1.4-1.7,2.2-3.8,2.4-6.1c0.3-2.3-0.1-4.7-1.2-6.8c-1.2-2.5-3.5-5.9-6.8-5c-1.9,0.5-3.3,2.4-4.1,4.2
		c-0.3,0.6,0.7,1.9,1,2.3c0.3,0.5,0.7,1,1.1,1.4c0.1,0.1,0.6,0.6,0.7,0.4L373.8,226.1z" fill="#000005"></path><path class="st1" d="M361,221c0.8-0.1,1.5,0.4,1.6,1.2c0,0.1,0,0.1,0,0.2c0,1.5-1.9,1.6-2.3,0.2c-0.3-0.6,0-1.3,0.5-1.6
		C360.9,221,360.9,221,361,221z" fill="#000005"></path><path class="st1" d="M363.6,228.8c-0.4,2.2-1.6,4.2-3.3,5.7c-0.3,0.2,1.8,1.5,2,1.6c0.5,0.3,1.1,0.5,1.6,0.7
		c0.2,0.1,0.6,0.2,0.8,0.1c1.7-1.4,2.9-3.4,3.3-5.7c0-0.2-0.4-0.5-0.5-0.6c-0.5-0.4-1-0.7-1.5-1
		C365.8,229.5,363.7,228.4,363.6,228.8L363.6,228.8z" fill="#000005"></path><path class="st0" d="M361,323.9c0,0-6.6,7.3-15.3-3.3c0,0-13.9,4.3-29.5-7.6c0,0-15.8-10.2,18.9-43.8l14.2,14.6l-9.1,19.3l6.8,5.5
		c0,0,16.7-0.5,25.5,5.1s10.9,11.5,9.2,12.4s-10.4-6.5-10.4-6.5s0.9,4.5-1.8,7.1s-4.9,1-4.9,1s-6.8,3.1-7.3-1.1c0,0-6.1,1.1-10.4-5" fill="#FFFFFF"></path><path class="st1" d="M359.4,322c-3.6,3.9-9.9,2.6-13-1.1c-0.2-0.3-1.8-2.4-2.3-2.2c-4.6,1.4-10.1,0.9-14.7-0.3
		c-5.1-1.4-9.9-3.7-14.1-6.9c0,0-1-0.7-0.4-0.3l0,0c-0.1,0-0.1-0.1-0.1-0.1c0,0-0.1-0.1-0.1-0.1c-0.2-0.1,0.4,0.3,0.2,0.1
		c-0.4-0.4,0.3,0.3,0,0c-0.1-0.1,0.5,0.5,0.2,0.2c0,0,0.6,0.6,0.3,0.3c0.4,0.4,0.5,0.6,0.6,0.7c-0.3-0.5,0.1,0.2-0.2-0.3l-0.3-0.5
		c-0.6-1.2-0.9-2.4-1-3.7c-0.5-4.4,1.1-8.9,3-12.7c4.6-9.3,12-17.1,19.4-24.2l-1.4-1.2l14.2,14.6l-1.9-2.5l-7.9,16.9l-1.1,2.4
		c-0.1,0.3,0.9,1.4,1,1.6c0.6,0.7,1.3,1.4,2,2l3.5,2.8l2.4,2c0.3,0.4,0.7,0.6,1.2,0.9c0.9,0.1,1.9,0.1,2.8,0c2.3,0.1,4.7,0.2,7,0.5
		c6,0.7,12,2,17,5.5c2,1.4,4,2.8,4.9,5.1c0.3,0.8,0.8,2.7-0.6,2.8c-0.9-0.1-1.8-0.5-2.5-1.1c-1.1-0.6-2.1-1.4-3.1-2.1
		c-0.9-0.7-1.9-1.4-2.8-2.2l-0.9-0.7l-0.1-0.1c0,0-0.7-0.7-0.6-0.3c0.3,1.7,0.2,3.5-0.5,5.1c-0.9,2.1-3.3,4.1-5.7,3.1
		c-0.1,0-0.2-0.1-0.2-0.1c0.4,0.2-0.1-0.1-0.1-0.1c-0.1,0-0.2,0-0.3,0.1c-0.6,0.2-1.2,0.4-1.8,0.6c-0.8,0.3-1.7,0.4-2.6,0.4
		c-0.4,0-0.8-0.2-1.2-0.2l-0.3-0.1c-0.6-0.4-0.2,0,1,1.2c1.7,1.9,1.1,1.5,1,0.5c-0.1-0.7-1.2-1.7-1.7-2.2c-0.3-0.3-1.2-1.5-1.6-1.4
		c-0.9,0.1-1.8,0.1-2.6,0c-0.9-0.1-1.8-0.4-2.6-0.7c-0.5-0.2-0.9-0.4-1.3-0.7c-0.3-0.2-0.6-0.4-0.9-0.6c-0.3-0.2-0.7-0.8,0,0.1
		c-0.7-1-1.5-1.8-2.4-2.6c-0.6-0.5-0.9-0.5-0.3,0.3c3,4.1,7.7,9,13.4,8l-3.3-3.6c0.3,1.7,1.9,3.2,3,4.4c0.7,0.9,1.8,1.4,2.9,1.4
		c1.6,0,3.2-0.4,4.6-1.1l-0.3-0.2c2.1,1.5,4.8,0.1,6.1-1.9c1.1-1.9,1.4-4.1,0.9-6.1l-0.6-0.3c2.4,2.2,5.1,4.1,7.9,5.9
		c0.7,0.4,2.5,1.7,3.4,0.9s0.1-2.4-0.2-3.2c-1.3-2.5-3-4.7-5-6.7c-2.4-2.5-5-4.7-8-6.4c-4.4-2.6-9.7-3.6-14.8-4.2
		c-3.4-0.4-6.9-0.6-10.3-0.6l0.3,0.2l-6.8-5.5l3,3.6l7.9-16.9l1.1-2.4c0.2-0.5-1.7-2.3-1.9-2.5l-14.2-14.6c-0.1-0.1-1.2-1.4-1.4-1.2
		c-7.1,6.9-14.1,14.4-18.8,23.1c-2.2,4.2-4.1,9-3.6,13.8c0.9,8.3,10.3,13.8,17.1,16.5c4.3,1.7,8.9,2.5,13.6,2.5
		c1.9,0,3.8-0.3,5.6-0.8l-2.3-2.2c3,3.6,7.2,8.4,12.5,7.9c1.9-0.2,3.8-1,5.1-2.4C363,325.4,359.5,321.9,359.4,322L359.4,322z" fill="#000005"></path><path class="st1" d="M345.7,323c1.2,0,2.4-0.4,3.3-1.3c0.6-0.7,0.5-1.5-0.6-1.5c-1.2,0-2.4,0.4-3.3,1.3
		C344.5,322.2,344.6,323,345.7,323z" fill="#000005"></path><path class="st0" d="M366.1,319.5c0,0,2.7,4.8-1.5,8.3" fill="#FFFFFF"></path><path class="st1" d="M365.1,320.1C365.1,320.1,365.1,320.1,365.1,320.1c0.2,0.4-0.2-0.4-0.2-0.4l0.2,0.5c0,0.1,0.1,0.2,0.1,0.4
		c-0.3-0.9-0.1-0.4,0-0.1c0,0.2,0.1,0.3,0.1,0.5c0,0.1,0,0.2,0,0.2c-0.2-0.7,0-0.4,0-0.2s0,0.4,0,0.6v0.3c0,0.4,0-0.2,0,0
		c0,0.4-0.1,0.8-0.2,1.2c0,0.1-0.1,0.5,0,0.1c0,0.1-0.1,0.2-0.1,0.3c-0.1,0.2-0.2,0.4-0.3,0.6c-0.3,0.5-0.6,0.9-1,1.3l0.2-0.2
		c-0.2,0.2-0.3,0.3-0.5,0.5c-0.8,0.7-0.3,2,0.2,2.8c0.3,0.5,0.7,1,1.2,1.4c0.3,0.2,0.8,0.5,1.1,0.2c1-0.8,1.7-1.8,2.2-3
		c0.4-1.1,0.6-2.3,0.4-3.5c-0.2-1.6-0.6-3.1-1.4-4.5c-0.3-0.5-0.7-1-1.2-1.4c-0.3-0.2-0.8-0.4-1.1-0.2
		C364,317.9,364.7,319.4,365.1,320.1L365.1,320.1z" fill="#000005"></path></g><g id="character-2"><path class="st0" d="M220.8,268.7c0,0-8.2,21.8,0.4,34c20.9,29.8,60.8,8.3,60.8,8.3s23.2-5.7,24-10s-6.1-1.6-6.1-1.6
		s12.6-7.6,11.1-11.2s-9.6,2.2-9.6,2.2s11-9.3,2-7.8c-4.1,0.7-15.7,5.7-15.7,5.7s4.1-6.7,0.4-7.6s-10.4,11.7-13.6,14
		s-24.6,4.7-24.6,4.7L220.8,268.7z"></path><path class="st1" d="M218.4,268.5c-1.2,3.4-2.2,7-2.7,10.6c-1.1,6.6-1.5,13.7,1,20c1.4,3.3,3.4,6.2,5.9,8.7
		c2.3,2.5,4.9,4.6,7.9,6.4c5.4,3.2,11.5,5.1,17.8,5.5c10.2,0.8,20.6-1.5,30.1-5.3c1.3-0.5,2.5-1,3.7-1.6c0.2-0.1,1.4-0.5,1.5-0.7
		c-0.1,0.3-0.8,0.2-0.4,0.2c0.2,0,0.4-0.1,0.6-0.1l2-0.5c2.2-0.6,4.5-1.2,6.7-1.9c2.7-0.9,5.4-1.8,8.1-2.8c2.2-0.8,4.3-1.9,6.2-3.2
		c1.4-1.1,2.9-2.9,1.8-4.8c-1.4-2.4-5.4-1.8-7.6-1.2c-0.7,0.2-1.4,0.4-2.1,0.6l3.2,2c3.6-2,6.8-4.6,9.7-7.5c1.2-1.3,2.9-3.4,1.9-5.4
		c-1.5-2.8-5.7-1.9-8-1c-2,0.8-4,1.8-5.7,3.1l3.7,1.7c1.2-1,2.3-2.1,3.4-3.2c1.1-1.2,3.1-3.2,2.7-5c-0.6-2.9-5.8-2-7.7-1.5
		c-3,0.8-6,1.8-8.9,3.1c-2.2,0.9-4.3,1.7-6.5,2.7l3.8,1.3c1.7-2.8,3.7-7.9-0.9-9c-4.8-1.2-8.5,4.2-11,7.5c-1.5,1.9-2.8,3.9-4.4,5.7
		c-0.3,0.3-0.6,0.7-0.9,1s-0.1,0.1-0.1,0.1s-0.3,0.2-0.4,0.3s0.5-0.2,0.1-0.1l-0.4,0.2l-0.5,0.2c-0.3,0.1,0.4-0.1-0.1,0
		c-4,1.1-8.1,1.9-12.3,2.4c-3.2,0.5-6.4,0.9-9.6,1.2l2.2,0.5l-25.5-26.9l-3.6-3.8c-1.2-1.3-5.9,0-4.2,1.8l10,10.5l15.8,16.7
		c1,1.2,2.1,2.4,3.3,3.5c0.9,0.8,2.2,0.5,3.4,0.4c1.5-0.2,3-0.4,4.5-0.6c4.5-0.6,8.9-1.2,13.3-2.1c3.3-0.7,6.7-1.3,9-3.8
		c3.1-3.4,5.3-7.4,8.5-10.7c0.5-0.5,1.1-1,1.7-1.4c-0.2,0.1,0.4-0.1,0.1,0s-0.1,0,0,0c-0.2,0-0.4,0.1-0.6,0.1
		c-0.2-0.1-0.5-0.1-0.7-0.1c0,0,0.1,0.1,0.2,0.2c0.6,1.4-0.5,3.5-1.1,4.8c-0.2,0.4-0.4,0.8-0.6,1.1c-0.4,0.7,0.6,1.3,1,1.4
		c0.9,0.3,1.9,0.2,2.8-0.1c3.8-1.6,8-3.4,11.7-4.6c1.1-0.4,2.1-0.7,3.2-0.9c-0.5,0.1,0.4,0,0.5,0c0.6-0.1,0,0,0.3,0s-0.1,0-0.1,0
		s-0.4-0.2-0.3-0.2c0,0.1,0,0.1,0,0.2c-0.1,0.3-0.2,0.6-0.4,0.9c-0.5,0.7-1,1.4-1.6,2.1c-0.7,0.7-1.4,1.4-2.1,2.1l-0.4,0.4
		c-0.2,0.2,0.3-0.2,0,0l-0.3,0.3c-0.8,0.7-0.8,1.5,0.2,2c1.2,0.5,2.5,0.4,3.5-0.3c1-0.7,2.1-1.4,3.2-1.9c0.5-0.2,1-0.4,1.4-0.6
		s-0.1,0,0.4-0.1c0.2-0.1,0.7-0.3,0.3-0.1c0.3-0.2-0.2-0.1,0.1,0c-0.1,0-0.3-0.2-0.4-0.1s0.2,0.3,0.2,0.4c0.1,0.6-0.1,1.1-0.5,1.5
		c-0.5,0.8-1.1,1.5-1.8,2.1c-1.5,1.4-3.2,2.8-4.9,3.9c-1.1,0.8-2.2,1.5-3.4,2.2c-0.5,0.2-0.8,0.8-0.6,1.3c0.1,0.3,0.3,0.5,0.6,0.6
		c1,0.5,2.2,0.5,3.2,0.1c0.4-0.2-0.6,0.2-0.1,0s0.8-0.2,1.2-0.3c0.1,0,0.7-0.1,0.4-0.1s0.4,0,0.5,0c0.5-0.1,0,0-0.1,0
		c0.1,0,0.3,0,0.4,0c0.1,0,0.3,0,0.1,0s0.2,0.1-0.2,0c-0.2-0.1,0-0.1,0,0s0.1,0.2,0.1,0.4c0.1,0.3,0,0.7-0.2,1
		c0.2-0.4-0.2,0.2-0.4,0.4s0.2-0.2-0.1,0.1c-0.2,0.1-0.4,0.3-0.6,0.4c-0.7,0.5-1.4,0.9-2.2,1.2c-1,0.5-2.1,0.9-3.1,1.3
		c-2.5,1-4.4,1.6-6.9,2.4c-3,0.9-5.9,1.6-8.9,2.5c-1.6,0.6-3.1,1.3-4.7,2.1c-7.7,3.2-16.4,5.4-24.7,5.3c-5.3,0-10.6-1.2-15.4-3.6
		c-5.7-2.8-10.5-7.2-13.8-12.7c-3.2-5.5-3.3-12.2-2.6-18.4c0.5-4.4,1.4-8.8,2.8-13c0.1-0.2,0.2-0.5,0.2-0.7
		C224,266.9,219.1,266.8,218.4,268.5z"></path><path class="st1" d="M296.2,296.5l5.8-3.5l0.8-0.5c0.2-0.1-0.2-0.8-0.2-0.8c-0.2-0.5-0.5-1.1-0.9-1.5c-0.3-0.5-0.7-1-1.1-1.4
		c-0.1-0.1-0.5-0.6-0.6-0.5l-5.8,3.5l-0.8,0.5c-0.2,0.1,0.1,0.8,0.2,0.8c0.2,0.5,0.5,1.1,0.9,1.5c0.3,0.5,0.7,1,1.1,1.4
		C295.7,296.2,296,296.7,296.2,296.5L296.2,296.5z"></path><path class="st1" d="M298.1,298.9l-4.2,1.3l-0.6,0.2c-0.2,0-0.7,0.2-0.7,0.5s0.6,0.4,0.8,0.5c1.2,0.3,2.4,0.2,3.5-0.1l4.2-1.3
		l0.6-0.2c0.2,0,0.7-0.2,0.7-0.5s-0.6-0.4-0.7-0.5C300.5,298.6,299.3,298.6,298.1,298.9z"></path><path class="st0" d="M236.3,374.2c0,0,20.9-11.3,14.5,18.9c-5.4,25.7-21.5,48.6-21.5,52.6s11.9,14.8,7.7,15s-28.3-7.5-28.3-12.7
		s14.1-43.3,14.1-43.3l-5.1-22L236.3,374.2z"></path><path class="st1" d="M238,375.9c0.9-0.4,1.7-0.8,2.6-1.1c1.7-0.6,3.5-0.9,5.4-0.8h0.4c-0.5,0-0.1,0,0,0l0.7,0.1
		c0.7,0.1-0.1-0.1,0.3,0.1c0.1,0.1,0.2,0.1,0.3,0.1c0.6,0.2-0.3-0.2,0,0c0.1,0.1,0.2,0.1,0.3,0.2c0.4,0.2-0.5-0.4-0.1-0.1
		c0.7,0.5-0.3-0.2,0.2,0.2c0.1,0.1,0.2,0.2,0.3,0.3c-0.5-0.5-0.1-0.1,0,0l0.2,0.4c0.2,0.3-0.1-0.3,0.1,0.2c0.6,1.3,1,2.8,1.1,4.2
		c0.2,2.4,0.1,4.8-0.2,7.1c-1.7,13.1-7,25.8-12.8,37.6c-2.1,4.4-4.5,8.7-6.7,13c-0.8,1.5-1.5,3-2.2,4.5c-0.4,0.8-0.6,1.6-0.7,2.5
		c0,1.8,1.1,3.5,2.1,4.9c1.1,1.8,2.4,3.4,3.7,5.1c0.6,0.8,1.1,1.5,1.7,2.3c0.2,0.3,0.4,0.7,0.7,1c0.3,0.5-0.2-0.4,0.1,0.1l0.2,0.4
		c0.1,0.1,0.1,0.3,0.2,0.4c-0.2-0.5,0,0,0,0l0,0c-0.1,0-0.1,0,0,0c-0.1,0-0.4,0,0,0c-0.2,0-0.5,0-0.7,0h-0.4c-0.4,0,0.4,0.1-0.1,0
		l-0.9-0.2c-0.8-0.1-1.6-0.3-2.5-0.5c-2-0.5-4-1.1-5.9-1.7s-4-1.4-6-2.2c-1.9-0.8-3.7-1.6-5.5-2.6c-0.4-0.2-0.8-0.5-1.2-0.7
		c-0.2-0.1-1.2-0.8-0.6-0.4c-0.3-0.2-0.6-0.5-0.9-0.7c-0.1-0.1-0.5-0.5,0,0c-0.1-0.1-0.3-0.3-0.4-0.5c0.6,0.7-0.4-0.4,0.1,0.2
		c-0.1-0.1-0.1-0.2-0.1-0.3c0.1,0.5,0,0.1,0,0s0,0.2,0-0.2c0-0.2,0-0.4,0.1-0.6c0.5-2.7,1.2-5.4,2.1-8.1c2.4-7.9,5.2-15.7,8-23.5
		c1-2.9,2.1-5.8,3.1-8.7c0.4-1.1,0.9-1.9,0.6-3.1l-4.6-19.6l-0.4-1.8l-0.4,0.9L238,375.9c1.6-0.7-1.8-4.2-3.3-3.5l-18.7,8.5
		c-0.3,0.2-0.5,0.5-0.4,0.9l4.4,18.8c0.2,1,0.4,2.1,0.7,3.1c0.1,0.4,0.1-0.2,0-0.1c-0.1,0.2-0.2,0.4-0.2,0.6
		c-0.9,2.4-1.8,4.8-2.6,7.2c-2.9,8.1-5.8,16.1-8.4,24.3c-1,3-1.9,6.1-2.6,9.3c-0.3,0.9-0.3,1.9-0.1,2.8c0.6,1.7,1.8,3.2,3.2,4.2
		c3.5,2.8,7.7,4.6,11.8,6.2c4.1,1.6,8.3,3,12.6,3.9c1.3,0.3,2.6,0.5,3.9,0.5c1.7-0.1,1.9-1.4,1.4-2.9c-0.7-1.6-1.7-3.2-2.8-4.5
		c-1.3-1.8-2.7-3.5-3.9-5.3c-0.5-0.6-0.9-1.3-1.2-2c-0.2-0.3-0.3-0.7-0.3-1.1c0.2-1,0.5-1.9,1-2.8c1.8-4,4-7.8,6-11.7
		c6.2-12,11.7-24.6,14.5-37.9c1.6-7.7,3-18.9-5.6-23.1c-3.8-1.8-8.3-0.9-11.9,0.7c-0.2,0.1-0.5,0.2-0.7,0.4
		C233,373.3,236.6,376.7,238,375.9z"></path><path class="st0" d="M271.3,354.2c0,0,44.8,24.5,53.9,26.5s24.8,0.6,24.2,3.2s-21.2,11.5-28.6,10.9s-90.5-26.8-90.5-26.8
		L271.3,354.2z"></path><path class="st1" d="M270.6,355.6c4,2.2,8,4.3,12,6.4c7.9,4.2,15.9,8.4,24,12.3c3.6,1.8,7.2,3.5,10.8,5.1c2.5,1.2,5.1,2.2,7.7,2.9
		c5.5,1.3,11.2,1.3,16.8,1.6c1.2,0,2.4,0.1,3.6,0.2c0.5,0,0.9,0.1,1.4,0.2l0.7,0.1l0.3,0.1c0.3,0.1-0.4-0.1-0.1,0
		c0.1,0,0.3,0.1,0.4,0.1s-0.5-0.3-0.1-0.1c-0.5-0.3-0.9-0.8-1.1-1.3c0,0,0-0.4,0-0.1c0,0.1-0.2,0.3,0,0.1s-0.3,0.3-0.4,0.4
		c-2.8,2.5-6.8,3.9-10.2,5.3c-4.3,1.9-8.9,3.3-13.6,4.1c-0.4,0.1-0.9,0.1-1.3,0.1h-0.6c-0.1,0-0.8,0-0.5,0s-0.3,0-0.4,0l-0.4,0
		c-0.3,0-0.6-0.1-0.9-0.2l-0.5-0.1c-0.4-0.1,0.6,0.1,0.2,0l-0.3-0.1c-2.3-0.5-4.5-1.1-6.8-1.8c-7.1-1.9-14.1-4-21.1-6.1
		c-8.4-2.5-16.9-5.1-25.2-7.7c-7.4-2.3-14.8-4.6-22.2-6.9l-12-3.8l-0.6-0.2l1.5,3.3l13.9-4.7l22-7.4l5.1-1.7
		c1.1-0.4,0.8-1.6,0.2-2.3c-0.8-0.9-2.1-1.3-3.3-1l-13.9,4.7l-22,7.4l-5.1,1.7c-2.1,0.7,0.5,3,1.5,3.3l8.7,2.7
		c7,2.2,14.1,4.4,21.1,6.6c8.6,2.7,17.1,5.3,25.7,7.8c7.6,2.3,15.1,4.5,22.8,6.7c2.6,0.7,5.3,1.5,7.9,2.1c1.6,0.5,3.2,0.8,4.9,1
		c4.3,0.4,8.9-1.1,12.9-2.5c4.6-1.5,9.1-3.5,13.4-5.8c1.3-0.6,2.4-1.4,3.4-2.4c1.4-1.5,0.2-3.3-1.4-4.1c-1.8-0.8-3.7-1.2-5.7-1.3
		c-2.7-0.2-5.3-0.3-8-0.4c-4.3-0.2-8.8-0.3-12.8-1.7c-0.6-0.2-1.2-0.5-1.8-0.7l-0.5-0.2c0.4,0.1,0.3,0.1,0,0l-1.2-0.5
		c-1.7-0.7-3.4-1.5-5-2.3c-8.3-3.9-16.5-8.1-24.7-12.4c-5.7-3-11.4-6-17.1-9.1l-0.9-0.5c-0.8-0.4-2.4-0.8-2.9,0.2
		S269.9,355.2,270.6,355.6z"></path><path class="st1" d="M213.6,462.8c0,0-7.7,0.5-8.3-0.7s2.1-19.4,3.3-22.1s3.2-8.2,5-7.6s17.6,7.9,16.6,9.1l-1,1.2
		c0,0-14.7-8-16.2-6.8s-1.6,5.3,0,7.2s15.7,12.7,17.2,12.7s3.2-1.7,3.7-1.3s14.7,9.4,13.4,11.2s-22.4-0.8-24.8-2.1
		s-7.7-13.5-9.6-13.5S213.6,462.8,213.6,462.8z"></path><path class="st1" d="M212.5,460.8h-0.5h-0.4c0.5,0-0.2,0-0.4,0c-1.1,0-2.3,0-3.5,0c-0.2,0-0.5,0-0.7-0.1s-0.8-0.1-0.6-0.1
		s-0.4-0.1-0.4-0.1c0.3-0.4,1.4,1.4,1.4,1.5c-0.1-0.4,0,0.4,0-0.1c0-0.3,0-0.6,0-0.9c0.3-4.5,0.9-9,1.8-13.5c0.4-2,0.7-4,1.2-5.9
		c-0.1,0.4,0.1-0.3,0.1-0.4c0.2-0.5,0.4-1,0.6-1.5c0.6-1.4,1.2-2.8,2-4.2c0.3-0.5,0.6-0.8,0.9-1.2s0.3,0-0.1-0.1c0,0-1-0.1-0.6,0
		c-0.8-0.2-0.2-0.1,0.1,0.1s0.7,0.3,1,0.4c1.9,0.9,3.9,1.8,5.8,2.7c1.2,0.6,2.4,1.2,3.5,1.8l1.6,0.9l0.8,0.4
		c0.1,0.1,0.8,0.5,0.5,0.3l0.4,0.3l0.5,0.3l0.4,0.3c0.5,0.3-0.2-0.2-0.1-0.1c0.3,0.4-0.2-0.4-0.3-0.6c-0.1-0.5,0.4-1-0.1-0.5
		c-0.2,0.2-0.4,0.4-0.5,0.6l2.7-0.1c-2.6-1.4-5.2-2.7-7.8-4c-1.9-0.9-3.9-1.8-5.9-2.5c-1.4-0.5-3.2-1.2-4.6-0.5
		c-2.3,1-2.3,4.7-1.9,6.7c0.5,2,1.7,3.7,3.3,4.9c3.2,2.8,6.6,5.3,10,7.8c1.7,1.3,3.5,2.5,5.4,3.5c0.7,0.4,1.5,0.7,2.2,0.8
		c0.9,0,1.7-0.2,2.5-0.5c0.3-0.1,0.7-0.3,1-0.5c0.1-0.1,0.3-0.1,0.4-0.2c0.4-0.2,0.7,0-0.2-0.1l-1.2-0.3c-0.9-0.4-0.3-0.2,0,0
		s0.7,0.5,1.1,0.7c1.1,0.7,2.2,1.5,3.3,2.2c1.3,0.9,2.5,1.8,3.8,2.7c0.6,0.4,1.1,0.9,1.7,1.3l0.8,0.6c0.1,0.1,0.9,0.8,0.4,0.4
		c0.4,0.3,0.7,0.7,1,1.1s-0.1-0.3-0.1-0.1c0,0.1,0.1,0.2,0.1,0.2c0.1,0.1-0.1-0.4-0.1-0.4c0-0.2,0.2-0.4,0.3-0.6
		c-0.2,0.2,0.1-0.1,0.1,0c0-0.4,0.1,0.2-0.2,0c0.1,0,0.5-0.1-0.1,0c-0.3,0-0.5,0.1-0.8,0.1s-0.7,0-0.2,0c-0.3,0-0.6,0-0.9,0
		c-0.7,0-1.4,0-2.1,0c-1.6-0.1-3.1-0.2-4.6-0.3s-3.4-0.4-5.1-0.6c-0.8-0.1-1.5-0.2-2.3-0.3l-1.1-0.2l-0.6-0.1c0.4,0.1-0.2,0-0.3,0
		c-1.1-0.2-2.3-0.4-3.4-0.7l-0.5-0.1c-0.7-0.2,0.2,0.1,0.1,0c-0.4-0.2,0.5,0.3,0.2,0.1s0.3,0.3,0.1,0.1s-0.2-0.2-0.3-0.4
		c-0.8-1-1.5-2.1-2.2-3.2c-0.9-1.5-1.8-3-2.6-4.5c-1.3-2.2-3.2-6.1-6.3-5.9c-3.3,0.2-2.3,5.4-2.1,7.5c0.2,2.4,0.6,4.8,1.1,7.1
		c0.4,2.2,5.2,3.1,4.7,0.3c-0.7-3.5-1.5-7.4-1.2-10.9c0-0.2,0-0.4,0.1-0.5c0-0.1,0-0.2,0.1-0.2c0,0.7-0.1,0.2,0,0.1
		s-0.4,0.2-0.5,0.3c-0.5,0.2-1.1,0.2-1.6,0c-0.1,0-0.9-0.5-0.6-0.3c-0.3-0.2-0.2-0.3,0,0l0.4,0.5c0.1,0.1,0.4,0.6,0.2,0.2
		c0.2,0.3,0.4,0.6,0.6,0.9c1.5,2.3,2.7,4.7,4.2,7c1.1,1.9,2.4,4.1,4.5,5c1.7,0.7,3.5,1.1,5.3,1.3c5.3,1,10.6,1.5,15.9,1.7
		c1.7,0,3.9,0.2,5.5-0.5c2.1-1,1-3.2-0.1-4.4c-3.1-3.5-7.4-6.1-11.2-8.6c-1.6-1.1-3.4-2.6-5.4-1.8c-0.7,0.3-1.3,0.7-2,1
		c-0.5,0.2-0.4,0.1,0.1,0.1c0.1,0,0.8,0.3,0.5,0.1s-0.6-0.3-0.8-0.4s-0.5-0.3-0.1,0l-0.7-0.5c-4.3-2.8-8.4-5.9-12.3-9.2l-1-0.8
		l-0.5-0.4c0.3,0.3,0.2,0.2,0,0c-0.6-0.8-1-1.8-0.9-2.8c0-0.7,0.1-1.3,0.4-1.9c0.1-0.1,0.3-0.4,0.3-0.5l0.1-0.1
		c-0.1,0.1-0.3,0.2-0.5,0.3c-0.4,0.1,0.3,0-0.5,0.1c0.1,0,0.6,0,0.1,0s0.1,0,0.2,0.1l1.3,0.4c0.6,0.2-0.1,0,0.3,0.1l0.7,0.3
		c0.6,0.2,1.2,0.5,1.7,0.8c1.2,0.5,2.4,1.1,3.5,1.7c1.9,0.9,3.8,1.9,5.6,2.9l0.9,0.5c0.7,0.4,2.1,0.6,2.7-0.1s1.4-1.3,1.5-2.2
		c0.1-1.1-0.9-2-1.7-2.6c-1.8-1.3-3.8-2.5-5.9-3.4c-2.4-1.2-4.8-2.4-7.2-3.5c-1.7-0.8-3.8-2.1-5.7-1.7c-1.6,0.3-2.5,1.8-3.3,3.1
		c-0.8,1.5-1.5,3.1-2.2,4.7c-0.7,1.9-1.2,3.8-1.6,5.8c-1.1,5.2-1.8,10.4-2.2,15.7c-0.1,0.8,0,1.7,0.2,2.5c0.6,1.7,2.6,2.3,4.2,2.5
		c2.5,0.3,4.9,0.3,7.4,0c0.8-0.1,1.4-0.8,1.3-1.6c0-0.2-0.1-0.5-0.2-0.7C215.1,461.3,213.8,460.7,212.5,460.8z"></path><path class="st1" d="M331.3,403c0,0-3.9,4.6-5.7,4.6s-11.8-14.3-13.6-14.8s-1.7,1.1-1.8-0.5s5-15.7,6.8-15.7
		c0.8-0.1,1.5,0.4,1.6,1.2c0,0.2,0,0.3,0,0.5l-4.3,11.9c2.6-0.5,5.3-0.2,7.7,0.9c3.6,1.7,16.1-2.3,17.7-4.4s-0.3-2.9,1.1-4.4
		s13.6-1.8,15.6-1.4s-3,7.8-10.1,11.3c-6.2,3.1-20.7,5.2-20.5,6.4S331.3,403,331.3,403z"></path><path class="st1" d="M329.1,401.8c-1.2,1.6-2.7,3-4.4,4c-0.1,0-0.4,0.1-0.5,0.2s0.4,0,0.6,0.1c0.5,0.1,1,0.3,1.4,0.6
		c-0.4-0.2,0.2,0.1,0.1,0.1l-0.4-0.4c-0.1-0.1-0.4-0.4-0.2-0.1l-0.5-0.5c-0.4-0.4-0.7-0.8-1.1-1.2c-3.1-3.5-5.8-7.3-9-10.6
		c-0.8-0.8-1.6-1.5-2.6-2.1c-0.8-0.4-1.8-0.7-2.7-0.7c-0.4,0-0.7,0.1-1.1,0.2c-0.2,0.1-0.7,0.2-0.2,0.1l3.2,1.2
		c1,0.9,0.6,1.1,0.6,0.3c0-0.1,0-0.2,0-0.3c0,0.2,0-0.2,0-0.3c0.1-0.2,0.1-0.5,0.2-0.8c0.3-1.2,0.7-2.3,1.1-3.5
		c0.9-2.7,2-5.3,3.3-7.8c0.4-0.8,0.9-1.6,1.5-2.4c-0.1,0.2,0.2-0.1,0.2-0.1c-0.1,0.2-2.5-1.1-2.5-1.1c0.2,0-0.1,0.8,0,0.3
		c-0.7,1.9-1.4,3.9-2.1,5.9l-2.1,6c-0.5,1.4,2.9,2.8,3.9,2.6c1.4-0.3,2.9-0.3,4.3,0c1.8,0.3,3.2,1.2,5.1,1.3c3.5,0,7-0.7,10.3-1.9
		c2.2-0.8,6.1-1.8,6.8-4.5c0.3-1.2-0.5-2.7,0.9-3.3c1.2-0.4,2.4-0.7,3.7-0.7c3.1-0.4,6.1-0.5,9.2-0.3h0.8h0.2h0.1
		c-0.6-0.1-1.2-0.4-1.6-0.9c-1.7-1.1-1-1.2-1.5,0c-0.7,1.5-1.6,2.8-2.8,4c-2.8,3.1-6.4,5.4-10.3,6.7c-3.6,1.3-7.4,2.1-11.1,3
		c-1.6,0.4-3.2,0.8-4.8,1.3c-0.7,0.2-1.9,0.5-1.8,1.4c0.2,1.6,2.7,3,3.8,3.8s2,1.4,3.1,2.1c0.7,0.4,2.3,1.4,3.1,0.8s-0.5-1.7-1-1.9
		c-0.9-0.6-1.8-1.2-2.7-1.8c-0.6-0.4-1.1-0.8-1.6-1.2c-0.1-0.1-0.2-0.2-0.3-0.3c0.1-0.1,0.1,0.5-0.1,0.5c0.3-0.1,0.5-0.3,0.8-0.4
		c0.5-0.2,1-0.3,1.6-0.5c1.6-0.4,3.3-0.8,4.9-1.2c3.9-0.8,7.8-2,11.5-3.3c3.9-1.6,7.4-4.2,10.1-7.5c1-1.1,1.8-2.3,2.2-3.7
		c0.4-1.9-1.7-3.1-3.2-3.5c-2.7-0.7-5.8-0.3-8.5-0.2c-1.7,0.1-3.4,0.2-5.1,0.5c-1.1,0.1-2.3,0.4-3.3,1c-1.5,1.2-0.3,2.9-1.2,4.4
		c-0.7,0.9-1.7,1.5-2.7,1.9c-3.6,1.7-7.4,2.7-11.3,3c-0.4,0-0.8,0-1.1,0c-0.2,0-0.5-0.2-0.6-0.1c0.1-0.1,0.4,0.2,0.1,0
		s-0.8-0.4-1.2-0.5c-0.8-0.3-1.6-0.5-2.4-0.6c-1.9-0.4-3.9-0.4-5.9-0.1l3.9,2.6l1.9-5.4c0.8-2.1,1.7-4.2,2.3-6.4
		c0.2-0.8,0-1.7-0.5-2.3c-1-1.3-3.8-2.8-5.5-1.9c-0.7,0.5-1.3,1.2-1.6,2.1c-0.6,1.1-1.2,2.3-1.7,3.5c-1.2,2.6-2.2,5.4-3,8.1
		c-0.3,0.8-0.4,1.5-0.5,2.4c0,1.9,2.9,3.8,4.5,3c0,0,0.4-0.2,0.4-0.2c-0.5-0.2-1.1-0.4-1.6-0.7c0.3,0.2,0,0,0,0s-0.2-0.2,0,0
		c0.1,0.1,0.1,0.1,0.2,0.2c0.4,0.4,0-0.1,0.3,0.3c0.9,0.9,1.6,1.8,2.4,2.8c2,2.4,3.9,4.8,5.9,7.1c1.8,2,4,5,7,5.2
		c1.6,0.1,3.1-1.1,4.2-2.2c0.9-0.8,1.8-1.7,2.6-2.7C334.4,403.2,330.2,400.5,329.1,401.8z"></path><path class="st1" d="M215.1,409.8c0,0,64.8-15.9,80.2-50.5c0,0-69.4-45-68.4-49.3s3.3-48.6-17.3-44.1s-28.6,23.7-27.5,63.8
		C183,357.3,215.1,409.8,215.1,409.8z"></path><path class="st1" d="M216.4,411.5c8-2.1,15.8-4.6,23.4-7.6c14.8-5.7,29.5-13,41.7-23.2c6.7-5.6,12.6-12.4,16.3-20.4
		c0.4-0.9-0.6-1.7-1.2-2.1c-4.5-2.9-9.1-5.9-13.6-8.9c-9.4-6.2-18.7-12.5-27.9-18.9c-2.3-1.6-4.6-3.2-6.9-4.9s-3.8-2.7-6-4.3
		c-3.3-2.4-6.6-4.9-9.7-7.6c-0.5-0.5-1.1-0.9-1.6-1.4c-0.2-0.2-0.4-0.4-0.6-0.6l-0.3-0.3c-0.2-0.2,0.4,0.5,0.1,0.1s-0.4-0.6-0.7-0.9
		c0.4,0.5,0.2,0.4,0.1,0c0.1,0.4,0.1,0.2,0,0.5c0.5-3,0.8-6,0.7-9c0.1-5.1-0.2-10.2-0.9-15.2c-0.8-5.2-2-10.4-4.6-14.9
		c-2.3-4.3-6.7-7.2-11.6-7.7c-2.6-0.1-5.2,0.3-7.7,1.2c-2.5,0.8-5,1.9-7.2,3.3c-10.1,6.3-14.5,17.9-16.5,29.2
		c-1.4,8.5-2,17.1-1.8,25.7c-0.1,3.7,0.1,7.3,0.5,11c0.4,3.1,1.1,6.2,1.9,9.2c3.6,13.8,9.6,26.9,16,39.6c4.4,8.8,9.2,17.5,14.2,25.9
		l0.8,1.3c1.1,1.8,5.7,1.7,4.1-0.9c-3.7-6-6.8-11.7-10.1-17.9c-6.7-12.2-12.5-24.9-17.2-38c-2.2-5.9-3.8-12.1-4.8-18.4
		c-0.4-3.7-0.6-7.3-0.5-11c0-4.5,0.1-9,0.4-13.5c0.8-12.1,2.9-26.1,11.6-35.2c3.4-3.4,7.6-5.9,12.2-7.2c1.2-0.4,2.4-0.7,3.7-0.8
		c-0.4,0,0.3,0,0.4,0h0.9h0.4c0.4,0-0.4-0.1-0.1,0l0.9,0.1l0.3,0.1c0.4,0.1-0.6-0.2-0.1,0l0.6,0.2c0.2,0.1,0.8,0.4,0.2,0.1l0.7,0.4
		l0.6,0.4c-0.5-0.4,0,0,0.2,0.1c0.4,0.3,0.8,0.7,1.1,1.1c-0.4-0.4,0.2,0.2,0.3,0.3l0.4,0.6c0.3,0.5,0.6,0.9,0.9,1.4
		c0.5,0.9,1,1.8,1.4,2.8c0.9,2.2,1.6,4.5,2.1,6.9c1,5.1,1.6,10.3,1.6,15.5c0.1,3.7,0,7.3-0.4,11c0,0.3-0.1,0.8,0,0.3
		c0,0.2-0.1,0.3-0.1,0.5c-0.1,0.5-0.1,0.9,0.1,1.4c0.5,1,1.2,1.9,2.1,2.7c2.4,2.3,4.9,4.4,7.6,6.4c4,3.1,8.2,6.1,12.4,9
		c9.3,6.6,18.7,12.9,28.1,19.2c6.1,4.1,12.2,8.1,18.3,12.1l0.9,0.6l-1.2-2.1c-6.4,14.3-20.2,24.2-33.5,31.6
		c-12,6.6-24.6,11.8-37.7,15.8c-2.7,0.8-5.3,1.6-8,2.3c-0.7,0.1-1.2,0.8-1.1,1.5c0,0.3,0.1,0.5,0.3,0.7
		C213.9,411.2,215.2,411.7,216.4,411.5z"></path><path class="st1" d="M195.6,249.8c0.9-21.9,15.4-25.5,25.1-24.7s15.5,5.5,16.6,9.8c0.9,3.2-9.1,19.6-9.1,19.6l-18.9,12.1
		C209.3,266.7,194.9,266.5,195.6,249.8z"></path><path class="st0" d="M236,265.1c6.9-5.9,0.3-26.6,0.3-26.6c-3.4-1-8.9-4.9-8.9-4.9c0.7,10.9-12.1,12.6-12.1,12.6
		c-2-6-8.9-4.6-9.1,1c-0.2,3.2,2,6.1,5.2,6.9c0,0-4.2,13.7-3.9,16c0,0,8.5,7.3,15.1-0.2C222.4,269.7,231.2,269.1,236,265.1z"></path><path class="st1" d="M238,266c4.5-4,3.9-11.3,3.1-16.7c-0.4-2.7-0.9-5.4-1.6-8c-0.2-0.8-0.4-1.6-0.6-2.4c-0.2-0.9-0.9-1.6-1.8-1.8
		c-2.8-1.1-5.5-2.6-7.9-4.4c-0.8-0.5-1.7-0.7-2.7-0.6c-0.5,0.1-1.7,0.3-1.7,1c0.3,4-1.8,7.9-5.4,9.7c-1.2,0.7-2.5,1.2-3.9,1.5
		c-0.4,0.1,0.4-0.1,0,0l-0.4,0.1l-0.6,0.1l-0.6,0.1l3.5,1.2c-1-3.1-4-5.2-7.3-5.2c-2.7-0.2-5.3,1.4-6.3,3.9
		c-1.8,4.7,1.8,9.4,6.4,10.5l-1.7-1.5c-1.3,4.2-2.5,8.4-3.5,12.6c-0.2,0.9-0.4,1.9-0.5,2.8c0,0.7,0.3,1.4,0.9,1.8
		c2,1.6,4.4,2.7,6.9,3.2c4.4,1.1,9.1-0.3,12.1-3.7l-1.9,0.7C228.1,270.7,233.9,269.4,238,266c1.8-1.5-2.8-3-4.1-1.9
		c-2.4,1.9-5.3,3.1-8.3,3.6c-1.1,0.2-2.2,0.4-3.3,0.6l-0.3,0c-0.8,0-1.5,0.3-2.1,0.9c-1.1,1.3-2.5,2.1-4.1,2.5c-1,0.2-2,0-2.9-0.4
		c-1.4-0.5-2.6-1.2-3.7-2.1l0.6,1c0-1.2,0.1-2.3,0.5-3.5c0.4-1.8,0.9-3.6,1.4-5.4c0.7-2.4,1.4-4.8,2.1-7.1c0.2-0.8-1.2-1.4-1.7-1.5
		l-0.2-0.1l-0.2-0.1c-0.4-0.1,0.5,0.3,0.1,0c-0.2-0.1-0.4-0.2-0.6-0.3c0.2,0.1-0.2-0.1-0.2-0.2s-0.3-0.2-0.5-0.4
		c-1.4-1.2-2-3.1-1.8-4.9c0.1-0.9,0.4-1.7,0.9-2.4c0.2-0.3,0.5-0.5,0.8-0.7c0.1-0.1,0.7-0.3,0.6-0.3c0.4-0.1-0.1,0,0.1,0
		s-0.4,0.1,0.1,0c-0.3,0-0.4-0.2-0.2,0s-0.1-0.1,0.3,0.2c0.7,0.6,1.2,1.5,1.5,2.4c0.4,1.2,2.5,1.4,3.5,1.2c2.6-0.4,5.1-1.3,7.3-2.6
		c4-2.1,6.5-6.4,6.2-11l-4.4,0.4c3,2.3,6.4,4.1,10,5.4l-1.6-1.1c0.7,2.3,1.3,4.6,1.8,7c0.9,4.3,1.5,8.9,0.8,13.3
		c-0.2,2-1.1,3.9-2.5,5.4C232.1,265.7,236.7,267.1,238,266z"></path><path class="st1" d="M216.2,252.8c-0.2,0.6-0.4,1.3-0.5,2c-0.1,0.6-0.1,1.1,0.1,1.7c0.1,0.3,0.2,0.6,0.4,0.9
		c0.6,0.7,1.3,1.3,2.1,1.8c0.8,0.6,1.7,1,2.7,1.2c0.5,0.1,1,0.1,1.6,0c0.7-0.1-1-1.4-1.1-1.5c-0.5-0.4-1.1-0.7-1.7-1l-0.5-0.2
		c-0.2-0.1-0.4-0.1-0.7-0.1c-0.4,0.1-0.8,0.1-1.2,0.1h0.3l-0.4-0.1c0,0,0.4,0.1,0.3,0.1l0.1,0.1l0.1,0.1c0.3,0.2,0.7,0.3,1,0.5
		l0.5,0.3c-0.1-0.1,0.6,0.5,0.4,0.3c0.6,0.5,0.4,0.4,0.3,0.3s0.2,0.2,0.2,0.2s-0.1-0.2-0.2-0.2l0.1,0.2c-0.2-0.4-0.3-0.9-0.3-1.4
		v0.2c0-0.9,0.2-1.8,0.5-2.7c0.1-0.2-0.3-0.6-0.4-0.7c-0.4-0.4-0.9-0.8-1.4-1.1c-0.5-0.3-1-0.6-1.6-0.8
		C216.9,252.8,216.3,252.6,216.2,252.8L216.2,252.8z"></path><path class="st0" d="M231.5,248.9c1.8,1.7,3.9,3.2,6.2,4.4c7.6,4,7.6,7.1,4.6,7.8s-13.5-4.1-13.5-4.1"></path><path class="st1" d="M229.3,250.1c1.8,1.8,3.9,3.3,6.1,4.4c1.6,0.8,3.2,1.8,4.6,3c0.8,0.6,1.4,1.5,1.8,2.4c0,0.1,0.1,0.3,0,0.1
		c0,0.1,0,0.1,0,0.2c0,0.2,0,0.3-0.1,0.5c0,0,0.1-0.3,0,0s0,0,0.1-0.1c-0.2,0.3,0.1-0.1,0.2-0.2c-0.2,0.2,0.6-0.4,0.2-0.2l0.4-0.2
		c-0.2,0.1-0.4,0.2,0.4-0.2c-0.4,0.1,0.1-0.1,0.2-0.1c-0.1,0-0.2,0-0.3,0.1c-0.3,0.1,0.5-0.1,0.2,0s0.2,0,0.1,0H243l-0.7,0
		c-1.1-0.1-2.1-0.4-3.1-0.7c-1.2-0.4-2.4-0.8-3.7-1.3c-1.6-0.6-3.2-1.3-4.8-2c-0.9-0.4-2.3,0.4-3,0.9c-0.3,0.2-1.8,1.4-1,1.8
		c1.5,0.7,3,1.3,4.5,1.9c2.5,1.1,5.1,1.9,7.8,2.3c1.3,0.1,2.6-0.1,3.8-0.6c1.4-0.6,3.1-1.6,3.5-3.1c0.7-2.3-2.4-4.4-4-5.4
		c-2.9-1.9-6.2-3.3-8.6-5.7c-1.1-1.1-5.1,1.7-4.4,2.4L229.3,250.1z"></path><path class="st1" d="M227,246.4c0.6,0.1,1,0.8,0.9,1.4c0,0.1,0,0.1-0.1,0.2c-0.4,1.2-1.9,0.7-1.9-0.5c0-0.6,0.4-1,0.9-1.1
		C226.9,246.3,227,246.3,227,246.4z"></path><path class="st1" d="M235.6,246.5c0.6,0.1,1,0.7,0.9,1.4c0,0.1,0,0.1-0.1,0.2c-0.4,1.2-1.9,0.7-1.9-0.5c0-0.6,0.4-1,0.9-1.1
		C235.6,246.5,235.6,246.5,235.6,246.5z"></path><path class="st1" d="M199,255.3c-0.7,1.4-1.6,2.7-2.6,3.8c-0.4,0.5-0.8,0.9-1.2,1.3c-0.1,0.1-0.7,0.6-0.4,0.4
		c-0.3,0.2-0.6,0.4-0.9,0.6l-0.3,0.2c0.4-0.2,0.1,0,0,0l-0.4,0.1c0.5-0.2,0.3-0.1,0.1,0c-0.6,0.1,0.6,0,0,0c-0.2,0-0.4-0.1,0.2,0
		c-0.4-0.1,0.2,0.2,0.1,0l-0.2-0.1c0.2,0.1,0.3,0.1,0,0c-1-0.9-1.8-2.2-2.1-3.5c-0.1-0.5-0.2-1.1-0.1-1.6c0-0.1,0.1-0.3,0,0
		c0-0.1,0.1-0.2,0.1-0.4c0.1-0.1,0.4-0.8,0.2-0.4c0.1-0.2,0.3-0.3,0.5-0.5c-0.4,0.4,0.1,0,0.2-0.1s-0.4,0.2,0.1,0
		c0.2-0.1,0.5-0.1-0.2,0l0.4-0.1c-1,0.2,0.6,0.1-0.4,0c0.1,0,0.2,0.1,0.3,0.1c0.3,0-0.6-0.2-0.2-0.1s-0.1-0.1-0.2-0.1l0.3,0.2
		c0.1,0.1,0.2,0.2-0.1-0.1c0.1,0.1,0.2,0.2,0.2,0.3c0.2,0.4-0.1-0.4,0,0.1c0,0.1,0.1,0.2,0.1,0.3c0,0.1,0.1,0.2,0.1,0.4
		c0.1,0.3,0-0.4,0,0.1c0,0.6,0,1.2-0.2,1.8c-0.5,1.6-1.3,3.1-2.4,4.4c-1.1,1.3-2.3,2.4-3.7,3.4c-0.6,0.4-1.2,0.8-1.9,1.1
		c0.4-0.2-0.3,0.1-0.3,0.1l-0.4,0.2c-0.2,0.1-0.4,0.1-0.6,0.2s-0.7,0.2-0.2,0.1c-0.3,0.1-0.6,0.1-0.9,0.2s-0.4,0,0.1,0H182
		c-0.4,0,0.6,0.1,0.1,0c-0.1,0-0.2,0-0.3-0.1c1,0.2,0,0,0.1,0l0.3,0.1l-0.2-0.2c-0.1,0.2,0.3,0.2,0.1,0.1c-0.1-0.1-0.3-0.5-0.1,0
		c-0.1-0.2-0.2-0.5-0.3-0.7c0.1,0.3,0-0.4,0-0.5c0-0.3,0-0.7,0.1-1c-0.1,0.4,0.1-0.3,0.1-0.4c0.1-0.2,0.2-0.4,0.3-0.6
		c-0.2,0.4,0.1-0.1,0.2-0.2s0.7-0.6,0.3-0.3c0.2-0.1,0.4-0.3,0.6-0.4c0.1-0.1,0.2-0.1,0.3-0.2c0.3-0.1-0.5,0.2-0.1,0l0.7-0.2
		c0.6-0.2-0.4,0,0.2,0c0.3,0,0.6-0.1,0.9-0.1c-0.8,0.2,0,0,0.3,0c0.6,0-0.4-0.1,0.1,0c0.2,0,1,0.3,0.3,0l0.6,0.3
		c0.2,0.1-0.4-0.4-0.1-0.1c0.1,0.1,0.2,0.1,0.3,0.2c0.3,0.2-0.2-0.3-0.1-0.1l0.3,0.3c0.3,0.3,0-0.2,0.1,0.2c0,0.1,0.1,0.2,0.1,0.3
		c0.1,0.3,0-0.4,0,0c0,0.3,0,0.5,0,0.8c0,0.1,0,0.2,0,0.3c0.1-0.4,0,0.1-0.1,0.1c-0.1,0.3-0.3,0.7-0.4,1c-1.1,1.7-2.4,3.2-4.1,4.4
		c-0.9,0.8,0,2,0.8,2.3c1.1,0.5,2.5,0.3,3.4-0.5c2.4-2.1,6.4-5.7,5.2-9.4c-0.9-2.8-4.4-3.8-7.1-3.7c-3,0.1-6.3,1.2-7.7,4.1
		c-0.8,1.4-0.9,3.2-0.3,4.7c0.9,1.7,2.7,2.8,4.6,2.8c4.1,0.3,8.2-2.2,11.1-4.9c2.7-2.5,6-6.9,5-10.8c-0.9-3.4-5.3-4.2-8.1-3
		c-3.6,1.6-4,5.5-2.2,8.7c1.2,2.2,3.1,4,5.8,4.2c2.2,0,4.2-0.8,5.8-2.3c2-1.8,3.7-4,4.9-6.5C204.9,254.2,200,253.3,199,255.3
		L199,255.3z"></path><path class="st0" d="M207.4,340.9c4.3,6.1,10.4,5,10.4,5c0.5,4.2,7.3,1.1,7.3,1.1s2.1,1.6,4.9-1s1.8-7.1,1.8-7.1s8.7,7.5,10.4,6.5
		s-0.4-6.8-9.2-12.4s-25.5-5.1-25.5-5.1l-21.7-15.6c0,0,30.7-36.3,18.8-41.8s-58.2,38.9-37.4,54.7c15.7,11.9,39,14.7,39,14.7
		c8.7,10.6,15.3,3.3,15.3,3.3"></path><path class="st1" d="M205.2,340.6c3.1,4.3,9,7.5,14.4,6.5l-4.2-1.8c0.5,3,4.3,4.2,6.9,4.1c1.7-0.1,3.3-0.5,4.9-1.3l-3.6-0.7
		c2.7,2.1,6.7,1.8,9-0.8c1.5-2,2.1-4.6,1.5-7.1l-4.2-0.5c2.5,2.2,5.2,4.2,8,5.9c1.6,1,4.1,2.4,6.1,1.8c1.3-0.4,1.2-1.9,0.9-3
		c-0.8-2.1-2-4-3.6-5.5c-2.4-2.5-5.2-4.6-8.2-6.3c-4.9-2.7-10.7-3.9-16.2-4.6c-3.6-0.5-7.1-0.7-10.7-0.6l2.9,0.9l-19-13.7l-2.7-2
		l0.7,1.5c6.3-7.3,11.9-15.2,16.7-23.6c1.5-2.6,2.8-5.4,3.9-8.2c0.8-2.1,1.2-4.4,1-6.7c-0.7-5-6.7-6.6-10.9-5.9
		c-5.1,0.9-9.8,4-13.8,7.1c-5.5,4.1-10.4,8.9-14.7,14.2c-4,5-7.7,10.6-9.6,16.8c-1.5,5-1.7,10.5,1.4,14.9c2.2,3.1,5.7,5.2,8.9,7.2
		c4.6,2.7,9.4,4.9,14.4,6.7c6.7,2.4,13.6,4.2,20.7,5.2c0.4,0.1,0.7,0.1,1.1,0.1l-3.1-1.5c3.4,4.1,8.4,7.8,14,7.3
		c2.1-0.2,4.1-1.1,5.7-2.6c1-1.1-3.4-3.2-4.3-2.2c-1.2,1.3-2.8,2.1-4.6,2.2c-0.3,0-0.6,0-0.8,0c0.1,0-0.7-0.1-0.4-0.1
		s-0.5-0.1-0.1,0c-0.8-0.3-1.6-0.8-2.3-1.3c-1.2-1-2.1-2.5-3.5-3.4c-0.8-0.5-1.6-0.8-2.5-0.9c-6-0.9-11.8-2.3-17.5-4.2
		c-4.8-1.6-9.4-3.6-13.7-6.1c-3.1-1.8-6.3-3.7-8.1-6.8c-2.8-4.8-1.5-10.8,0.4-15.7c2.8-6.4,6.7-12.2,11.5-17.3
		c4.6-5.1,9.8-9.6,15.6-13.3c2.2-1.4,4.5-2.6,7-3.4c0.5-0.1,1-0.3,1.5-0.4l0.7-0.1c0.4-0.1-0.1,0,0.5,0h0.6c0.6,0-0.1,0,0.2,0
		c0.1,0,0.2,0.1,0.3,0c0.2-0.1-0.5-0.1-0.2,0c0.6,0.2-0.6-0.2,0.1,0c-0.8-0.3-0.5-0.2-0.3-0.1s0.3,0.3-0.1,0
		c0.4,0.4-0.2-0.3,0.2,0.1l0.3,0.2c-0.3-0.3-0.1-0.1-0.1,0c0.2,0.2,0.3,0.4,0.4,0.6c0-0.1,0.1,0.2,0.2,0.4c0.1,0.2,0.1,0.4,0.2,0.6
		c0.1,0.5,0.2,1,0.2,1.5c-0.1,2.5-0.8,5-1.9,7.3c-2.6,6.2-6.4,11.9-10.3,17.4c-2.7,3.9-5.8,7.9-8.7,11.3c-0.2,0.2-0.3,0.4-0.5,0.6
		c-0.5,0.6,0.2,1.1,0.7,1.5c7.1,5.1,14.2,10.5,21.4,15.5c1.7,1.2,3.3,1,5.2,1.1c3.2,0.1,6.3,0.3,9.4,0.8c3.7,0.4,7.3,1.4,10.6,3.1
		c3.4,1.9,7.1,4.9,8.9,8.5c0.3,0.6,0.5,1.1,0.5,1.8c0,0.2,0,0.4,0,0.5c0,0.1-0.1,0.5-0.1,0.3c0,0.3-0.4,0.1,0.3,0.1
		c0.3,0,0.6,0.1,0.8,0.2c-0.2,0-0.6-0.3,0,0c-0.5-0.2-1.1-0.5-1.6-0.9c-2.1-1.4-4.2-3-6.1-4.7c-0.8-0.7-1.8-1.1-2.8-1.2
		c-0.4-0.1-1.6-0.1-1.5,0.6c0.3,1.5,0.1,3.1-0.5,4.6c-0.5,1.3-1.4,2.4-2.6,3c-0.3,0.1-0.6,0.2-0.9,0.3c-0.1,0.1-0.1-0.2,0.1,0
		c0.2,0.1,0.4,0.2,0.6,0.2c-0.3-0.1,0.5,0.3,0.3,0.2c-1.1-0.8-2.5-1-3.8-0.7c0.3-0.1-0.2,0.1-0.3,0.1c-0.3,0.1-0.7,0.2-1,0.3
		c-0.7,0.2-1.4,0.4-2.1,0.4c-0.1,0-0.3,0.1-0.3,0c0.5,0.2,0.9,0.4,1.4,0.6c-0.1-0.3-0.2-0.6-0.3-0.9c-0.1-0.7-1.2-1.2-1.7-1.4
		c-0.8-0.4-1.6-0.5-2.5-0.4c-0.3,0,0.4,0,0.2,0h-0.6H215c-0.4,0,0.2,0-0.1,0l-0.5,0c0,0-0.7-0.1-0.3,0c-0.7-0.1-1.3-0.3-1.8-0.7
		c-1.1-0.7-2-1.6-2.7-2.7c-0.8-0.9-1.9-1.4-3.1-1.5C205.9,339.6,204.5,339.7,205.2,340.6L205.2,340.6z"></path><path class="st1" d="M207.3,342c0.6,0,2.5-0.1,2.5-1s-1.9-1.1-2.5-1.1s-2.5,0.1-2.5,1S206.8,342,207.3,342z"></path><path class="st0" d="M226.5,338.8c0,0,2.7,4.8-1.4,8.3"></path><path class="st1" d="M224.3,339.8c0.1,0.1,0.2,0.3,0.2,0.5L224.3,339.8c0.3,0.7,0.5,1.5,0.6,2.2l-0.1-0.6c0.1,0.6,0,1.3-0.1,1.9
		l0.1-0.6c-0.1,0.6-0.3,1.1-0.6,1.6l0.3-0.5c-0.2,0.3-0.4,0.6-0.6,0.9c0,0.1-0.1,0.1-0.2,0.2c-0.2,0.3,0,0,0.1-0.1
		c-0.2,0.1-0.3,0.3-0.5,0.5c-0.9,0.7-1.1,1.9-0.4,2.8c0.1,0.1,0.2,0.2,0.3,0.3c1,0.9,2.5,1,3.5,0.2c2.1-1.7,3.2-4.2,3.1-6.9
		c-0.1-1.4-0.5-2.8-1.1-4c-0.7-1.1-2.2-1.5-3.4-0.9c-1.1,0.5-1.6,1.7-1.1,2.7C224.2,339.6,224.3,339.7,224.3,339.8L224.3,339.8z"></path></g><g id="character-1"><path class="st1" d="M55.4,439.3c0,0-5.8,27.5-5.2,27.5s10.7-0.3,10.7-0.3v-10.1l4.9,11.1l33.5-2c0,0,1.1-3.6-6.5-7.7
		s-19.7-9.7-19.7-9.7l8.3-15.4L55.4,439.3z"></path><path class="st1" d="M140.3,399.5c0,0-23.8,14.8-23.4,15.3s7.7,7.5,7.7,7.5l7.3-7l-4.6,11.2l24.7,22.8c0,0,3.4-1.7,1.1-10
		s-6.6-20.9-6.6-20.9l16.9-4.7L140.3,399.5z"></path><path class="st1" d="M76.1,319.6L47.2,444.8l37.9,2.5c0,0,17.3-60.1,21.4-95.6c0,0,34.6-1.6,40.4,12.4s-17.3,38.7-17.3,38.7
		l27.2,23.1c0,0,25.5-38.7,25.5-66.7c0-16.5-11.5-30.5-58.5-45.3L76.1,319.6z"></path><path class="st1" d="M73.6,319.2l-2.9,12.5l-6.9,29.8l-8.3,36.2L48.3,429c-1.2,5.1-2.3,10.1-3.5,15.2c0,0.1,0,0.1,0,0.2
		c-0.3,1.4,1.3,1.8,2.4,1.8l33.2,2.2l4.7,0.3c0.7,0,2.2-0.3,2.4-1.1c2.2-7.5,4.2-15,6.1-22.5c4.1-15.7,7.9-31.4,11.1-47.3
		c1.7-8.7,3.3-17.4,4.3-26.1l-2.5,1.5c3.6-0.1,7.2-0.1,10.8,0.2c0.2,0,0.5,0.1,0.7,0.1l1.2,0.1c0.8,0.1,1.7,0.2,2.6,0.3
		c1.7,0.2,3.4,0.5,5.2,0.8c3.3,0.5,6.5,1.5,9.5,2.8c2.6,1,4.9,2.7,6.7,4.8c1.7,2.3,2.4,5.2,2.1,8c-0.4,7.2-4.6,14.2-8.6,20.1
		c-2.8,4.2-5.9,8.1-9.3,11.8c-0.4,0.4-0.4,1-0.1,1.4c0,0,0.1,0.1,0.1,0.1l23.8,20.2l3.4,2.9c1.2,1,3.6,1,4.6-0.4
		c6.6-10.2,12.3-21,17-32.2c3.7-8.8,6.8-18.1,8.1-27.6c0.8-5.9,0.8-11.9-1.2-17.5c-2-5.1-5.3-9.6-9.5-13.1
		c-6.1-5.4-13.4-9.4-20.7-12.8c-5.1-2.3-10.3-4.4-15.5-6.3c-3.1-1.1-6.3-2.2-9.5-3.3c-1.6-0.5-3.2-1.2-4.9-1
		c-4.1,0.5-8.2,1-12.3,1.5L76.1,318l-0.7,0.1c-0.9,0.1-2.1,0.8-1.7,1.8s2.2,1.1,3.1,1l16.2-2l25.7-3.1l5.9-0.7l-1.9-0.1
		c13.3,4.2,26.9,9,38.8,16.4c6.6,4.1,12.9,9.3,16.1,16.4c3.3,7.4,2.5,16,0.8,23.9c-2.5,12-7.5,23.5-13.1,34.5
		c-2.2,4.3-4.5,8.5-6.9,12.6c-1.2,2.1-2.6,4.1-3.8,6.2l-0.2,0.3l4.6-0.4l-23.8-20.2l-3.4-2.8v1.5c3-3.3,5.8-6.7,8.3-10.4
		c4.4-6.3,8.8-13.3,10-21c0.6-3.2,0.2-6.6-1.3-9.5c-1.7-2.8-4.1-5-7-6.5c-6.3-3.4-13.8-4.7-20.9-5.4c-4.8-0.5-9.6-0.6-14.4-0.5
		c-1,0-2.3,0.4-2.5,1.5c-1.9,16-5.3,31.9-9,47.6c-3.1,13.3-6.5,26.6-10.2,39.8c-0.7,2.6-1.4,5.2-2.2,7.8l2.4-1.1l-33.2-2.2l-4.7-0.3
		l2.4,1.8l2.9-12.5l6.9-29.8l8.3-36.2l7.2-31.3c1.2-5.1,2.3-10.1,3.5-15.2c0-0.1,0-0.1,0-0.2c0.3-1.1-0.8-1.6-1.8-1.8
		C75.9,318.1,73.9,318.2,73.6,319.2z"></path><path class="st0" d="M76.6,272.4c0,0-14.3,49.6-9.6,52.4s49.1,2.1,58.5-3.1s6.2-43.6,6.2-43.6s34-43,34.6-77.1
		c0,0-22.9-9.6-26.3-7.6s-19,61-29.1,63c-10.1,2-44-73.8-44-73.8s-22.6,0.6-21.9,4.3S67.8,250.9,76.6,272.4z"></path><path class="st1" d="M74.3,272.1c-2.6,8.9-4.9,17.9-7,26.9c-1.5,6.1-2.6,12.3-3.4,18.5c-0.3,3-1.1,8.3,2.6,9.6
		c1.9,0.6,3.9,0.9,5.9,1c3,0.3,6.1,0.4,9.2,0.4c7.6,0.1,15.3-0.1,22.9-0.7c6.4-0.5,13-1.1,19.2-3.1c2.2-0.6,4.2-1.9,5.7-3.7
		c1.6-2.3,2.8-4.9,3.4-7.7c1.7-6.6,2-13.6,2-20.5c0-4.8-0.2-9.7-0.5-14.5l-0.1-0.8l-0.7,1.6c4.3-5.5,8.3-11.2,11.9-17.1
		c7.6-11.9,14.3-24.6,18.8-38c2.7-7.6,4.2-15.6,4.5-23.6c0-0.8-0.5-1.5-1.2-1.8c-5.8-2.5-11.7-4.6-17.8-6.5c-1.9-0.6-3.7-1-5.6-1.4
		c-1.4-0.3-3-0.3-4.4,0.1c-1.8,0.7-2.7,2.5-3.4,4.1c-2.7,6-4.7,12.4-6.9,18.6c-2.8,8-5.8,16.3-8.9,23.8c-1.4,3.4-3,6.7-4.7,9.9
		c-0.7,1.3-1.5,2.6-2.3,3.8c-0.3,0.5,0.3-0.4,0,0l-0.3,0.4l-0.5,0.7c-0.4,0.4-0.8,0.8-1.2,1.2s0.5-0.4,0.2-0.1
		c-0.1,0.1-0.2,0.1-0.3,0.2c-0.2,0.1-0.3,0.2-0.5,0.3c-0.3,0.3,0.7-0.3,0,0c-0.1,0-0.2,0.1-0.2,0.1c-0.4,0.3,0.5-0.1,0.2-0.1
		s-0.2-0.2,0.2,0c-0.1-0.1-0.3,0-0.4,0c-0.4-0.1,0.6,0.3,0.1,0c-0.2-0.1-0.3-0.1-0.5-0.2c-0.6-0.2,0.3,0.3,0,0
		c-0.2-0.1-0.3-0.2-0.5-0.3c-0.4-0.3-0.7-0.6-1.1-0.9c-0.4-0.3-0.7-0.7-1.1-1c-0.1-0.1-0.4-0.4,0,0l-0.3-0.3l-0.6-0.6
		c-4.3-4.9-7.6-10.6-10.9-16.2c-4.1-7.1-8-14.4-11.7-21.7c-5.3-10.4-9.9-20.1-14.7-30.7c-0.1-0.2-0.2-0.3-0.2-0.5
		c-0.4-0.9-1.3-1.5-2.3-1.3c-6.4,0.2-13.1,0.5-19.3,2.2c-2.7,0.7-5.6,2.4-4.8,5.6c0.5,1.8,1.2,3.6,1.8,5.4
		c2.6,7.6,5.4,15.2,8.1,22.8c3.6,9.9,7.2,19.7,10.9,29.6c3.2,8.4,6.3,16.8,9.7,25.2c0.3,0.8,0.6,1.5,0.9,2.3
		c1.1,2.7,5.6,0.7,4.6-1.8c-3.1-7.7-6.1-15.4-9-23.2c-3.6-9.6-7.1-19.2-10.6-28.8c-3-8.1-5.9-16.2-8.8-24.4
		c-0.8-2.4-1.7-4.8-2.5-7.2c-0.2-0.6-0.4-1.2-0.6-1.9s0,0.4-0.1,0.6s-0.3,0.6-0.5,0.6c0.1,0,0.2-0.2,0.3-0.2c0.5-0.2-0.5,0.2-0.1,0
		s0.6-0.2,0.8-0.3l0.5-0.2c0.1,0,0.7-0.2,0.4-0.1s0.3-0.1,0.5-0.1l0.6-0.1l1.4-0.3c2-0.4,3.9-0.6,5.9-0.8c3.1-0.3,6.2-0.5,9.4-0.6
		h0.5l-2.3-1.3c4,9,8.3,17.9,12.7,26.7c3.7,7.5,7.5,14.9,11.6,22.2c3.4,6.3,7.2,12.4,11.3,18.2c1.5,2.1,3.2,4.1,5.1,5.8
		c1.4,1.3,3.2,2.4,5.2,2.2c2.3-0.2,4.2-1.9,5.6-3.5c2-2.4,3.6-5.1,5-7.9c7.4-14.4,11.9-30.2,17.5-45.4c0.5-1.3,1-2.6,1.5-3.9
		c0-0.1,0.1-0.2,0.1-0.3l0.3-0.7c0.2-0.4,0.4-0.9,0.6-1.3s0.3-0.5,0.4-0.8c0.3-0.5-0.1,0.2-0.1,0.1c0.2-0.3,0.5-0.4-0.3,0.2
		c0.3-0.2-0.7,0.4-0.2,0.1c-0.8,0.3-0.2,0.1,0.1,0s-0.6,0-0.1,0h0.4c0.4,0,0.8,0.1,1.1,0.1c1.7,0.3,3.3,0.6,4.9,1.2
		c2.1,0.6,4.1,1.3,6.1,2c3.4,1.2,6.7,2.5,10.1,3.8l1.6,0.6l-1.2-1.7c-0.2,12.1-4.3,23.9-9.3,34.8c-4.7,10.2-10.3,20.1-16.6,29.4
		c-1.2,1.7-2.3,3.4-3.5,5.1l-0.7,1l-0.4,0.5c-0.1,0.1-0.4,0.6-0.2,0.3s-0.1,0.2-0.2,0.3s-0.2,0.3-0.3,0.4l-0.6,0.8
		c-0.8,1.1-2.8,3-2.8,4.5c-0.1,1.8,0.2,3.8,0.3,5.6c0.2,4.2,0.2,8.4,0.1,12.5c0,4.6-0.4,9.1-1.2,13.6c-0.4,2-0.9,4-1.6,5.9l-0.1,0.4
		l-0.2,0.4c-0.2,0.4-0.4,0.8-0.6,1.1s-0.8,1.1-0.3,0.6c-0.2,0.3-0.4,0.6-0.7,0.8c-0.1,0.1-0.5,0.5-0.2,0.2s0,0-0.1,0.1
		s-0.3,0.2-0.4,0.3c-0.5,0.4,0.4-0.1,0,0c-0.6,0.2-1.2,0.5-1.8,0.8l-1.1,0.4l-0.5,0.1h0.2l-0.5,0.1c-0.9,0.2-1.9,0.4-2.8,0.6
		c-4.6,0.8-9.3,1.4-14,1.7c-9.6,0.8-19.3,0.9-29,0.3c-1.6-0.1-3.2-0.3-4.7-0.5l-0.8-0.2c-0.1,0,0.5,0.2,0.1,0l-0.3-0.1
		c-0.2-0.1-0.4-0.1-0.6-0.2c-0.5-0.1,0.3,0.2,0,0s0.4,0.5,0.1,0.1s0.1,0.3,0.1,0.2s-0.1-0.2-0.1-0.3l-0.2-0.6c-0.2-0.6,0,0.4,0-0.3
		c-0.1-1.3-0.1-2.7,0.1-4c0.1-0.8,0.2-1.6,0.3-2.4l0.1-0.7c0-0.1,0-0.1,0-0.2c0.1-0.5,0.2-1,0.2-1.5c0.3-2.1,0.7-4.1,1.1-6.2
		c0.9-4.5,2-9.1,3.1-13.5c1.6-6.6,3.4-13.2,5.2-19.8l0.3-1.1c0.3-1-0.3-2.1-1.3-2.4c-0.1,0-0.3-0.1-0.4-0.1
		C75.8,270.1,74.6,270.9,74.3,272.1z"></path><path class="st0" d="M142.1,190.1c0,0-7.9-13.8-3.9-15.2s7.9,5.8,7.9,5.8s4.6-17.5,7.9-17.5s2.1,14.6,2.1,14.6s4.6-15.3,7.8-12.8
		s-0.8,13.9-0.8,13.9s4.4-8.3,6.5-6s-6.3,28.8-6.3,28.8c-7.6,0.8-15.3-1.1-21.6-5.3C141.6,194.2,141.8,192.1,142.1,190.1z"></path><path class="st1" d="M144.5,189.2c-1.5-2.6-2.8-5.2-3.8-8c-0.8-1.6-1.2-3.4-1.2-5.2c0-0.3,0.1-0.6,0.2-0.9c0-0.1,0.1-0.1,0.1-0.2
		s-1.7,1-2,0.9c0.3,0.2,0.9,0.2,1.2,0.4c0.5,0.3,1,0.6,1.5,1c1.4,1.2,2.5,2.7,3.3,4.3c0.6,1.1,4.4-0.6,4.7-1.5
		c1.1-4.4,2.6-8.8,4.4-13c0.4-1.1,1-2.1,1.7-3.1c0.1-0.2,0.3-0.3,0.4-0.5l0,0l-0.1,0.1c-0.5,0.3-1,0.5-1.5,0.7
		c-1.5,0.4-1.2-0.1-0.6,0.6c0.6,0.9,0.9,1.9,0.9,3c0.2,1.5,0.4,2.9,0.4,4.4c0.1,2.1,0,4.2-0.2,6.4c-0.1,1.2,4.3-0.2,4.7-1.3
		c1-3.5,2.3-6.8,4.1-10c0.2-0.4,0.5-0.8,0.8-1.2l0.4-0.5c0.1-0.2,0.3-0.4,0.3-0.3c0.1-0.1,0.3-0.1,0.1-0.1c-0.8,0.2-1.6,0.5-2.4,0.8
		c-0.3,0.2-0.4-0.3-0.1,0.1c0.3,0.3,0.5,0.6,0.8,0.9c1,2.1,0.4,4.9,0,7.1c-0.4,1.9-0.9,3.8-1.5,5.6c-0.3,0.8,1.7,0.3,2,0.3
		c0.9-0.2,2.2-0.7,2.7-1.6s0.9-1.6,1.4-2.4c0.4-0.6,0.9-1.2,1.3-1.8c0.2-0.3,0.5-0.6,0.8-0.8c0,0.1,0.2-0.2,0.1-0.1
		c0.2-0.1,0.2-0.2,0,0c-0.4,0.2-0.8,0.3-1.2,0.4c-1.6,0.4-0.9,0-0.5,0.7c0.1,0.3,0.2,0.7,0.2,1c0,1.1-0.1,2.2-0.3,3.2
		c-1.2,6.4-2.8,12.7-4.8,18.9c-0.5,1.7-1,3.4-1.6,5.1l3.3-1.7h-0.2c0.8-0.2,0.1,0-0.1,0c-0.7,0.1-1.4,0.1-2.1,0.1
		c-2.4,0-4.8-0.3-7.1-0.8c-3.3-0.7-6.5-2-9.4-3.7c-0.4-0.2-1.1-0.5-1.3-0.9c0-0.3,0-0.7,0-1c0.1-1.6,0.2-3.2,0.5-4.8
		c0.1-1-4.5,0.1-4.7,1.3c-0.3,1.7-0.4,3.4-0.5,5.1c0,1.2-0.1,1.3,1,2c3.2,1.9,6.7,3.4,10.3,4.2c3.8,1,7.8,1.2,11.8,0.6
		c0.8-0.1,3-0.7,3.3-1.7c1.6-5.2,3.2-10.4,4.5-15.6c0.9-3.3,1.6-6.6,2.1-10c0.2-1,0.2-2,0-2.9c-0.6-1.6-2.9-1-4.1-0.6
		c-3.5,1.3-5.6,4.5-7.2,7.7l4.7-1.3c0.6-1.9,1.1-3.8,1.5-5.7c0.4-2.3,1.2-5.9-0.3-7.9c-1.7-2.3-5.7-0.1-7.2,1.5
		c-1.6,2-2.8,4.3-3.6,6.8c-0.7,1.8-1.4,3.7-2,5.6l4.7-1.3c0.2-2.1,0.2-4.2,0.2-6.3c0-1.7-0.1-3.3-0.4-4.9c-0.1-1.2-0.5-2.3-1.2-3.2
		c-1.1-1.2-3.2-0.4-4.5,0.2c-1.2,0.6-2.3,1.6-3,2.8c-1.6,2.8-2.9,5.8-3.8,8.9c-0.8,2.2-1.4,4.5-2,6.8l4.7-1.5
		c-0.9-1.7-2.1-3.2-3.5-4.5c-2.5-2.2-6-2.1-8.7-0.2c-1.8,1.2-1.7,3.1-1.2,5c0.6,2.3,1.5,4.6,2.6,6.7c0.7,1.4,1.4,2.9,2.2,4.2
		C140.4,192,144.9,190,144.5,189.2z"></path><path class="st1" d="M145.5,182.3c1,0.5,2.1,0.9,3.1,1.4c0.1,0,0.5,0.3,0.1,0.1s0,0,0.1,0.1s0.4,0.3,0.6,0.4l0.2,0.2l0.1,0.1
		c0.1,0.1,0.1,0.1-0.1-0.2c0.1,0.2,0.3,0.4,0.4,0.5c0.3,0.4,0.5,0.7,0.8,1.1l0.4,0.6l0.1,0.3c0.2,0.4-0.2-0.4,0,0
		c0.4,0.9,0.8,1.8,1.1,2.7c0.5,1.1,1.8,1.7,3,1.5c0.9-0.2,2.3-1,1.9-2.2c-0.7-2.1-1.7-4-3-5.8c-0.8-1-1.8-1.9-2.9-2.5
		c-1-0.6-2.2-1-3.3-1.5c-0.6-0.3-1.3-0.4-1.9-0.3c-0.6,0.1-1.1,0.3-1.5,0.8c-0.6,0.7-0.4,1.8,0.3,2.3
		C145.1,182.2,145.3,182.2,145.5,182.3L145.5,182.3z"></path><path class="st0" d="M66.7,176.2c0,0,8.6-13.4,4.6-15s-8.2,5.4-8.2,5.4s-3.7-17.7-7-17.8s-2.8,14.5-2.8,14.5s-3.9-15.5-7.2-13.1
		s0.1,13.9,0.1,13.9s-4-8.5-6.2-6.2s5,29,5,29c7.6,1.2,15.3-0.3,21.9-4.3C67,180.3,67,178.2,66.7,176.2z"></path><path class="st1" d="M69.1,177c2.1-3.1,3.7-6.4,5-9.9c0.6-1.6,1.2-3.8,0-5.4c-1.9-2.5-6.2-2.7-8.7-1.1c-1.9,1.3-3.5,3-4.6,5
		l4.7,1.4c-1.1-5.2-2.4-10.6-4.7-15.3c-0.5-1.2-1.3-2.2-2.2-3c-1.3-1-3.6-1.9-5.1-1c-2.1,1.2-2.1,5.1-2.3,7.2
		c-0.2,2.6-0.3,5.1-0.2,7.7l4.7,1.1c-1-4-2.2-8.5-4.6-12c-0.7-1.1-1.6-1.9-2.8-2.5c-1.2-0.6-3.1-1.1-4.4-0.2
		c-2.1,1.5-1.7,5.2-1.4,7.4c0.3,2.4,0.7,4.7,1.4,7l4.7,1.1c-1.2-2.6-2.8-5.6-5.2-7.2c-1.3-0.9-4.5-2.2-5.7-0.4
		c-0.4,0.8-0.5,1.6-0.4,2.4c0.1,3.2,0.6,6.4,1.3,9.5c0.7,3.7,1.6,7.4,2.5,11.1c0.5,2.1,1,4.2,1.6,6.2c0.2,1,1.8,1.5,2.7,1.7
		c4.1,0.8,8.2,0.7,12.3-0.1c3.7-0.7,7.3-2,10.6-3.8c1.2-0.6,1.1-0.9,1.1-2.1c0-1.7-0.1-3.5-0.2-5.2c-0.2-1.4-4.9-2.7-4.7-1.1
		c0.2,1.6,0.3,3.1,0.3,4.7c0,0.4,0,0.7,0,1.1c-0.1,0.4-0.7,0.5-1.1,0.7c-3,1.6-6.2,2.7-9.6,3.3c-2.2,0.4-4.5,0.5-6.8,0.4
		c-0.7,0-1.4-0.1-2.1-0.2c-0.3,0-0.6-0.2-0.3,0s0.2,0,0,0l2.7,1.7c-1.2-4.5-2.3-9-3.3-13.5c-0.7-3.2-1.4-6.5-1.8-9.7
		c-0.2-1.2-0.3-2.5-0.3-3.7c0-0.3,0-0.7,0.1-1c0-0.2,0.2-0.9,0.2-0.6c0-0.1,0.3-0.1,0.2-0.2c-0.3,0-0.5,0-0.8-0.1
		c-0.5,0-0.9-0.2-1.3-0.5c0.3,0.1,0-0.1,0.1,0s0.3,0.3,0.5,0.5c0.5,0.6,0.9,1.2,1.3,1.9c0.5,0.7,0.9,1.4,1.2,2.2
		c0.1,0.2,0.3,0.5,0.4,0.8s-0.1-0.3,0,0c0.6,0.9,1.6,1.6,2.7,1.7c0.4,0.1,2.3,0.4,2.1-0.6c-0.4-1.5-0.7-3-1-4.5
		c-0.4-2.4-0.9-5.1-0.2-7.4c0.1-0.4,0.3-0.8,0.6-1.1c0.1-0.1,0.4-0.2,0.4-0.4c-0.1,0.2-0.2-0.1,0,0h-0.2c-0.3,0-0.7-0.1-1-0.2
		c-0.2-0.1-1.1-0.5-1.1-0.5s0.2,0.2,0.2,0.2s-0.2-0.3,0,0c0.3,0.4,0.6,0.8,0.8,1.2c1.1,2,1.9,4.1,2.6,6.3c0.5,1.5,1,3,1.3,4.6
		c0.3,1.2,4.8,2.8,4.7,1.1s0-3.5,0.1-5.2c0.1-2.5,0.2-5.5,1.3-7.8c0.2-0.4,0.4-0.5,0.6-0.8s0,0.1,0,0h0.1c-0.2,0.1-0.4,0.1-0.7,0
		c-0.6-0.1-1.2-0.3-1.8-0.6c-0.3-0.1-0.2-0.3,0,0c-0.1-0.3,0.1,0.1,0.2,0.2s0.3,0.4,0.4,0.6c0.3,0.5,0.6,1,0.8,1.6
		c1.2,2.8,2.1,5.6,2.8,8.5c0.5,1.9,1,3.8,1.4,5.7c0.3,1.2,3.9,2.7,4.7,1.4c0.8-1.3,1.7-2.4,2.8-3.4c0.4-0.4,0.9-0.7,1.3-1.1
		c0.4-0.3,1-0.4,1.4-0.6c0.2-0.1,0.2,0,0.2,0c0,0.2-1.4-0.7-1.5-0.8s0.1,0.1,0.1,0.1c0,0.1,0.1,0.2,0.1,0.3c0.3,1.6-0.4,3.4-1,4.8
		c-0.8,1.9-1.7,3.8-2.7,5.6c-0.6,1-1.2,2.1-1.8,3.1S68.2,178.4,69.1,177z"></path><path class="st1" d="M60.4,165.5c-1.1,0.5-2.2,0.8-3.2,1.3c-0.9,0.5-1.7,1.1-2.4,1.9c-1.3,1.6-2.3,3.3-3,5.2
		c-0.1,0.3,0.3,0.7,0.5,0.8c0.5,0.4,1,0.7,1.5,0.9c0.5,0.3,1.1,0.4,1.7,0.5c0.3,0,0.8,0.1,0.9-0.2c0.8-2.2,2-4.2,3.6-5.9l-0.2,0.1
		c0.6-0.6,1.4-1,2.1-1.3c0.9-0.4,1.8-0.7,2.7-1.1s-1-1.5-1.2-1.6c-0.6-0.3-1.2-0.6-1.8-0.7C61.2,165.5,60.8,165.5,60.4,165.5
		L60.4,165.5z"></path><path class="st1" d="M124.2,232.5c0,0,2.7-18.6-13.3-22.3S78,221.7,80.8,241.3s26.8,17.3,26.8,17.3L124.2,232.5z"></path><path class="st1" d="M126.4,231.6c1.2-8.1-1.8-17.6-9.6-21.3c-6.8-3.2-14.7-1.9-21.3,1.2c-7,3.2-12.5,9-15.4,16.1
		c-2.6,6.6-3,15.1,0.5,21.5c2.6,4.7,7.2,7.8,12.3,9.3c3.7,1.1,7.6,1.6,11.5,1.5c1.8,0.1,3.6-0.5,5-1.6c0.7-0.8,1.3-1.6,1.8-2.6
		l14.9-23.5L126.4,231.6c0.4-0.6-1.8,0.1-1.9,0.1c-1,0.3-1.9,0.9-2.6,1.6l-14.5,22.9l-2.1,3.3l4.1-2c-4.1,0.3-8.2-0.1-12.2-1.3
		c-3.4-0.9-6.6-2.7-9.1-5.2c-2.9-3-4.7-6.9-5.1-11c-1.3-10.2,3.1-21.4,12.1-26.8c3.7-2.1,7.9-2.8,12.1-2.2c4.4,0.5,8.4,2.8,11.1,6.4
		c3.2,4.4,4.3,10.8,3.6,16c-0.1,0.7,1.6,0,1.9-0.1C124.3,233,126.3,232.3,126.4,231.6z"></path><path class="st0" d="M126.8,248.3c4.1-7.8-5.7-30.8-5.7-30.8c-5.1-5.4-24.7,2.5-24.7,2.5c4.1,5.6,5.2,15.9,5.2,15.9
		c-3.5-5.1-9.5-1.4-8.1,4s8.1,5.7,8.1,5.7s0.5,11.8,1.4,13.9s11.6,3.1,15.7-4.1C118.8,255.4,123.2,255.1,126.8,248.3z"></path><path class="st1" d="M129.1,249.5c2.1-4,1.2-9.3,0.3-13.5c-1.1-4.9-2.5-9.8-4.3-14.5c-0.5-1.3-1-2.6-1.5-3.9
		c-0.7-1.4-1.8-2.5-3.2-3c-4.5-2-10-1-14.7,0.1c-3.6,0.9-7.2,2-10.7,3.4c-1.2,0.5-1.1,1.9-0.5,2.8c3,4.2,4.2,9.9,4.7,14.9l4.3-0.8
		c-2-2.7-5.6-4.6-8.9-3.1c-2.8,1.4-4.3,4.6-3.5,7.6c1.1,4.9,6.1,7.8,10.8,8.1l-2.7-2.2c0.1,4.2,0.4,8.4,1.1,12.6
		c0.3,2.2,2,4,4.2,4.5c2.6,0.7,5.2,0.7,7.8,0.1c3.6-0.7,6.8-2.9,8.7-6.1l-1.3,0.9C123.9,257.2,127.3,252.8,129.1,249.5
		c1.2-2.3-3.2-4.7-4.4-2.4c-1,1.9-2.3,3.6-4,5c-0.4,0.3-0.9,0.6-1.4,0.9c-0.2,0.1-0.4,0.2-0.7,0.3c0.4-0.2,0.1,0-0.2,0l-0.4,0.1
		c-1.2,0.3-1.5,1.5-2.3,2.3c-1.1,1.2-2.6,2.1-4.2,2.6c-1.3,0.4-2.6,0.6-4,0.6c-0.3,0-0.7,0-1,0c-0.2,0-1-0.2-0.5-0.1l-0.8-0.2
		c-0.8-0.2,0.1,0.1-0.3-0.1s0.4,0.4,0,0c0.1,0.1,0.6,0.7,0.4,0.4c0.1,0.2,0.1,0.2,0-0.2s-0.1-0.6-0.2-0.9c-0.2-1.4-0.4-2.9-0.5-4.4
		c-0.2-2.6-0.4-5.2-0.5-7.8c-0.1-1.2-1.6-2.2-2.7-2.2l-0.8-0.1c0.7,0.1-0.1,0-0.3-0.1s-0.6-0.2-0.9-0.3c-1.3-0.3-2.3-1.1-3-2.3
		c-0.9-1.5-0.6-3.4,0.6-4.6c0.4-0.4,0.9-0.6,1.5-0.6c-0.3,0,0.2,0,0.3,0.1s0-0.1,0.2,0.1c0.3,0.3,0.6,0.6,0.9,1
		c1.1,1.5,4.6,1.8,4.3-0.8c-0.6-5.8-2.2-12.1-5.6-17l-0.6,2.9c3.1-1.2,6.3-2.2,9.5-3c2.5-0.6,5-1,7.5-1.2c0.6,0,1.3,0,1.9,0.1
		c0.3,0,0.6,0,0.9,0.1c-0.5-0.1,0.2,0,0.2,0.1l0.8,0.2c0.4,0.1-0.4-0.1,0.3,0.1s-0.1-0.1,0.2,0.1c0.2,0.1,0.4,0.3,0.5,0.5l-0.7-1
		c3.1,7.2,5.8,15,6.4,22.9c0.1,1.2,0.1,2.4,0,3.6c-0.1,1-0.3,1.9-0.8,2.8C123.5,249.5,127.9,251.8,129.1,249.5z"></path><path class="st0" d="M118.5,238.9c0,0,13.1-1.3,13.8-8.4s-9.2-8-15-0.8"></path><path class="st1" d="M118.8,240.9c4.4-0.4,9.2-1.7,12.7-4.5c2.5-1.8,3.7-5,3.1-8c-0.9-3.7-4.4-5.6-8-5.7c-4.6-0.1-8.8,2.5-11.6,6
		c-0.8,1,0.3,2.3,1.2,2.7c1.1,0.5,2.5,0.3,3.3-0.7c0.1-0.1,0.2-0.2,0.2-0.3l0.4-0.5c0.3-0.3,0.7-0.6,1-0.9s0.6-0.5,1-0.7l0.2-0.2
		h-0.1l0.6-0.3c0.3-0.2,0.7-0.3,1-0.5c0.2-0.1,0.3-0.1,0.5-0.2s0.3-0.1,0.1,0s0.1,0,0.1,0c0.3-0.1,0.7-0.2,1-0.2
		c0.2,0,0.3-0.1,0.5-0.1c0.6-0.1-0.3,0,0.1,0s0.6,0,0.9,0c0.6,0-0.1,0-0.1,0l0.5,0.1l0.4,0.1c0.1,0,0.1,0,0.2,0.1
		c0,0-0.5-0.2-0.3-0.1c0.3,0.1,0.5,0.3,0.8,0.4c-0.1,0.1-0.5-0.3-0.1,0l0.3,0.2c0.3,0.2-0.3-0.3-0.1,0l0.3,0.4l0.1,0.2
		c0,0-0.2-0.4-0.1-0.2s0.1,0.2,0.2,0.4s0.1,0.2,0.2,0.4c0.2,0.4,0-0.2,0,0.1c0.1,0.3,0.1,0.6,0.1,0.9c0,0.2,0,0.3,0,0.5
		c0-0.4,0,0.1,0,0.2c0,0.3-0.1,0.6-0.1,0.8c0,0.1-0.1,0.3-0.1,0.4c-0.1,0.4,0.1-0.2,0,0.1c-0.3,0.5-0.6,1-0.9,1.5
		c0.2-0.3,0.1-0.2,0,0s-0.2,0.2-0.3,0.3c-0.2,0.2-0.4,0.4-0.7,0.6l-0.3,0.2l-0.2,0.1l-0.2,0.1l-0.4,0.2c-0.5,0.3-1.1,0.6-1.6,0.8
		l-0.8,0.3l-0.4,0.1c-0.2,0.1,0.2-0.1,0.2-0.1s-0.2,0.1-0.3,0.1c-0.5,0.2-1.1,0.3-1.6,0.5c-1,0.3-2,0.5-3,0.6l-1,0h0.2
		c-1.1,0.1-2.4,0.7-2.2,2C116.4,240.2,117.5,241,118.8,240.9L118.8,240.9z"></path><path class="st1" d="M115.9,225.8c-0.5,0.3-0.8,0.9-0.5,1.5c0,0.1,0.1,0.1,0.1,0.1c0.7,1,1.9,0.1,1.6-0.9c-0.1-0.5-0.6-0.8-1.1-0.8
		C116,225.8,115.9,225.8,115.9,225.8z"></path><path class="st1" d="M108.1,228.1c-0.5,0.3-0.8,0.9-0.5,1.5c0,0.1,0.1,0.1,0.1,0.1c0.7,1,1.9,0.1,1.6-0.9c-0.1-0.5-0.6-0.8-1.1-0.8
		C108.2,228,108.2,228,108.1,228.1z"></path><path class="st1" d="M104.4,240.2c0,0.3,0,0.7,0,1c0.1,0.3,0.1,0.7,0.2,1c0.2,0.5,0.4,1,0.8,1.5c0.2,0.2,0.4,0.4,0.6,0.6
		c0.3,0.3,0.7,0.6,1.1,0.8c0.3,0.2,0.7,0.3,1.1,0.4c0.6,0.1,1.2,0.1,1.8,0c0.3-0.1,0.6-0.2,0.8-0.3c0.1-0.1,0.2-0.1,0.3-0.2
		c0.4-0.3,0.8-0.6,1.1-0.9c0.2-0.2,0.4-0.4,0.4-0.7c0.1-0.2,0.2-0.5,0.1-0.8c-0.1-0.6-0.4-1.1-0.9-1.4c-0.5-0.4-1.2-0.6-1.8-0.6
		l-0.6,0.1c-0.4,0.1-0.7,0.3-1,0.5c-0.2,0.2-0.4,0.4-0.7,0.6l0.5-0.3c-0.1,0.1-0.3,0.2-0.4,0.2l0.6-0.2c-0.1,0-0.2,0.1-0.3,0.1
		l0.6-0.1h-0.3l0.7,0.1c-0.1,0-0.2,0-0.2-0.1l0.6,0.2c-0.1,0-0.2-0.1-0.3-0.1l0.5,0.3c-0.1-0.1-0.2-0.2-0.3-0.3l0.4,0.4
		c-0.2-0.2-0.3-0.3-0.4-0.5l0.3,0.5c-0.2-0.3-0.3-0.6-0.4-0.9l0.2,0.5c-0.1-0.3-0.1-0.5-0.1-0.8v0.5c0,0,0-0.1,0-0.1
		c0.1-0.3,0.1-0.5,0-0.8c-0.1-0.3-0.2-0.5-0.4-0.7c-0.9-1-2.3-1.3-3.4-0.7c-0.5,0.2-0.9,0.7-1,1.2L104.4,240.2z"></path></g><g id="light"><path class="st2" d="M104,104.2l12.8-4.2c1-0.3,2.2-1.3,1.6-2.4c-0.6-1.1-1.9-1.6-3.1-1.2l-12.8,4.2c-1,0.3-2.2,1.3-1.6,2.4
		C101.5,104.1,102.8,104.6,104,104.2z"></path><path class="st2" d="M267,72.8c-0.1,16.4-10.2,31.1-25.5,37c-15,5.7-32.6,1.8-43-10.6c-10.5-12.7-11.8-30.6-3.4-44.7
		c8.6-14.1,24.9-21.5,41.2-18.7c15.6,3,27.6,15.3,30.2,30.9C266.8,68.7,267,70.8,267,72.8c0.1,1.2,0.9,2.2,2,2.6
		c0.6,0.3,2.5,0.6,2.5-0.6c0-18-11.7-34.2-28.5-40.4c-8.6-3.2-17.9-3.7-26.8-1.4c-8.3,2.2-15.8,6.9-21.4,13.5
		c-11.5,13.6-13,33.1-3.7,48.3c9.7,15.6,27.8,23.8,45.9,20.7c17.2-3,31.2-16.9,34-34.1c0.4-2.2,0.5-4.3,0.5-6.5
		c-0.1-1.2-0.9-2.1-2-2.5C268.9,71.9,267,71.6,267,72.8z"></path><path class="st2" d="M225.9,32.4v80.9c0,1.3,4.7,2.1,4.7,1.8V34.2C230.6,32.9,225.9,32,225.9,32.4z"></path><path class="st2" d="M222.4,30.7c-4.5,5.2-8.2,11.1-10.9,17.3c-5.9,12.7-8.3,27-4.8,40.7c2.6,10.2,8.2,19.3,15.3,27
		c2.2,2.4,5.2-0.9,3.1-3.1c-5.9-6.4-10.8-13.8-13.4-22.2c-2-6.7-2.7-13.7-1.8-20.7c1.3-10.9,5.8-21.1,11.9-30.1
		c0.5-0.8,1.1-1.6,1.6-2.3c0.1-0.1,0.6-0.8,0.1-0.2l0.3-0.4l0.6-0.8c0.4-0.5,0.8-1,1.2-1.4C227.5,32.4,224.4,28.5,222.4,30.7
		L222.4,30.7z"></path><path class="st2" d="M231.1,33.8c0.3,0.3,0.6,0.5,0.9,0.8s0.7,0.7,1,1l0.6,0.6l0.4,0.5c2.4,2.9,4.6,6,6.4,9.3
		c5.9,11.3,7.7,24.2,5.3,36.7c-2,10.8-6.6,20.9-12.4,30.1c-0.9,1.4,3.5,3.9,4.4,2.4c9.2-14.8,15.5-32.3,13-50
		c-1.4-10.1-5.6-19.6-12-27.6c-1.3-1.7-2.7-3.2-4.3-4.6c-0.8-0.7-2.1-1.6-3.2-1.2S230.5,33.2,231.1,33.8L231.1,33.8z"></path><path class="st2" d="M201.5,42.9c3.3,1.5,6.8,2.7,10.4,3.4c8.5,2,17.2,2.4,25.9,1.3c6.4-0.9,12.6-2.5,18.6-5
		c1.1-0.4,1.8-1.6,1.4-2.7c0,0,0-0.1,0-0.1c-0.7-1.1-2.1-1.5-3.2-1c-15,6.1-32.1,7-47.2,1.7c-0.8-0.3-1.6-0.6-2.4-0.9
		c-0.3-0.1-1.5-0.7-0.4-0.1c-1.1-0.6-2.6-0.4-3.5,0.5c-0.7,0.8-0.7,2,0.1,2.7C201.3,42.8,201.4,42.9,201.5,42.9L201.5,42.9z"></path><path class="st2" d="M193,57.4c3.9,1.9,8,3.3,12.2,4.2c11.4,2.5,23,3.3,34.6,2.1c9.7-0.9,19.2-2.6,28.6-5.2
		c-0.6-0.6-1.2-1.2-1.9-1.7c-0.5-0.3-1.6-1.4-2.2-1.2c-15,4.1-30.5,6.3-46.1,5.4c-8.3-0.3-16.6-1.9-24.5-4.6c-1-0.4-1.9-0.7-2.9-1.2
		l-0.7-0.3c-0.2-0.1,0.4,0.2,0.1,0c-0.7-0.4-0.9-0.2-0.2,0.3C191,56.1,192,56.8,193,57.4L193,57.4z"></path><path class="st2" d="M188,75c5.3,1.8,10.7,3.2,16.2,4.1c12.9,2.4,26.1,3,39.2,1.8c9.5-0.9,18.8-2.8,27.9-5.8c0.9-0.3-0.8-1.6-1-1.7
		c-0.7-0.5-2-1.3-3-1c-14.9,4.8-30.6,6.9-46.3,6.1c-10-0.4-20-1.9-29.7-4.5l-0.6-0.2c-0.1,0-0.2,0-0.3-0.1l-1-0.3l-1.6-0.5
		c-0.5-0.2-0.9-0.3-1.4-0.5s-1.7-0.4-1.3,0.5S187.1,74.7,188,75L188,75z"></path><path class="st2" d="M191.2,96.6c5.3,2,10.7,3.5,16.2,4.6c11.4,2.5,23.4,3.5,35,2c7.5-0.9,14.8-3.1,21.5-6.5
		c2.5-1.3-0.1-5.5-2.3-4.4c-11.3,5.8-24.1,7.5-36.7,6.8c-9.5-0.6-18.8-2.3-27.9-5.1l-2.2-0.7c-0.4-0.1,0.4,0.2,0,0l-0.4-0.1
		l-0.7-0.2l-1.4-0.5C189.2,91.3,188.7,95.6,191.2,96.6L191.2,96.6z"></path><path class="st2" d="M200.2,133.5c-3.2,3-6.9,7-5.7,11.8c1.1,4.1,5.1,6.7,8.7,8.5c9.9,4.7,20.4,7.7,31.3,8.9
		c6.2,0.7,12.5,0.9,18.8,0.5c0.5,0,3.8-0.5,3.5-1.6c-1.7-5-7.1-8.2-11.8-9.9c-5.2-1.9-10.9-2.2-16.3-1.1c-5.3,1.1-10.3,3.5-14.4,7
		c-3.6,3.1-7.5,8-6.8,13.1c0.8,5.3,6.1,8.9,10.9,10.4c1.2,0.2,2.4,0,3.4-0.5c0.5-0.2,1.7-1,0.6-1.4c-3.8-1.1-7.7-3.6-9.4-7.4
		c-2-4.4,0.4-8.9,3.4-12.2c2.8-3.2,6.5-5.6,10.6-6.8c4.3-1.1,8.7-1,12.9,0.5c4.7,1.5,10.2,4.6,11.9,9.6l3.5-1.6
		c-10.3,0.7-20.7-0.3-30.7-2.9c-5-1.3-9.9-3-14.7-5c-3.6-1.6-7.9-3.6-9.9-7.2c-2.7-4.9,1-9.3,4.5-12.6c0.8-0.8-0.7-1-1.1-1
		C202.3,132.4,201.1,132.8,200.2,133.5L200.2,133.5z"></path><path class="st2" d="M186.8,96.1c-2.9-0.2-5.8-0.1-8.7,0.1c-4.1,0.3-9.4,0.9-12.3,4.1c-3.9,4.3,0.7,9.6,4,12.5
		c4.6,3.9,9.8,7.1,15.2,9.6c14.1,6.7,29,11.7,44.3,14.8c7.1,1.6,14.4,2.5,21.7,2.8c6,0.2,12.3-0.2,17.9-2.7c2.9-1.3,5.9-3.3,6.8-6.6
		c0.6-2.5-0.3-4.8-1.7-6.8c-2.5-3.6-6.3-6.4-10-8.6l-0.8-0.4c-1.2-0.6-2.6-0.3-3.4,0.7c-0.7,0.7-0.8,1.9-0.1,2.7
		c0.1,0.1,0.2,0.2,0.3,0.3c0.9,0.5,1.7,1,2.6,1.6c1.7,1.1,3.3,2.3,4.7,3.7c0.9,0.8,1.6,1.6,2.3,2.6c0.6,0.7,1,1.6,1.3,2.5
		c0.1,0.3,0-0.3,0.1,0.3c0,0.2,0,0.4,0.1,0.6s-0.1,0.7,0,0.2c0,0.3-0.1,0.5-0.2,0.8c-0.1,0.4,0,0,0-0.1c0,0.1-0.1,0.2-0.1,0.3
		l-0.2,0.3c-0.3,0.5,0.2-0.2,0,0l-0.5,0.6l-0.2,0.1c0.2-0.2-0.2,0.2-0.3,0.2c-1.3,0.9-2.8,1.6-4.3,2.1l-0.9,0.3c0.1,0,0.6-0.2,0.1,0
		l-0.7,0.2c-0.6,0.1-1.2,0.3-1.7,0.4c-2.4,0.5-4.9,0.7-7.4,0.6c-6.4,0-12.8-0.7-19.1-1.9c-14.6-2.6-28.8-7-42.4-12.8
		c-5.6-2.3-11-5.2-16-8.6c-2.1-1.3-4-3-5.6-4.8c-0.5-0.5-0.9-1-1.3-1.6c-0.3-0.4-0.5-0.8-0.7-1.2c-0.1-0.2-0.2-0.4-0.2-0.6
		s-0.2-0.8-0.1-0.2c0-0.2-0.1-0.3-0.1-0.5s0-0.2,0-0.2c0-0.4-0.1,0.4,0,0.1c0-0.2,0.1-0.3,0.1-0.5c0-0.3-0.3,0.4,0,0s0.2-0.3,0,0
		c0.1-0.1,0.3-0.3,0.4-0.5c0.1-0.2-0.4,0.3,0,0l0.4-0.3c0.4-0.3,0.2-0.1,0.1-0.1c0.2-0.1,0.4-0.2,0.6-0.3c0.4-0.2,0.8-0.3,1.2-0.5
		s-0.5,0.1,0.2-0.1l0.7-0.2c1-0.2,2-0.4,3-0.5c0.5-0.1,0.9-0.1,1.4-0.2l0.7-0.1c0.1,0,0.3,0,0.4,0c1,0,1.9-0.1,2.9-0.1
		c1.3,0,2.6,0,4,0.1h0.6c1.3,0.1,2.5-0.7,2.9-2c0.2-1-0.5-2-1.5-2.2C187,96.1,186.9,96.1,186.8,96.1L186.8,96.1z"></path><path class="st2" d="M136.5,62.4c0.3,0.1,0.7,0.2,1,0.3l0.2,0.1c-0.7-0.2-0.3-0.1-0.1,0l0.5,0.2l1,0.4l0.5,0.2c0.1,0,0.3,0.2,0,0
		l0.1,0.1c0.6,0.3,1.2,0.7,1.8,1.1l0.4,0.3l0.3,0.2c0.2,0.2-0.2-0.2-0.1,0l0.8,0.7c0.9,0.8,2.2,1.1,3.4,0.8c0.4-0.1,1-0.2,1.2-0.6
		c0.2-0.3,0.1-0.7-0.1-1c-2.6-2.4-5.8-4.2-9.2-5c-0.6-0.2-1.3-0.2-1.9-0.1c-0.5,0-0.9,0.3-1.2,0.6C134.4,61.7,135.8,62.3,136.5,62.4
		L136.5,62.4z"></path><path class="st2" d="M278.9,189c-0.3-1.6-0.1-3.3,0.5-4.8l-0.1,0.2c0-0.1,0-0.1,0.1-0.2c0.1-0.1,0.1-0.2,0-0.3c0,0,0,0,0,0
		c0-0.1-0.2-0.2-0.3-0.2c-0.5-0.2-1-0.3-1.5-0.3c-0.6,0-1.3,0-1.9,0.1l-0.5,0.1c-0.2,0.1-0.5,0.2-0.6,0.3c-0.8,1.6-1,3.4-0.7,5.2
		c0.1,0.3,0.5,0.4,0.7,0.5c0.6,0.1,1.2,0.2,1.8,0.2c0.6,0,1.2-0.1,1.8-0.2C278.3,189.4,278.9,189.3,278.9,189L278.9,189z"></path><path class="st2" d="M313.9,134.6l6.4-4.3c0.5-0.3,0.9-0.7,1.2-1.2c0.2-0.5,0.1-1.1-0.2-1.5c-0.3-0.4-0.9-0.7-1.4-0.8
		c-0.7-0.1-1.3,0-1.9,0.3l-6.4,4.3c-0.5,0.3-0.9,0.7-1.2,1.2c-0.2,0.5-0.1,1.1,0.2,1.5c0.3,0.4,0.9,0.7,1.4,0.8
		C312.6,135,313.3,134.9,313.9,134.6z"></path><path class="st2" d="M307.2,74.8h14.2c1.2,0,1.5-1.5,1.1-2.3c-0.5-1.2-1.6-2-2.9-2h-14.2c-1.2,0-1.5,1.4-1.1,2.3
		C304.8,74,305.9,74.8,307.2,74.8L307.2,74.8z"></path><path class="st2" d="M364.2,125.2l4.9,3.6c0.5,0.3,1.1,0.5,1.7,0.6c0.6,0.1,1.2,0,1.8-0.2c0.3-0.1,0.8-0.4,0.8-0.8
		c0-0.4-0.3-0.8-0.6-1l-4.9-3.6c-0.5-0.3-1.1-0.5-1.7-0.6c-0.6-0.1-1.2,0-1.8,0.2c-0.3,0.2-0.8,0.4-0.8,0.8
		C363.6,124.6,363.8,125,364.2,125.2z"></path></g></svg>