<svg width="303" height="374" viewBox="0 0 303 374" fill="none" xmlns="http://www.w3.org/2000/svg">
<g clip-path="url(#clip0_72_160)">
<path d="M94.6837 138.525C89.4277 138.722 84.929 144.175 86.9587 149.128C88.7915 153.521 94.714 153.096 98.3341 151.506C105.423 148.477 102.409 138.252 94.6837 138.525ZM98.8491 150.067C95.6834 152.082 89.3217 152.445 87.7312 148.916C86.1408 145.387 89.2459 140.494 93.7143 139.828C100.576 138.586 103.787 146.932 98.8491 150.067ZM126.538 143.857C127.719 142.342 130.006 141.055 131.718 141.827C132.718 142.297 133.308 140.979 132.172 140.767C130.99 140.56 129.773 140.708 128.676 141.194C127.578 141.679 126.65 142.479 126.008 143.493C125.984 143.528 125.967 143.567 125.958 143.609C125.949 143.65 125.949 143.692 125.957 143.734C125.964 143.775 125.98 143.815 126.003 143.85C126.026 143.886 126.056 143.916 126.091 143.94C126.126 143.964 126.165 143.981 126.206 143.989C126.247 143.998 126.29 143.999 126.332 143.991C126.373 143.983 126.413 143.967 126.448 143.944C126.483 143.921 126.514 143.892 126.538 143.857ZM61.5422 97.901C64.3372 99.1001 67.259 99.9792 70.2517 100.521C70.6152 100.521 70.8121 100.082 70.903 99.8095C72.1098 96.0682 74.5709 92.8581 77.8706 90.7213C90.488 83.2993 102.636 95.9773 97.3495 107.974C94.411 114.623 86.7467 116.547 80.491 118.304C79.3701 118.622 79.6276 119.107 80.7182 121.712C82.556 126.135 84.3686 130.563 86.156 134.996C86.5195 135.859 88.0645 135.299 88.6855 135.178C89.6549 135.011 94.9563 134.39 95.1229 133.072C95.2896 131.754 91.8815 124.726 91.2302 123.242C103.257 119.94 111.391 107.186 108.649 94.8413C105.211 79.5277 88.4431 75.9076 75.1593 80.3154C68.1614 82.648 61.1938 88.9037 61.0878 96.8407C61.0878 97.6435 60.9363 97.6435 61.5422 97.901ZM73.4174 82.0118C86.5801 76.9224 103.954 79.3611 107.543 95.1291C110.24 106.838 102.166 119.031 90.7606 122.136C90.3062 122.257 89.8215 122.469 90.6243 124.06C91.8966 126.65 93.9112 131.785 94.3656 132.8C91.9863 133.577 89.5433 134.145 87.0648 134.496L80.7333 119.47C86.7012 119.076 95.8803 114.335 98.425 108.519C103.545 96.7498 92.3965 82.754 78.7642 89.1763C76.6577 90.1738 74.8011 91.6303 73.3308 93.4387C71.8604 95.2472 70.8135 97.3619 70.2668 99.6277L61.7845 97.1436C61.8905 90.691 67.6161 84.2536 73.4174 82.0118ZM129.007 148.007C128.098 147.174 125.72 150.718 126.932 151.445C127.613 151.839 129.931 148.855 129.007 148.007ZM148.834 147.265C149.703 147.755 150.43 148.462 150.945 149.317C151.46 150.172 151.745 151.145 151.773 152.142C151.773 152.215 151.797 152.286 151.842 152.344C151.886 152.402 151.949 152.444 152.019 152.463C152.09 152.482 152.165 152.477 152.233 152.449C152.3 152.421 152.357 152.372 152.394 152.309C153.333 149.84 151.454 147.401 149.47 146.099C148.667 145.553 148.016 147.023 148.834 147.265ZM137.959 172.091C140.094 170.364 143.578 170.061 145.305 172.56C146.607 174.454 145.502 176.771 143.169 176.196C142.511 175.928 141.873 175.615 141.261 175.256C141.204 175.235 141.142 175.23 141.082 175.241C141.023 175.253 140.967 175.28 140.922 175.321C140.877 175.361 140.843 175.413 140.826 175.471C140.808 175.53 140.806 175.591 140.821 175.65C141.654 178.149 146.592 178.028 146.971 174.741C147.425 170.818 141.594 167.698 137.625 171.712C137.575 171.756 137.544 171.819 137.54 171.885C137.536 171.952 137.558 172.018 137.603 172.068C137.647 172.118 137.709 172.149 137.776 172.153C137.843 172.157 137.908 172.135 137.959 172.091ZM143.321 157.338C144.835 158.034 146.35 154.232 145.123 153.717C143.896 153.202 142.381 156.944 143.321 157.338ZM133.369 162.897C135.505 163.76 135.171 162.654 134.884 162.397C133.159 161.521 131.378 160.762 129.552 160.125C131.779 156.595 133.884 153.021 136.323 149.628C136.535 149.34 136.08 148.976 135.868 149.279C133.566 152.506 131.233 155.717 129.007 158.989C127.583 161.064 128.037 160.746 133.369 162.897ZM187.822 288.601C188.872 288.07 189.706 287.193 190.185 286.119C190.664 285.045 190.759 283.839 190.453 282.703C190.148 281.567 189.46 280.571 188.507 279.883C187.553 279.194 186.391 278.855 185.217 278.922C177.295 278.922 177.946 294.024 187.822 288.601ZM220.57 253.869C223.872 257.05 231.415 255.687 229.083 249.022C226.311 241.07 214.572 248.098 220.57 253.869ZM211.77 310.806C201.379 311.655 206.847 326.059 214.208 321.697C219.222 318.713 216.98 310.322 211.77 310.806ZM184.929 236.935C183.733 231.891 175.311 230.634 173.433 236.48C170.494 245.705 186.853 245.069 184.929 236.935ZM249.258 288.283C238.731 292.1 254.62 307.565 257.332 293.736C258.346 288.646 253.515 286.738 249.258 288.283ZM150.197 265.032C149.017 265.203 147.929 265.768 147.111 266.637C146.294 267.505 145.795 268.626 145.697 269.814C145.598 271.003 145.906 272.19 146.569 273.181C147.233 274.173 148.213 274.909 149.349 275.272C157.15 277.604 158.467 263.821 150.197 265.032Z" fill="black"/>
<path d="M274.402 308.353C273.872 284.663 259.407 260.019 244.699 241.948C248.243 237.092 250.242 231.282 250.437 225.273C250.631 219.265 249.012 213.337 245.79 208.262C241.654 201.748 236.08 199.492 234.323 194.629C232.203 188.843 234.853 182.512 234.49 176.665C234.066 169.637 229.946 161.897 222.69 160.003C217.874 158.746 210.755 160.988 208.165 152.203C206.135 145.311 209.679 135.117 203.62 125.499C200.379 120.334 194.669 117.471 189.11 115.517C182.082 113.048 173.766 112.079 166.995 115.744C162.947 114.184 158.579 113.638 154.272 114.154C159.043 109.185 161.088 98.8552 158.816 92.3117C158.119 90.282 146.35 98.6583 145.502 109.14C140.73 103.551 136.02 101.688 129.082 100.794C126.416 100.446 131.975 114.29 136.747 116.123C133.111 116.456 128.083 117.637 125.462 120.318C124.64 121.309 124.026 122.455 123.657 123.687C123.287 124.92 123.17 126.215 123.311 127.494C123.452 128.773 123.85 130.011 124.48 131.133C125.109 132.255 125.959 133.239 126.977 134.026C121.569 142.63 116.813 152.097 115.92 162.366C111.615 163.436 107.905 166.157 105.589 169.94C99.152 179.331 106.635 183.572 104.241 190.994C101.409 199.916 92.8509 196.598 88.7915 202.521C85.7621 206.808 86.474 212.851 89.4125 217.017C84.9745 219.561 79.3852 222.727 75.8711 226.377C76.6739 203.036 73.6445 181.452 72.4631 176.635C72.2965 175.999 69.9184 176.498 69.2822 176.544C70.579 173.741 71.4714 170.767 71.9329 167.713C72.1904 164.866 71.9329 160.791 68.2825 160.564C67.9644 159.67 68.2825 150.476 62.4509 145.417C61.1786 144.311 59.8305 144.099 59.8608 146.114C59.8608 149.143 61.9662 151.794 62.254 156.717C60.8704 156.797 59.5394 157.275 58.4219 158.095C53.287 156.762 47.7281 168.425 52.3631 169.289C51.7527 171.453 51.897 173.76 52.772 175.832C52.3631 175.832 51.4846 175.499 51.2573 175.968C40.3061 197.326 24.8714 235.541 29.0974 259.049C34.0201 286.42 63.4809 294.024 87.5494 291.297C88.9656 304.914 92.9651 318.136 99.3338 330.255C101.121 333.618 108.422 348.007 112.466 351.37C111.311 356.203 110.727 361.154 110.724 366.123C110.724 366.608 111.451 366.532 111.466 366.123C111.633 361.473 112.257 356.852 113.33 352.324C116.673 353.728 120.086 354.961 123.554 356.02C150.805 364.176 179.814 364.412 207.195 356.702C211.209 355.566 215.526 354.505 219.025 352.158C220.403 356.702 221.918 361.049 223.387 365.487C223.398 365.524 223.416 365.558 223.44 365.588C223.465 365.618 223.494 365.642 223.528 365.661C223.562 365.679 223.599 365.69 223.637 365.694C223.675 365.698 223.714 365.695 223.751 365.684C223.788 365.673 223.822 365.655 223.852 365.631C223.881 365.607 223.906 365.577 223.925 365.543C223.943 365.509 223.954 365.472 223.958 365.434C223.962 365.396 223.959 365.357 223.948 365.32C222.584 360.443 221.267 355.566 219.797 350.734C220.77 346.403 221.277 341.98 221.312 337.541C230.582 338.874 243.699 339.964 252.818 338.132C261.936 336.299 269.555 331.346 272.509 322.212C273.931 317.735 274.572 313.047 274.402 308.353ZM176.629 125.438C179.416 130.709 180.173 138.419 179.294 144.22C178.723 148.606 176.957 152.751 174.19 156.202L172.675 155.777C176.417 143.66 172.993 129.8 162.345 122.348C158.116 119.653 153.387 117.839 148.44 117.016C157.331 111.897 171.812 116.289 176.629 125.438ZM158.346 93.2963C159.225 105.293 157.437 109.382 152.287 114.502C151.311 114.713 150.365 115.044 149.47 115.487C148.71 113.468 147.62 111.589 146.244 109.928C147.531 102.99 151.47 95.9924 158.346 93.2963ZM129.491 101.612C129.491 101.4 129.491 101.445 129.673 101.491C139.958 103.839 143.805 106.656 148.546 116.002C148.183 116.23 147.843 116.494 147.531 116.789C144.606 116.194 141.624 115.93 138.64 116.002C133.884 115.168 130.264 105.929 129.491 101.612ZM128.128 134.617C137.974 139.994 153.666 144.599 165.299 143.084C162.137 146.903 160.516 151.765 160.755 156.717C160.936 160.564 163.314 163.078 166.662 160.231C168.404 158.716 170.63 156.065 173.236 156.929C175.841 157.792 175.493 160.776 174.417 162.987C170.434 171.152 162.784 169.788 165.753 188.631C166.259 191.837 167.055 194.99 168.131 198.053C167.626 200.514 166.276 202.722 164.314 204.293C155.332 212.442 138.064 210.488 138.352 199.295C138.438 196.208 138.362 193.119 138.125 190.04C132.172 188.828 124.614 186.071 120.903 180.861C119.635 178.964 118.703 176.863 118.146 174.651C115.586 165.744 117.343 156.232 120.933 147.856C122.922 143.232 125.331 138.801 128.128 134.617ZM169.116 198.643C170.782 198.795 172.372 199.022 173.948 199.279C173.948 200.491 175.462 205.338 174.296 211.185C173.16 217.38 168.767 223.818 162.042 224.363C151.894 225.166 149.546 215.153 149.591 210.276C162.572 211.2 169.646 200.734 169.116 198.643ZM147.607 210.034C146.895 210.034 145.153 217.001 138.852 218.425C132.884 219.788 129.249 215.017 130.355 209.337C131.218 204.793 134.535 201.658 135.187 200.249L137.292 199.779C136.838 205.565 141.791 209.049 147.607 210.034ZM69.676 161.882C72.039 163.396 70.8726 169.122 70.1607 171.273C69.5852 173.045 68.9035 174.802 68.2674 176.559C63.4395 176.774 58.602 176.541 53.8172 175.862C53.165 173.689 52.9387 171.411 53.1507 169.152C53.8418 168.962 54.4429 168.532 54.8472 167.94C56.2558 169.591 58.331 167.229 59.3913 166.214L62.042 166.638C60.2309 167.941 58.9169 169.821 58.3158 171.97C58.3211 172.036 58.3482 172.099 58.3929 172.148C58.4376 172.198 58.4973 172.231 58.5629 172.243C58.6285 172.256 58.6963 172.246 58.7557 172.215C58.8151 172.185 58.8628 172.136 58.8914 172.076C59.3259 170.898 59.9997 169.822 60.8704 168.918C61.7412 168.013 62.7899 167.299 63.9505 166.82C65.8893 166.259 65.4652 165.487 63.9505 165.79C63.4809 165.88 58.7248 165.638 58.6339 164.866C58.543 164.093 66.9647 160.155 69.676 161.882ZM62.4661 157.55V159.367C62.4661 159.655 62.9811 159.67 63.0417 159.367C64.2383 152.748 61.0574 149.84 61.0574 145.856C61.0574 145.114 61.5573 145.644 61.9057 145.856C66.8738 149.84 67.298 157.156 67.404 160.488C64.4315 160.764 61.5716 161.762 59.0732 163.396C57.8008 164.093 56.7557 165.244 58.5127 166.002C57.7857 166.532 55.9378 168.622 55.2713 167.047C54.6048 165.472 57.0435 157.671 62.4206 157.519L62.4661 157.55ZM51.7875 167.38C51.4997 163.957 53.9989 159.276 57.5585 158.852C55.5288 160.837 53.7112 165.396 54.3928 167.395C53.7717 168.228 51.8632 169.349 51.7421 167.35L51.7875 167.38ZM51.9844 176.302C58.1189 178.089 65.3137 177.483 71.6754 177.286L72.9023 185.859C64.7431 186.52 56.5306 185.84 48.5915 183.845C49.6821 181.3 50.8332 178.816 51.939 176.271L51.9844 176.302ZM270.1 325.348C263.133 317.305 255.665 329.892 262.027 333.588C256.62 336.723 250.303 337.692 244.139 337.859C221.842 338.465 198.41 332.906 178.28 323.439C179.31 311.322 176.477 301.9 172.372 295.705C189.382 291.358 202.484 290.267 218.873 289.298C219.146 289.298 219.207 288.813 218.873 288.798C215.697 288.649 212.515 288.705 209.346 288.965C209.058 287.617 199.167 277.574 189.655 257.156C189.504 256.838 189.004 256.989 189.14 257.323C193.937 268.14 200.008 278.345 207.225 287.723C207.544 288.147 207.877 288.571 208.24 288.98C191.565 289.92 175.088 293.068 159.24 298.341C158.513 298.598 159.013 299.34 159.437 299.673C157.171 299.79 154.925 300.161 152.742 300.779C151.742 300.219 148.425 299.992 145.971 297.614C142.942 294.584 142.699 301.673 146.562 303.339C136.232 308.989 133.899 317.441 136.898 317.123C137.625 317.047 138.201 316.335 138.716 315.835C139.609 315.002 140.533 314.184 141.412 313.306C137.095 322.394 141.609 325.181 142.836 320.879C143.658 317.999 145.225 315.387 147.38 313.306C144.805 318.335 147.077 324.56 149.288 322.879C150.53 321.909 150.076 316.82 154.393 314.411C154.878 314.154 155.393 313.987 155.908 313.745C157.286 315.472 161.8 317.82 166.904 317.804C167.056 318.153 167.071 318.319 167.283 318.456C183.592 328.02 201.592 334.351 220.297 337.102C220.259 341.685 219.752 346.253 218.783 350.734C214.466 353.642 204.484 356.081 199.228 357.262C179.008 361.763 158.075 362.031 137.746 358.05C133.066 357.126 115.859 353.294 113.117 350.113C107.983 344.16 105.68 338.798 101.818 331.937C94.1081 318.229 88.6855 300.355 88.4734 284.617C88.1624 272.365 91.3575 260.278 97.6827 249.779C100.654 245.366 103.87 241.124 107.316 237.071C107.559 236.798 107.134 236.42 106.907 236.692C101.106 243.281 96.0923 249.249 92.6085 257.398C88.3333 267.669 86.6079 278.822 87.5797 289.904C68.7824 292.282 47.5312 288.707 35.8983 272.242C40.8817 270.213 39.2913 259.352 30.8241 261.17C26.9616 246.023 33.0356 223.742 37.9735 209.67C41.0029 201.021 44.5775 192.6 48.3643 184.239C52.2268 186.162 64.9199 187.541 73.0992 186.753C75.2984 204.722 75.7549 222.862 74.4625 240.918C74.4625 241.252 74.9623 241.252 75.0229 240.918C75.6791 236.48 76.0233 232 76.0529 227.513C82.5812 221.318 93.8506 215.396 102 211.564C100.864 214.517 103.832 218.001 106.922 217.986C113.284 217.986 113.345 209.307 108.907 208.519C116.946 205.199 125.238 202.524 133.702 200.522C130.673 204.596 127.643 209.776 129.84 214.926C132.415 221.106 141.533 221.727 146.819 213.139C139.854 227.764 135.355 243.441 133.505 259.534C133.505 259.898 134.005 260.019 134.066 259.655C136.383 243.057 141.305 226.929 148.652 211.867C148.716 215.227 149.828 218.484 151.833 221.182C159.573 231.361 179.855 223.197 175.084 199.446C186.394 201.456 197.272 205.401 207.241 211.109C206.153 212.066 205.454 213.388 205.275 214.826C205.097 216.263 205.451 217.716 206.271 218.91C206.689 219.548 207.229 220.098 207.86 220.527C208.491 220.956 209.2 221.257 209.947 221.412C210.694 221.566 211.464 221.572 212.214 221.429C212.963 221.285 213.677 220.996 214.314 220.576C214.909 220.135 215.391 219.559 215.72 218.896C216.05 218.232 216.217 217.5 216.208 216.759C232.718 228.271 246.032 243.842 256.635 260.822C264.769 273.848 271.903 289.252 273.084 304.929C273.599 311.836 273.19 319.092 270.1 325.317V325.348ZM149.819 310.322L148.41 311.836C141.73 316.381 142.351 323.394 140.836 321.955C138.973 320.137 142.094 312.17 144.896 309.686C147.289 307.565 144.517 307.868 142.336 311.549L142.215 311.67C140.52 313.044 138.897 314.505 137.353 316.047C133.96 319.168 138.443 302.097 160.209 300.476C164.753 304.642 165.935 310.958 166.738 316.88C160.558 316.88 156.301 313.018 155.741 313.079C152.363 313.472 150.182 317.289 149.349 320.228C149.243 320.591 149.001 322.197 148.637 322.318C147.501 322.712 145.335 315.472 150.152 310.791C150.515 310.428 150.106 310.034 149.819 310.322ZM147.304 302.93C144.593 302.112 143.805 297.507 144.805 297.72C146.648 299.359 148.839 300.56 151.212 301.234C149.863 301.668 148.556 302.221 147.304 302.885V302.93ZM159.846 299.265C159.422 299.265 168.934 296.553 171.645 295.856C177.462 306.262 177.901 314.033 177.204 322.954L167.995 318.183C166.995 309.549 164.299 302.097 159.846 299.219V299.265Z" fill="black"/>
<path d="M66.5557 271.424C68.4339 275.166 77.1586 273.878 76.8708 268.107C76.477 259.837 62.1782 262.745 66.5557 271.424ZM59.6487 201.582C59.8759 193.539 50.1819 194.781 49.167 202.703C48.6369 206.762 59.4064 210.246 59.6487 201.582ZM58.24 223.212C56.2104 225.166 56.3618 231.694 62.0419 231.543C71.842 231.3 64.6321 217.077 58.24 223.212ZM108.922 308.807C111.951 313.033 119.055 309.958 117.858 304.46C116.162 296.69 103.923 301.9 108.922 308.807ZM115.602 242.721C109.437 242.721 108.619 251.218 113.072 253.188C123.629 257.853 124.099 242.721 115.602 242.721ZM154.999 344.842C160.936 348.901 168.631 339.101 161.966 335.239C154.953 331.134 148.758 340.616 154.999 344.842Z" fill="black"/>
<rect x="49" y="71" width="37" height="39" fill="white"/>
<rect x="78" y="70" width="37" height="89" fill="white"/>
</g>
<path d="M48.427 6.9L40.507 20.991V30H35.986V20.991L28.099 6.9H33.247L38.263 16.536L43.279 6.9H48.427ZM61.214 27.954C59.52 29.626 57.452 30.462 55.01 30.462C52.568 30.462 50.5 29.626 48.806 27.954C47.134 26.26 46.298 24.192 46.298 21.75C46.298 19.308 47.134 17.251 48.806 15.579C50.5 13.885 52.568 13.038 55.01 13.038C57.452 13.038 59.52 13.885 61.214 15.579C62.908 17.251 63.755 19.308 63.755 21.75C63.755 24.192 62.908 26.26 61.214 27.954ZM51.809 25.017C52.667 25.875 53.734 26.304 55.01 26.304C56.286 26.304 57.353 25.875 58.211 25.017C59.069 24.159 59.498 23.07 59.498 21.75C59.498 20.43 59.069 19.341 58.211 18.483C57.353 17.625 56.286 17.196 55.01 17.196C53.734 17.196 52.667 17.625 51.809 18.483C50.973 19.341 50.555 20.43 50.555 21.75C50.555 23.07 50.973 24.159 51.809 25.017ZM77.6397 13.5H81.8967V30H77.6397V28.152C76.6057 29.692 74.9667 30.462 72.7227 30.462C70.9187 30.462 69.4227 29.857 68.2347 28.647C67.0687 27.437 66.4857 25.765 66.4857 23.631V13.5H70.7427V23.103C70.7427 24.203 71.0397 25.05 71.6337 25.644C72.2277 26.216 73.0197 26.502 74.0097 26.502C75.1097 26.502 75.9897 26.161 76.6497 25.479C77.3097 24.797 77.6397 23.774 77.6397 22.41V13.5ZM106.553 6.9H110.81V30H106.553V28.053C105.299 29.659 103.517 30.462 101.207 30.462C98.9846 30.462 97.0816 29.626 95.4976 27.954C93.9356 26.26 93.1546 24.192 93.1546 21.75C93.1546 19.308 93.9356 17.251 95.4976 15.579C97.0816 13.885 98.9846 13.038 101.207 13.038C103.517 13.038 105.299 13.841 106.553 15.447V6.9ZM98.6986 25.116C99.5786 25.974 100.679 26.403 101.999 26.403C103.319 26.403 104.408 25.974 105.266 25.116C106.124 24.236 106.553 23.114 106.553 21.75C106.553 20.386 106.124 19.275 105.266 18.417C104.408 17.537 103.319 17.097 101.999 17.097C100.679 17.097 99.5786 17.537 98.6986 18.417C97.8406 19.275 97.4116 20.386 97.4116 21.75C97.4116 23.114 97.8406 24.236 98.6986 25.116ZM128.761 27.954C127.067 29.626 124.999 30.462 122.557 30.462C120.115 30.462 118.047 29.626 116.353 27.954C114.681 26.26 113.845 24.192 113.845 21.75C113.845 19.308 114.681 17.251 116.353 15.579C118.047 13.885 120.115 13.038 122.557 13.038C124.999 13.038 127.067 13.885 128.761 15.579C130.455 17.251 131.302 19.308 131.302 21.75C131.302 24.192 130.455 26.26 128.761 27.954ZM119.356 25.017C120.214 25.875 121.281 26.304 122.557 26.304C123.833 26.304 124.9 25.875 125.758 25.017C126.616 24.159 127.045 23.07 127.045 21.75C127.045 20.43 126.616 19.341 125.758 18.483C124.9 17.625 123.833 17.196 122.557 17.196C121.281 17.196 120.214 17.625 119.356 18.483C118.52 19.341 118.102 20.43 118.102 21.75C118.102 23.07 118.52 24.159 119.356 25.017ZM143.471 13.038C145.275 13.038 146.76 13.643 147.926 14.853C149.114 16.063 149.708 17.735 149.708 19.869V30H145.451V20.397C145.451 19.297 145.154 18.461 144.56 17.889C143.966 17.295 143.174 16.998 142.184 16.998C141.084 16.998 140.204 17.339 139.544 18.021C138.884 18.703 138.554 19.726 138.554 21.09V30H134.297V13.5H138.554V15.348C139.588 13.808 141.227 13.038 143.471 13.038ZM157.277 6.867L154.802 16.041H151.337L152.657 6.867H157.277ZM170.289 17.592H166.56V24.456C166.56 25.028 166.703 25.446 166.989 25.71C167.275 25.974 167.693 26.128 168.243 26.172C168.793 26.194 169.475 26.183 170.289 26.139V30C167.363 30.33 165.295 30.055 164.085 29.175C162.897 28.295 162.303 26.722 162.303 24.456V17.592H159.432V13.5H162.303V10.167L166.56 8.88V13.5H170.289V17.592ZM190.973 13.038C192.777 13.038 194.262 13.643 195.428 14.853C196.616 16.063 197.21 17.735 197.21 19.869V30H192.953V20.397C192.953 19.297 192.656 18.461 192.062 17.889C191.468 17.295 190.676 16.998 189.686 16.998C188.586 16.998 187.706 17.339 187.046 18.021C186.386 18.703 186.056 19.726 186.056 21.09V30H181.799V6.9H186.056V15.348C187.09 13.808 188.729 13.038 190.973 13.038ZM213.384 13.5H217.641V30H213.384V28.053C212.108 29.659 210.315 30.462 208.005 30.462C205.805 30.462 203.913 29.626 202.329 27.954C200.767 26.26 199.986 24.192 199.986 21.75C199.986 19.308 200.767 17.251 202.329 15.579C203.913 13.885 205.805 13.038 208.005 13.038C210.315 13.038 212.108 13.841 213.384 15.447V13.5ZM205.53 25.116C206.388 25.974 207.477 26.403 208.797 26.403C210.117 26.403 211.206 25.974 212.064 25.116C212.944 24.236 213.384 23.114 213.384 21.75C213.384 20.386 212.944 19.275 212.064 18.417C211.206 17.537 210.117 17.097 208.797 17.097C207.477 17.097 206.388 17.537 205.53 18.417C204.672 19.275 204.243 20.386 204.243 21.75C204.243 23.114 204.672 24.236 205.53 25.116ZM232.359 13.5H237.045L230.775 30H225.924L219.654 13.5H224.34L228.333 25.05L232.359 13.5ZM242.05 23.499C242.622 25.567 244.173 26.601 246.703 26.601C248.331 26.601 249.563 26.051 250.399 24.951L253.831 26.931C252.203 29.285 249.805 30.462 246.637 30.462C243.909 30.462 241.72 29.637 240.07 27.987C238.42 26.337 237.595 24.258 237.595 21.75C237.595 19.264 238.409 17.196 240.037 15.546C241.665 13.874 243.755 13.038 246.307 13.038C248.727 13.038 250.718 13.874 252.28 15.546C253.864 17.218 254.656 19.286 254.656 21.75C254.656 22.3 254.601 22.883 254.491 23.499H242.05ZM241.984 20.199H250.399C250.157 19.077 249.651 18.241 248.881 17.691C248.133 17.141 247.275 16.866 246.307 16.866C245.163 16.866 244.217 17.163 243.469 17.757C242.721 18.329 242.226 19.143 241.984 20.199ZM42.487 54.5H46.744V71H42.487V69.053C41.211 70.659 39.418 71.462 37.108 71.462C34.908 71.462 33.016 70.626 31.432 68.954C29.87 67.26 29.089 65.192 29.089 62.75C29.089 60.308 29.87 58.251 31.432 56.579C33.016 54.885 34.908 54.038 37.108 54.038C39.418 54.038 41.211 54.841 42.487 56.447V54.5ZM34.633 66.116C35.491 66.974 36.58 67.403 37.9 67.403C39.22 67.403 40.309 66.974 41.167 66.116C42.047 65.236 42.487 64.114 42.487 62.75C42.487 61.386 42.047 60.275 41.167 59.417C40.309 58.537 39.22 58.097 37.9 58.097C36.58 58.097 35.491 58.537 34.633 59.417C33.775 60.275 33.346 61.386 33.346 62.75C33.346 64.114 33.775 65.236 34.633 66.116ZM59.7782 54.038C61.5822 54.038 63.0672 54.643 64.2332 55.853C65.4212 57.063 66.0152 58.735 66.0152 60.869V71H61.7582V61.397C61.7582 60.297 61.4612 59.461 60.8672 58.889C60.2732 58.295 59.4812 57.998 58.4912 57.998C57.3912 57.998 56.5112 58.339 55.8512 59.021C55.1912 59.703 54.8612 60.726 54.8612 62.09V71H50.6042V54.5H54.8612V56.348C55.8952 54.808 57.5342 54.038 59.7782 54.038ZM80.0536 54.5H84.6076L78.6016 71C77.7436 73.376 76.5996 75.092 75.1696 76.148C73.7616 77.226 72.0016 77.71 69.8896 77.6V73.64C71.0336 73.662 71.9356 73.42 72.5956 72.914C73.2776 72.408 73.8166 71.594 74.2126 70.472L67.4476 54.5H72.1006L76.3906 65.588L80.0536 54.5ZM98.4805 64.499C99.0525 66.567 100.604 67.601 103.134 67.601C104.762 67.601 105.994 67.051 106.83 65.951L110.262 67.931C108.634 70.285 106.236 71.462 103.068 71.462C100.34 71.462 98.1505 70.637 96.5005 68.987C94.8505 67.337 94.0255 65.258 94.0255 62.75C94.0255 60.264 94.8395 58.196 96.4675 56.546C98.0955 54.874 100.186 54.038 102.738 54.038C105.158 54.038 107.149 54.874 108.711 56.546C110.295 58.218 111.087 60.286 111.087 62.75C111.087 63.3 111.032 63.883 110.922 64.499H98.4805ZM98.4145 61.199H106.83C106.588 60.077 106.082 59.241 105.312 58.691C104.564 58.141 103.706 57.866 102.738 57.866C101.594 57.866 100.648 58.163 99.8995 58.757C99.1515 59.329 98.6565 60.143 98.4145 61.199ZM124.271 54.5H128.957L122.687 71H117.836L111.566 54.5H116.252L120.245 66.05L124.271 54.5ZM133.962 64.499C134.534 66.567 136.085 67.601 138.615 67.601C140.243 67.601 141.475 67.051 142.311 65.951L145.743 67.931C144.115 70.285 141.717 71.462 138.549 71.462C135.821 71.462 133.632 70.637 131.982 68.987C130.332 67.337 129.507 65.258 129.507 62.75C129.507 60.264 130.321 58.196 131.949 56.546C133.577 54.874 135.667 54.038 138.219 54.038C140.639 54.038 142.63 54.874 144.192 56.546C145.776 58.218 146.568 60.286 146.568 62.75C146.568 63.3 146.513 63.883 146.403 64.499H133.962ZM133.896 61.199H142.311C142.069 60.077 141.563 59.241 140.793 58.691C140.045 58.141 139.187 57.866 138.219 57.866C137.075 57.866 136.129 58.163 135.381 58.757C134.633 59.329 134.138 60.143 133.896 61.199ZM158.714 54.038C160.518 54.038 162.003 54.643 163.169 55.853C164.357 57.063 164.951 58.735 164.951 60.869V71H160.694V61.397C160.694 60.297 160.397 59.461 159.803 58.889C159.209 58.295 158.417 57.998 157.427 57.998C156.327 57.998 155.447 58.339 154.787 59.021C154.127 59.703 153.797 60.726 153.797 62.09V71H149.54V54.5H153.797V56.348C154.831 54.808 156.47 54.038 158.714 54.038ZM178.024 58.592H174.295V65.456C174.295 66.028 174.438 66.446 174.724 66.71C175.01 66.974 175.428 67.128 175.978 67.172C176.528 67.194 177.21 67.183 178.024 67.139V71C175.098 71.33 173.03 71.055 171.82 70.175C170.632 69.295 170.038 67.722 170.038 65.456V58.592H167.167V54.5H170.038V51.167L174.295 49.88V54.5H178.024V58.592ZM184.598 59.186C184.598 59.626 184.884 59.989 185.456 60.275C186.05 60.539 186.765 60.781 187.601 61.001C188.437 61.199 189.273 61.463 190.109 61.793C190.945 62.101 191.649 62.629 192.221 63.377C192.815 64.125 193.112 65.06 193.112 66.182C193.112 67.876 192.474 69.185 191.198 70.109C189.944 71.011 188.371 71.462 186.479 71.462C183.091 71.462 180.781 70.153 179.549 67.535L183.245 65.456C183.729 66.886 184.807 67.601 186.479 67.601C187.997 67.601 188.756 67.128 188.756 66.182C188.756 65.742 188.459 65.39 187.865 65.126C187.293 64.84 186.589 64.587 185.753 64.367C184.917 64.147 184.081 63.872 183.245 63.542C182.409 63.212 181.694 62.695 181.1 61.991C180.528 61.265 180.242 60.363 180.242 59.285C180.242 57.657 180.836 56.381 182.024 55.457C183.234 54.511 184.73 54.038 186.512 54.038C187.854 54.038 189.075 54.346 190.175 54.962C191.275 55.556 192.144 56.414 192.782 57.536L189.152 59.516C188.624 58.394 187.744 57.833 186.512 57.833C185.962 57.833 185.5 57.954 185.126 58.196C184.774 58.438 184.598 58.768 184.598 59.186ZM215.018 54.5H219.572L213.566 71C212.708 73.376 211.564 75.092 210.134 76.148C208.726 77.226 206.966 77.71 204.854 77.6V73.64C205.998 73.662 206.9 73.42 207.56 72.914C208.242 72.408 208.781 71.594 209.177 70.472L202.412 54.5H207.065L211.355 65.588L215.018 54.5ZM224.551 64.499C225.123 66.567 226.674 67.601 229.204 67.601C230.832 67.601 232.064 67.051 232.9 65.951L236.332 67.931C234.704 70.285 232.306 71.462 229.138 71.462C226.41 71.462 224.221 70.637 222.571 68.987C220.921 67.337 220.096 65.258 220.096 62.75C220.096 60.264 220.91 58.196 222.538 56.546C224.166 54.874 226.256 54.038 228.808 54.038C231.228 54.038 233.219 54.874 234.781 56.546C236.365 58.218 237.157 60.286 237.157 62.75C237.157 63.3 237.102 63.883 236.992 64.499H224.551ZM224.485 61.199H232.9C232.658 60.077 232.152 59.241 231.382 58.691C230.634 58.141 229.776 57.866 228.808 57.866C227.664 57.866 226.718 58.163 225.97 58.757C225.222 59.329 224.727 60.143 224.485 61.199ZM249.083 58.592H245.354V65.456C245.354 66.028 245.497 66.446 245.783 66.71C246.069 66.974 246.487 67.128 247.037 67.172C247.587 67.194 248.269 67.183 249.083 67.139V71C246.157 71.33 244.089 71.055 242.879 70.175C241.691 69.295 241.097 67.722 241.097 65.456V58.592H238.226V54.5H241.097V51.167L245.354 49.88V54.5H249.083V58.592ZM261.385 63.245L260.494 54.5V47.9H265.609V54.5L264.751 63.245H261.385ZM265.048 70.604C264.498 71.154 263.838 71.429 263.068 71.429C262.298 71.429 261.638 71.154 261.088 70.604C260.538 70.054 260.263 69.394 260.263 68.624C260.263 67.854 260.538 67.194 261.088 66.644C261.638 66.094 262.298 65.819 263.068 65.819C263.838 65.819 264.498 66.094 265.048 66.644C265.598 67.194 265.873 67.854 265.873 68.624C265.873 69.394 265.598 70.054 265.048 70.604Z" fill="black"/>
<defs>
<clipPath id="clip0_72_160">
<rect width="302.939" height="302.939" fill="white" transform="translate(0 71)"/>
</clipPath>
</defs>
</svg>
